<?xml version="1.0" encoding="UTF-8" standalone="no"?>
<svg width="39px" height="46px" viewBox="0 0 39 46" version="1.1" xmlns="http://www.w3.org/2000/svg" xmlns:xlink="http://www.w3.org/1999/xlink">
    <!-- Generator: Sketch 40.1 (33804) - http://www.bohemiancoding.com/sketch -->
    <title>Combined Shape</title>
    <desc>Created with Sketch.</desc>
    <defs></defs>
    <g id="2-services" stroke="none" stroke-width="1" fill="none" fill-rule="evenodd">
        <g id="2.1-m-servicePage" transform="translate(-140.000000, -5567.000000)" fill="#C59C63">
            <g id="Group-4-Copy-2" transform="translate(0.000000, 5034.000000)">
                <g id="ic-arrowDown" transform="translate(120.000000, 516.000000)">
                    <path d="M60.5,40.45 L17.5,40.45 C17.2,40.45 17,40.25 17,39.95 C17,39.65 17.2,39.45 17.5,39.45 L60.5,39.45 L42.9,21.85 C42.7,21.65 42.7,21.35 42.9,21.15 C43.1,20.95 43.4,20.95 43.6,21.15 L62,39.55 C62.1133492,39.6633492 62.1624582,39.8088185 62.147327,39.95 C62.1624582,40.0911815 62.1133492,40.2366508 62,40.35 L43.6,58.65 C43.5,58.75 43.4,58.85 43.3,58.85 C43.2,58.85 43,58.85 42.9,58.75 C42.7,58.55 42.7,58.25 42.9,58.05 L60.5,40.45 Z" id="Combined-Shape" transform="translate(39.575000, 39.925000) rotate(-270.000000) translate(-39.575000, -39.925000) "></path>
                </g>
            </g>
        </g>
    </g>
</svg>