<?xml version="1.0" encoding="UTF-8" standalone="no"?>
<svg width="20px" height="38px" viewBox="0 0 20 38" version="1.1" xmlns="http://www.w3.org/2000/svg" xmlns:xlink="http://www.w3.org/1999/xlink">
    <!-- Generator: Sketch 40.2 (33826) - http://www.bohemiancoding.com/sketch -->
    <title>Combined Shape</title>
    <desc>Created with Sketch.</desc>
    <defs></defs>
    <g id="4-blog" stroke="none" stroke-width="1" fill="none" fill-rule="evenodd">
        <g id="4.2-t-case" transform="translate(-578.000000, -1904.000000)" fill="#C59C63">
            <g id="slider-copy" transform="translate(15.000000, 1811.000000)">
                <g id="Group-11-Copy" transform="translate(572.000000, 112.000000) scale(-1, 1) translate(-572.000000, -112.000000) translate(532.000000, 72.000000)">
                    <path d="M47.25,39.95 L29.15,21.85 C28.95,21.65 28.95,21.35 29.15,21.15 C29.35,20.95 29.65,20.95 29.85,21.15 L48.25,39.55 C48.3633492,39.6633492 48.4124582,39.8088185 48.397327,39.95 C48.4124582,40.0911815 48.3633492,40.2366508 48.25,40.35 L29.85,58.65 C29.75,58.75 29.65,58.85 29.55,58.85 C29.45,58.85 29.25,58.85 29.15,58.75 C28.95,58.55 28.95,58.25 29.15,58.05 L47.25,39.95 Z" id="Combined-Shape" transform="translate(38.700000, 39.925000) scale(-1, 1) translate(-38.700000, -39.925000) "></path>
                </g>
            </g>
        </g>
    </g>
</svg>