<?xml version="1.0" encoding="utf-8"?>
<!-- Generator: Adobe Illustrator 19.0.0, SVG Export Plug-In . SVG Version: 6.00 Build 0)  -->
<svg version="1.1" id="Layer_1" xmlns="http://www.w3.org/2000/svg" xmlns:xlink="http://www.w3.org/1999/xlink" x="0px" y="0px"
	 viewBox="-285.3 378.7 36.7 36.7" style="enable-background:new -285.3 378.7 36.7 36.7;" xml:space="preserve">
<style type="text/css">
	.st0{fill:#C59C63;}
</style>
<title>Group 16</title>
<desc>Created with Sketch.</desc>
<g id="_x31_-main">
	<g id="_x31_-m-main" transform="translate(-140.000000, -1753.000000)">
		<g id="II-Copy" transform="translate(15.000000, 547.000000)">
			<g id="Group-9" transform="translate(0.000000, 878.000000)">
				<g id="_x35_" transform="translate(30.000000, 327.000000)">
					<g id="Group-22">
						<g id="ic-1-copy-2" transform="translate(94.000000, 0.000000)">
							<g id="Group-16" transform="translate(1.000000, 1.000000)">
								<path id="Rectangle-89" class="st0" d="M-282,397L-282,397c0,8.3,6.7,15,15,15c8.3,0,15-6.7,15-15c0-8.3-6.7-15-15-15
									C-275.3,382-282,388.7-282,397L-282,397z M-285.3,397c0-10.1,8.2-18.3,18.3-18.3c10.1,0,18.3,8.2,18.3,18.3
									c0,10.1-8.2,18.3-18.3,18.3C-277.1,415.3-285.3,407.1-285.3,397L-285.3,397z"/>
								<circle id="Oval-14" class="st0" cx="-267" cy="397" r="3.3"/>
							</g>
						</g>
					</g>
				</g>
			</g>
		</g>
	</g>
</g>
</svg>
