<?xml version="1.0" encoding="utf-8"?>
<!-- Generator: Adobe Illustrator 19.0.0, SVG Export Plug-In . SVG Version: 6.00 Build 0)  -->
<svg version="1.1" id="Layer_1" xmlns="http://www.w3.org/2000/svg" xmlns:xlink="http://www.w3.org/1999/xlink" x="0px" y="0px"
	 viewBox="-285.3 378.7 36.7 36.7" style="enable-background:new -285.3 378.7 36.7 36.7;" xml:space="preserve">
<style type="text/css">
	.st0{fill:#C59C63;}
</style>
<title>Group 5</title>
<desc>Created with Sketch.</desc>
<g id="_x31_-main">
	<g id="_x31_-m-main" transform="translate(-138.000000, -726.000000)">
		<g id="II-Copy" transform="translate(15.000000, 547.000000)">
			<g id="leftServices">
				<g id="_x31_" transform="translate(16.000000, 178.000000)">
					<g id="Group-18">
						<g id="ic-1" transform="translate(104.000000, 0.000000)">
							<g id="Group-5" transform="translate(3.000000, 1.000000)">
								<path id="Rectangle-89" class="st0" d="M-285.3,382L-285.3,382l3.3-3.3v20l-3.3-3.3h20l-3.3,3.3v-20l3.3,3.3H-285.3z
									 M-285.3,378.7h20v20h-20V378.7L-285.3,378.7z"/>
								<path id="Rectangle-89-Copy-2" class="st0" d="M-285.3,398.7L-285.3,398.7l3.3-3.3v20l-3.3-3.3h20l-3.3,3.3v-20l3.3,3.3
									H-285.3z M-285.3,395.3h20v20h-20V395.3L-285.3,395.3z"/>
								<path id="Rectangle-89-Copy" class="st0" d="M-268.7,382L-268.7,382l3.3-3.3v20l-3.3-3.3h20l-3.3,3.3v-20l3.3,3.3H-268.7z
									 M-268.7,378.7h20v20h-20V378.7L-268.7,378.7z"/>
								<path id="Rectangle-89-Copy-3" class="st0" d="M-268.7,398.7L-268.7,398.7l3.3-3.3v20l-3.3-3.3h20l-3.3,3.3v-20l3.3,3.3
									H-268.7z M-268.7,395.3h20v20h-20V395.3L-268.7,395.3z"/>
							</g>
						</g>
					</g>
				</g>
			</g>
		</g>
	</g>
</g>
</svg>
