<?xml version="1.0" encoding="utf-8"?>
<!-- Generator: Adobe Illustrator 19.0.0, SVG Export Plug-In . SVG Version: 6.00 Build 0)  -->
<svg version="1.1" id="Layer_1" xmlns="http://www.w3.org/2000/svg" xmlns:xlink="http://www.w3.org/1999/xlink" x="0px" y="0px"
	 viewBox="-285.5 378.7 36.7 36.7" style="enable-background:new -285.5 378.7 36.7 36.7;" xml:space="preserve">
<style type="text/css">
	.st0{fill:#C59C63;}
</style>
<title>Group 10</title>
<desc>Created with Sketch.</desc>
<g id="_x31_-main">
	<g id="_x31_-m-main" transform="translate(-138.000000, -1214.000000)">
		<g id="II-Copy" transform="translate(15.000000, 547.000000)">
			<g id="leftServices">
				<g id="_x33_" transform="translate(16.000000, 666.000000)">
					<g id="Group-20">
						<g id="ic-1-copy" transform="translate(105.000000, 0.000000)">
							<g id="Group-10" transform="translate(2.000000, 1.000000)">
								<path id="Rectangle-89" class="st0" d="M-251.7,394.9L-251.7,394.9l0.8,0.6v2.9l-0.8,0.6l-22.2-16.3v-2.4l1.4-0.7l2,1.4
									v31.8l-2,1.4l-1.4-0.7v-2.4L-251.7,394.9z M-248.8,397l-25,18.3v-36.7L-248.8,397L-248.8,397z"/>
								<path id="Rectangle-89-Copy-4" class="st0" d="M-263.3,394.9L-263.3,394.9l0.8,0.6v2.9l-0.8,0.6l-22.2-16.3v-2.4l1.4-0.7
									l2,1.4v31.8l-2,1.4l-1.4-0.7v-2.4L-263.3,394.9z M-260.5,397l-25,18.3v-36.7L-260.5,397L-260.5,397z"/>
							</g>
						</g>
					</g>
				</g>
			</g>
		</g>
	</g>
</g>
</svg>
