<?xml version="1.0" encoding="UTF-8" standalone="no"?>
<svg width="39px" height="32px" viewBox="0 0 39 32" version="1.1" xmlns="http://www.w3.org/2000/svg" xmlns:xlink="http://www.w3.org/1999/xlink">
    <!-- Generator: Sketch 40.1 (33804) - http://www.bohemiancoding.com/sketch -->
    <title>“</title>
    <desc>Created with Sketch.</desc>
    <defs></defs>
    <g id="3-about" stroke="none" stroke-width="1" fill="none" fill-rule="evenodd">
        <g id="3-m-about" transform="translate(-151.000000, -709.000000)" fill="#C59C63">
            <g id="Group-4-Copy-2" transform="translate(15.000000, 661.000000)">
                <path d="M171.482759,48 C166.646552,52.6933333 158,61.2266667 158,70.6133333 C158,77.44 162.25,80 166.5,80 C171.482759,80 175,76.5866667 175,72.0355556 C175,67.2 171.336207,63.9288889 166.646552,63.9288889 C166.353448,63.6444444 166.206897,63.2177778 166.206897,62.6488889 C166.206897,59.8044444 169.577586,53.8311111 173.534483,50.1333333 L171.482759,48 Z M149.336207,48 C144.5,52.6933333 136,61.2266667 136,70.6133333 C136,77.44 140.25,80 144.5,80 C149.336207,80 153,76.5866667 153,72.0355556 C153,67.2 149.336207,63.9288889 144.646552,63.9288889 C144.353448,63.6444444 144.206897,63.2177778 144.206897,62.6488889 C144.206897,59.8044444 147.577586,53.8311111 151.534483,50.1333333 L149.336207,48 Z" id="“"></path>
            </g>
        </g>
    </g>
</svg>