<?xml version="1.0" encoding="UTF-8" standalone="no"?>
<svg width="46px" height="38px" viewBox="0 0 46 38" version="1.1" xmlns="http://www.w3.org/2000/svg" xmlns:xlink="http://www.w3.org/1999/xlink">
    <!-- Generator: Sketch 40.1 (33804) - http://www.bohemiancoding.com/sketch -->
    <title>Combined Shape</title>
    <desc>Created with Sketch.</desc>
    <defs></defs>
    <g id="2-services" stroke="none" stroke-width="1" fill="none" fill-rule="evenodd">
        <g id="2.1-m-servicePage" transform="translate(-240.000000, -4879.000000)" fill="#FFFFFF">
            <g id="relatedArticle-Copy-2" transform="translate(0.000000, 4324.000000)">
                <g id="Group-20" transform="translate(15.000000, 196.000000)">
                    <g id="arrow_left" transform="translate(225.000000, 359.000000)">
                        <g id="Group">
                            <path d="M43.5,19.5 L0.5,19.5 C0.2,19.5 0,19.3 0,19 C0,18.7 0.2,18.5 0.5,18.5 L43.5,18.5 L25.9,0.9 C25.7,0.7 25.7,0.4 25.9,0.2 C26.1,1.81937798e-13 26.4,1.81882287e-13 26.6,0.2 L45,18.6 C45.1133492,18.7133492 45.1624582,18.8588185 45.147327,19 C45.1624582,19.1411815 45.1133492,19.2866508 45,19.4 L26.6,37.7 C26.5,37.8 26.4,37.9 26.3,37.9 C26.2,37.9 26,37.9 25.9,37.8 C25.7,37.6 25.7,37.3 25.9,37.1 L43.5,19.5 Z" id="Combined-Shape"></path>
                        </g>
                    </g>
                </g>
            </g>
        </g>
    </g>
</svg>