<?xml version="1.0" encoding="utf-8"?>
<!-- Generator: Adobe Illustrator 19.0.0, SVG Export Plug-In . SVG Version: 6.00 Build 0)  -->
<svg version="1.1" id="Layer_1" xmlns="http://www.w3.org/2000/svg" xmlns:xlink="http://www.w3.org/1999/xlink" x="0px" y="0px"
	 viewBox="-287 377 40 40" style="enable-background:new -287 377 40 40;" xml:space="preserve">
<style type="text/css">
	.st0{fill:none;}
	.st1{fill:#C59C63;}
</style>
<title>ic-1 copy 2</title>
<desc>Created with Sketch.</desc>
<g id="_x32_-services">
	<g id="_x31_-m-main" transform="translate(-143.000000, -4415.000000)">
		<g id="_x31_-copy" transform="translate(0.000000, 4384.000000)">
			<g id="content" transform="translate(15.000000, 30.000000)">
				<g id="ic-1-copy-2" transform="translate(127.000000, 0.000000)">
					<rect id="Rectangle-88" x="-286" y="378" class="st0" width="40" height="40"/>
					<path id="Rectangle-89" class="st1" d="M-281,398L-281,398c0,8.3,6.7,15,15,15c8.3,0,15-6.7,15-15c0-8.3-6.7-15-15-15
						C-274.3,383-281,389.7-281,398L-281,398z M-284.3,398c0-10.1,8.2-18.3,18.3-18.3c10.1,0,18.3,8.2,18.3,18.3
						c0,10.1-8.2,18.3-18.3,18.3C-276.1,416.3-284.3,408.1-284.3,398L-284.3,398z"/>
					<circle id="Oval-14" class="st1" cx="-272" cy="398" r="3.3"/>
					<circle id="Oval-14-Copy" class="st1" cx="-260" cy="398" r="3.3"/>
				</g>
			</g>
		</g>
	</g>
</g>
</svg>
