<?xml version="1.0" encoding="UTF-8" standalone="no"?>
<svg width="50px" height="28px" viewBox="0 0 50 28" version="1.1" xmlns="http://www.w3.org/2000/svg" xmlns:xlink="http://www.w3.org/1999/xlink">
    <!-- Generator: Sketch 40.2 (33826) - http://www.bohemiancoding.com/sketch -->
    <title>Group 2</title>
    <desc>Created with Sketch.</desc>
    <defs></defs>
    <g id="Symbols" stroke="none" stroke-width="1" fill="none" fill-rule="evenodd">
        <g id="icon-letter" transform="translate(-45.000000, -56.000000)" fill="#fff">
            <g id="Group-2" transform="translate(45.000000, 56.000000)">
                <path d="M1.95829867,2.34057104 L24.4582987,16.840571 C24.9225332,17.1397444 25.5413976,17.0059359 25.840571,16.5417013 C26.1397444,16.0774668 26.0059359,15.4586024 25.5417013,15.159429 L3.04170133,0.659428965 C2.57746677,0.360255579 1.95860235,0.494064102 1.65942896,0.958298666 C1.36025558,1.42253323 1.4940641,2.04139765 1.95829867,2.34057104 L1.95829867,2.34057104 Z" id="Line"></path>
                <path d="M47.9748927,0.648963987 L24.4748927,15.148964 C24.0048785,15.4389728 23.8589552,16.0550931 24.148964,16.5251073 C24.4389728,16.9951215 25.0550931,17.1410448 25.5251073,16.851036 L49.0251073,2.35103601 C49.4951215,2.06102724 49.6410448,1.44490688 49.351036,0.974892673 C49.0610272,0.504878462 48.4449069,0.358955218 47.9748927,0.648963987 L47.9748927,0.648963987 Z" id="Line-Copy"></path>
                <path d="M3.05985741,27.328589 L21.5598574,14.828589 C22.0174745,14.5193883 22.1377897,13.8977596 21.828589,13.4401426 C21.5193883,12.9825255 20.8977596,12.8622103 20.4401426,13.171411 L1.94014259,25.671411 C1.48252554,25.9806117 1.36221032,26.6022404 1.67141103,27.0598574 C1.98061174,27.5174745 2.60224036,27.6377897 3.05985741,27.328589 L3.05985741,27.328589 Z" id="Line-Copy-3"></path>
                <path d="M49.0396661,25.6581209 L29.5396661,13.1581209 C29.0747091,12.8600715 28.4561702,12.9953769 28.1581209,13.4603339 C27.8600715,13.9252909 27.9953769,14.5438298 28.4603339,14.8418791 L47.9603339,27.3418791 C48.4252909,27.6399285 49.0438298,27.5046231 49.3418791,27.0396661 C49.6399285,26.5747091 49.5046231,25.9561702 49.0396661,25.6581209 L49.0396661,25.6581209 Z" id="Line-Copy-2"></path>
                <path d="M2,2.00329963 C2,1.99914372 1.99914691,2 2.00254822,2 L47.9974518,2 C47.9976506,2 48,2.00235453 48,2.00329963 L48,25.9967004 C48,26.0008563 48.0008531,26 47.9974518,26 L2.00254822,26 C2.00234939,26 2,25.9976455 2,25.9967004 L2,2.00329963 L2,2.00329963 Z M0,2.00329963 L0,25.9967004 C0,27.1012381 0.896800704,28 2.00254822,28 L47.9974518,28 C49.1070977,28 50,27.1037575 50,25.9967004 L50,2.00329963 C50,0.898761856 49.1031993,0 47.9974518,0 L2.00254822,0 C0.892902281,0 0,0.896242453 0,2.00329963 L0,2.00329963 Z" id="Rectangle-4"></path>
            </g>
        </g>
    </g>
</svg>