<?xml version="1.0" encoding="utf-8"?>
<!-- Generator: Adobe Illustrator 19.0.0, SVG Export Plug-In . SVG Version: 6.00 Build 0)  -->
<svg version="1.1" id="Layer_1" xmlns="http://www.w3.org/2000/svg" xmlns:xlink="http://www.w3.org/1999/xlink" x="0px" y="0px"
	 viewBox="-285.3 378.7 36.7 36.7" style="enable-background:new -285.3 378.7 36.7 36.7;" xml:space="preserve">
<style type="text/css">
	.st0{fill:#C59C63;}
</style>
<title>Group 17</title>
<desc>Created with Sketch.</desc>
<g id="_x31_-main">
	<g id="_x31_-m-main" transform="translate(-141.000000, -1997.000000)">
		<g id="II-Copy" transform="translate(15.000000, 547.000000)">
			<g id="Group-9" transform="translate(0.000000, 878.000000)">
				<g id="_x36_" transform="translate(30.000000, 571.000000)">
					<g id="Group-23">
						<g id="ic-1" transform="translate(95.000000, 0.000000)">
							<g id="Group-17" transform="translate(1.000000, 1.000000)">
								<path id="Rectangle-89" class="st0" d="M-285.3,382L-285.3,382l3.3-3.3v25l-3.3-3.3h25l-3.3,3.3v-25l3.3,3.3H-285.3z
									 M-285.3,378.7h25v25h-25V378.7L-285.3,378.7z"/>
								<polygon id="Rectangle-89-Copy-3" class="st0" points="-273.7,402 -273.7,402 -273.7,415.3 -248.7,415.3 -248.7,390.3 
									-261.6,390.3 -261.6,393.7 -248.7,393.7 -252,390.3 -252,415.3 -248.7,412 -273.7,412 -270.3,415.3 -270.3,402 								"/>
							</g>
						</g>
					</g>
				</g>
			</g>
		</g>
	</g>
</g>
</svg>
