<?xml version="1.0" encoding="UTF-8" standalone="no"?>
<!DOCTYPE svg  PUBLIC '-//W3C//DTD SVG 1.1//EN'  'http://www.w3.org/Graphics/SVG/1.1/DTD/svg11.dtd'>
<svg version="1.1" xmlns="http://www.w3.org/2000/svg">
<defs>
<font id="AngleciaProText-Regular" horiz-adv-x="292">
<font-face x-height="460" font-family="AngleciaProText" underline-position="-150" panose-1="2 5 0 3 6 0 0 0 0 0" ascent="800" font-weight="400" descent="-200" bbox="-142 -257 1200 992" cap-height="700" unicode-range="U+000D-FB04" underline-thickness="50" units-per-em="1000"/>
<missing-glyph horiz-adv-x="207"/>
<glyph unicode="ff" horiz-adv-x="706" glyph-name="ff" d="M410 465v123q0 52 23 92q-37 20 -94 20q-70 0 -108 -40.5t-38 -113.5v-86h191zM99 465v80q0 87 69 138t178 51q70 0 113 -24q44 44 124 44q63 0 103 -29.5t40 -73.5q0 -24 -12.5 -36t-29.5 -12q-18 0 -30.5 12.5t-12.5 30.5v58q-22 16 -55 16q-39 0 -61 -34.5t-22 -96.5 v-129h170v-36h-170v-375l92 -22v-27h-245v29l60 23v372h-217v-375l91 -22v-27h-245v29l60 23v372h-60v29z"/>
<glyph unicode="fi" horiz-adv-x="603" glyph-name="fi" d="M350 0v29l60 23v351l-48 21h-169v-375l91 -22v-27h-245v29l60 23v372h-60v29l60 12v123q0 75 61 120.5t158 45.5q85 0 136 -35t51 -87q0 -30 -17 -44.5t-39 -14.5q-23 0 -39.5 17t-16.5 40v70q-32 20 -79 20q-58 0 -89.5 -34.5t-31.5 -96.5v-129h164l133 7l13 -14v-407 l60 -19v-27h-213z"/>
<glyph unicode="fl" horiz-adv-x="603" glyph-name="fl" d="M347 0v29l63 23v639q-34 29 -86 29q-61 0 -96 -34.5t-35 -96.5v-129h149v-36h-149v-375l91 -22v-27h-245v29l60 23v372h-60v29l60 12v123q0 76 61 121t165 45q47 0 86 -9l79 12l13 -14v-697l60 -19v-27h-216z"/>
<glyph unicode="ffi" horiz-adv-x="913" glyph-name="ffi" d="M412 465v123q0 50 27 91q-38 21 -98 21q-71 0 -109.5 -40.5t-38.5 -113.5v-86h191zM661 0v29l60 23v351l-48 21h-170v-375l92 -22v-27h-245v29l60 23v372h-217v-375l91 -22v-27h-245v29l60 23v372h-60v29l60 12v80q0 87 68 138t178 51q74 0 126 -25q58 45 157 45 q86 0 137 -35t51 -87q0 -30 -17 -44.5t-39 -14.5q-23 0 -40 17t-17 40v70q-30 20 -79 20q-57 0 -89 -34.5t-32 -96.5v-129h164l133 7l14 -14v-407l60 -19v-27h-213z"/>
<glyph unicode="ffl" horiz-adv-x="913" glyph-name="ffl" d="M410 465v123q0 52 28 89q-38 23 -98 23q-71 0 -109 -40.5t-38 -113.5v-86h191zM657 0v29l64 23v639q-34 29 -87 29q-61 0 -96 -34.5t-35 -96.5v-129h150v-36h-150v-375l92 -22v-27h-245v29l60 23v372h-217v-375l91 -22v-27h-245v29l60 23v372h-60v29l60 12v80 q0 87 67.5 138t175.5 51q75 0 125 -29q60 49 169 49q48 0 85 -9l79 12l14 -14v-697l60 -19v-27h-217z"/>
<glyph unicode="ffj" horiz-adv-x="900" glyph-name="f_f_j" d="M412 465v123q0 50 27 91q-38 21 -97 21q-72 0 -110.5 -40.5t-38.5 -113.5v-86h191zM708 0v403l-48 21h-157v-375l92 -22v-27h-245v29l60 23v372h-217v-375l91 -22v-27h-245v29l60 23v372h-60v29l60 12v80q0 87 68.5 138t178.5 51q73 0 125 -25q55 45 150 45q82 0 132 -35 t50 -87q0 -30 -17 -44.5t-39 -14.5q-23 0 -40 17t-17 40v70q-28 20 -73 20q-55 0 -84.5 -34.5t-29.5 -96.5v-129h151l133 7l14 -14v-453q0 -78 -39 -146.5t-111 -110.5l-23 23q40 38 60 102.5t20 131.5z"/>
<glyph unicode="fj" horiz-adv-x="603" glyph-name="f_j" d="M410 0v403l-48 21h-169v-375l91 -22v-27h-245v29l60 23v372h-60v29l60 12v123q0 75 61 120.5t158 45.5q85 0 136 -35t51 -87q0 -30 -17 -44.5t-39 -14.5q-23 0 -39.5 17t-16.5 40v70q-32 20 -79 20q-58 0 -89.5 -34.5t-31.5 -96.5v-129h164l133 7l13 -14v-453 q0 -78 -39 -146.5t-110 -110.5l-23 23q39 38 59 102.5t20 131.5z"/>
<glyph horiz-adv-x="207" glyph-name=".notdef"/>
<glyph horiz-adv-x="0" glyph-name=".null"/>
<glyph horiz-adv-x="0" glyph-name=".null"/>
<glyph horiz-adv-x="333" glyph-name="nonmarkingreturn"/>
<glyph unicode="" horiz-adv-x="207" glyph-name="CR"/>
<glyph unicode=" " horiz-adv-x="207" glyph-name="space"/>
<glyph unicode="!" horiz-adv-x="207" glyph-name="exclam" d="M49 51q0 23 15.5 39t38.5 16q24 0 40 -16t16 -39q0 -24 -16 -39.5t-40 -15.5q-23 0 -38.5 15.5t-15.5 39.5zM123 190h-39q-6 115 -11.5 202.5t-10 130.5t-8 70t-5.5 38t-2 16q0 25 16.5 41t39.5 16q25 0 41.5 -16t16.5 -41q0 -3 -5 -31t-14.5 -136t-18.5 -290z"/>
<glyph unicode='&quot;' horiz-adv-x="293" glyph-name="quotedbl" d="M221 502h-28q-4 47 -10.5 83t-10.5 53t-4 26q0 17 11 28.5t28 11.5t28.5 -11.5t11.5 -28.5q0 -8 -4 -25.5t-11 -53.5t-11 -83zM100 502h-29q-4 47 -10.5 82.5t-10.5 53.5t-4 26q0 17 11 28.5t28 11.5t28.5 -11.5t11.5 -28.5q0 -8 -4 -26t-10.5 -53.5t-10.5 -82.5z"/>
<glyph unicode="#" horiz-adv-x="626" glyph-name="numbersign" d="M248 450l-59 -200h181l60 200h-182zM106 450v39h112l63 211h42l-63 -211h181l63 211h42l-63 -211h90v-39h-101l-60 -200h107v-39h-118l-63 -211h-42l63 211h-181l-63 -211h-42l63 211h-83v39h94l60 200h-101z"/>
<glyph unicode="$" horiz-adv-x="587" glyph-name="dollar" d="M148 533q0 -50 28 -74.5t95 -45.5l14 256q-64 -4 -100.5 -40t-36.5 -96zM443 176q0 52 -30.5 78t-107.5 51l-16 -275q70 4 112 40.5t42 105.5zM285 -50h-40l2 45q-83 6 -150 41h-33l-14 129h34q14 -64 59.5 -96.5t105.5 -37.5l16 286q-42 13 -62.5 20.5t-53.5 24.5 t-49 35.5t-28.5 49.5t-12.5 71q0 85 54 136.5t170 51.5h4l3 44h40l-3 -46q66 -7 127 -40h36l14 -129h-35q-26 122 -144 133l-15 -267q44 -14 69 -23t58.5 -27t50.5 -38t30 -52t13 -72q0 -91 -59.5 -142.5t-184.5 -52.5z"/>
<glyph unicode="%" horiz-adv-x="757" glyph-name="percent" d="M480 175q0 -68 22 -106.5t57 -38.5t56.5 38.5t21.5 106.5t-21.5 106.5t-56.5 38.5t-57 -38.5t-22 -106.5zM413 175q0 83 40.5 132t105.5 49t105.5 -49t40.5 -132t-40.5 -132t-105.5 -49t-105.5 49t-40.5 132zM197 0h-47l410 700h47zM120 525q0 -68 22 -106.5t57 -38.5 t56.5 38.5t21.5 106.5t-21.5 106.5t-56.5 38.5t-57 -38.5t-22 -106.5zM53 525q0 83 40 132t105 49q66 0 106 -49t40 -132t-40 -132t-106 -49q-65 0 -105 49t-40 132z"/>
<glyph unicode="&amp;" horiz-adv-x="714" glyph-name="ampersand" d="M253 584q0 -64 64 -147q58 29 86 59t28 77q0 46 -25.5 71t-67.5 25q-39 0 -62 -22.5t-23 -62.5zM316 34q100 0 153 66l-210 261q-52 -28 -81.5 -65.5t-29.5 -99.5q0 -78 43.5 -120t124.5 -42zM614 346q0 -130 -49 -214l72 -87l60 -18v-27h-146l-55 66q-73 -71 -196 -71 q-117 0 -182.5 55t-65.5 144q0 35 11 63.5t26 47.5t43 37.5t48 28t55 24.5q-72 94 -72 172q0 61 42 99.5t124 38.5q76 0 114.5 -35t38.5 -93q0 -59 -38 -95.5t-108 -70.5l198 -241q34 73 34 178l-62 20v19h170v-19z"/>
<glyph unicode="&apos;" horiz-adv-x="171" glyph-name="quotesingle" d="M100 502h-29q-4 47 -10.5 82.5t-10.5 53.5t-4 26q0 17 11 28.5t28 11.5t28.5 -11.5t11.5 -28.5q0 -8 -4 -26t-10.5 -53.5t-10.5 -82.5z"/>
<glyph unicode="(" horiz-adv-x="285" glyph-name="parenleft" d="M51 275q0 147 44 275t125 207l23 -23q-53 -74 -80 -200.5t-27 -258.5t27 -258.5t80 -200.5l-23 -23q-81 79 -125 207t-44 275z"/>
<glyph unicode=")" horiz-adv-x="286" glyph-name="parenright" d="M234 275q0 -147 -44 -275t-125 -207l-23 23q53 74 80 200.5t27 258.5t-27 258.5t-80 200.5l23 23q81 -79 125 -207t44 -275z"/>
<glyph unicode="*" horiz-adv-x="449" glyph-name="asterisk" d="M225 492q-22 -36 -37 -65t-21 -43t-11 -20q-9 -14 -26 -14q-9 0 -18 6q-13 9 -13 25q0 11 6 20q4 6 16 16.5t34.5 33t49.5 54.5q-41 10 -73.5 15t-48 7t-21.5 4q-23 8 -23 30q0 2 2 10q8 22 30 22q3 0 11 -2q7 -2 20.5 -10t42.5 -22.5t67 -30.5q-3 42 -8.5 74t-8.5 47.5 t-3 22.5q0 14 9 23t23 9t23 -9t9 -23q0 -7 -3.5 -22.5t-8.5 -47.5t-8 -74q39 16 68 31t42.5 23t20.5 10q3 1 9 1q23 0 31 -22q2 -6 2 -10q0 -21 -23 -29q-7 -3 -22.5 -4.5t-48 -6.5t-72.5 -15q28 -32 51 -55t34.5 -33.5t15.5 -16.5q7 -8 7 -19q0 -15 -13 -26q-9 -6 -19 -6 q-15 0 -26 14q-4 6 -10.5 20.5t-21 43t-36.5 64.5z"/>
<glyph unicode="+" horiz-adv-x="456" glyph-name="plus" d="M43 281v39h165v165h39v-165h166v-39h-166v-167h-39v167h-165z"/>
<glyph unicode="," horiz-adv-x="196" glyph-name="comma" d="M69 -109l-17 17q17 17 32 43.5t15 40.5q0 6 -2 8q-23 0 -38.5 14.5t-15.5 38.5q0 23 15.5 38t39.5 15q23 0 39 -15t16 -49q0 -70 -84 -151z"/>
<glyph unicode="-" horiz-adv-x="313" glyph-name="hyphen" d="M43 243v39h227v-39h-227z"/>
<glyph unicode="." horiz-adv-x="196" glyph-name="period" d="M43 51q0 23 15.5 39t38.5 16q24 0 40 -16t16 -39q0 -24 -16 -39.5t-40 -15.5q-23 0 -38.5 15.5t-15.5 39.5z"/>
<glyph unicode="/" horiz-adv-x="357" glyph-name="slash" d="M45 -100h-42l308 850h42z"/>
<glyph unicode="0" horiz-adv-x="647" glyph-name="zero" d="M155 349q0 -151 46.5 -235t122.5 -84q75 0 121.5 84t46.5 235q0 152 -46.5 236.5t-121.5 84.5q-76 0 -122.5 -84.5t-46.5 -236.5zM56 350q0 163 74 259.5t194 96.5q119 0 193 -96.5t74 -259.5t-74 -259.5t-193 -96.5q-120 0 -194 96.5t-74 259.5z"/>
<glyph unicode="1" horiz-adv-x="385" glyph-name="one" d="M65 0v29l84 23v586h-97v30l177 39l13 -14v-647l84 -19v-27h-261z"/>
<glyph unicode="2" horiz-adv-x="543" glyph-name="two" d="M42 0v43q71 62 112.5 100t92 92.5t77 96.5t45.5 94t19 104q0 139 -140 139q-71 0 -119 -47v-63q0 -17 -12.5 -30t-30.5 -13q-17 0 -29.5 12.5t-12.5 38.5q0 57 57.5 97t155.5 40q102 0 161 -47.5t59 -139.5q0 -35 -11 -71.5t-24 -64.5t-44 -65.5t-49.5 -58t-64.5 -61 t-64 -55t-71 -57.5q-11 -9 -16 -13h301l27 83h34l-5 -154h-448z"/>
<glyph unicode="3" horiz-adv-x="585" glyph-name="three" d="M159 630v-54q0 -18 -12.5 -30.5t-30.5 -12.5q-17 0 -29.5 12.5t-12.5 37.5q0 56 62 89t147 33q100 0 158.5 -47t58.5 -127q0 -62 -35 -103.5t-95 -57.5q75 -18 117 -65t42 -116q0 -89 -68.5 -141.5t-178.5 -52.5q-89 0 -151.5 32.5t-62.5 89.5q0 25 12.5 37.5t29.5 12.5 q18 0 30.5 -12.5t12.5 -30.5v-57q44 -35 120 -35q72 0 116 42t44 119q0 78 -50 118t-137 40h-50v36h47q162 0 162 138q0 69 -36 106t-98 37q-69 0 -112 -38z"/>
<glyph unicode="4" horiz-adv-x="591" glyph-name="four" d="M313 0v29l60 23v98h-320v27q89 143 136 263t47 260h93q0 -138 -60.5 -259t-166.5 -256h271v205l76 77l13 -14v-268h76v-35h-76v-104l60 -19v-27h-209z"/>
<glyph unicode="5" horiz-adv-x="537" glyph-name="five" d="M136 114v-54q41 -29 102 -29q73 0 113.5 46.5t40.5 131.5q0 92 -44.5 140t-124.5 48q-68 0 -113 -32l-24 24l28 311q199 0 317 13v-82h-275l-37 -228q55 31 131 31q109 0 173 -59t64 -161t-65 -160t-179 -58q-82 0 -137 30t-55 81q0 24 12.5 36.5t29.5 12.5 q18 0 30.5 -12.5t12.5 -29.5z"/>
<glyph unicode="6" horiz-adv-x="572" glyph-name="six" d="M145 314q0 -282 144 -282q62 0 100 47t38 129q0 87 -43 132t-109 45q-43 0 -78 -19.5t-52 -51.5zM147 373q57 55 152 55q101 0 162.5 -58t61.5 -156q0 -101 -64.5 -159.5t-165.5 -58.5q-118 0 -181 83t-63 226q0 101 31.5 178t87.5 123.5t125 71t153 29.5l22 -23 q-146 -18 -230 -99.5t-91 -211.5z"/>
<glyph unicode="7" horiz-adv-x="561" glyph-name="seven" d="M305 0h-93q0 82 25 169.5t54 146.5t81.5 157.5t79.5 154.5h-334l-30 -80h-35l12 152h448v-27q-22 -58 -66 -163t-70.5 -172t-49 -161t-22.5 -177z"/>
<glyph unicode="8" horiz-adv-x="595" glyph-name="eight" d="M315 400l32 -12q75 59 75 150q0 65 -33 98.5t-91 33.5q-61 0 -95.5 -34.5t-34.5 -95.5q0 -58 32.5 -85t114.5 -55zM283 325q-7 2 -19.5 6.5t-17.5 6.5q-99 -63 -99 -166q0 -73 39.5 -107.5t107.5 -34.5q72 0 114.5 36.5t42.5 105.5q0 61 -37 90.5t-131 62.5zM510 541 q0 -110 -123 -169q75 -32 113.5 -72.5t38.5 -113.5q0 -89 -60.5 -140.5t-187.5 -51.5q-120 0 -177.5 46.5t-57.5 127.5q0 73 40.5 115t109.5 72q-59 26 -91 64.5t-32 104.5q0 81 52.5 131.5t165.5 50.5q106 0 157.5 -45.5t51.5 -119.5z"/>
<glyph unicode="9" horiz-adv-x="572" glyph-name="nine" d="M425 386q0 148 -34.5 215.5t-104.5 67.5q-63 0 -102 -49.5t-39 -132.5q0 -85 42 -128t107 -43q45 0 79.5 19.5t51.5 50.5zM422 327q-57 -54 -152 -54q-100 0 -160.5 56.5t-60.5 153.5q0 103 66.5 162.5t169.5 59.5q116 0 176 -79.5t60 -226.5q0 -198 -106 -295.5 t-293 -109.5l-22 22q301 38 322 311z"/>
<glyph unicode=":" horiz-adv-x="196" glyph-name="colon" d="M43 409q0 23 15.5 39t38.5 16q24 0 40 -16t16 -39t-16 -39t-40 -16q-23 0 -38.5 16t-15.5 39zM43 51q0 23 15.5 39t38.5 16q24 0 40 -16t16 -39q0 -24 -16 -39.5t-40 -15.5q-23 0 -38.5 15.5t-15.5 39.5z"/>
<glyph unicode=";" horiz-adv-x="196" glyph-name="semicolon" d="M43 409q0 23 15.5 39t38.5 16q24 0 40 -16t16 -39t-16 -39t-40 -16q-23 0 -38.5 16t-15.5 39zM69 -109l-17 17q17 17 32 43.5t15 40.5q0 6 -2 8q-23 0 -38.5 14.5t-15.5 38.5q0 23 15.5 38t39.5 15q23 0 39 -15t16 -49q0 -70 -84 -151z"/>
<glyph unicode="&lt;" horiz-adv-x="456" glyph-name="less" d="M388 446l16 -36l-290 -135l290 -135l-16 -35l-335 156v29z"/>
<glyph unicode="=" horiz-adv-x="456" glyph-name="equal" d="M43 201v39h370v-39h-370zM43 360v39h370v-39h-370z"/>
<glyph unicode="&gt;" horiz-adv-x="456" glyph-name="greater" d="M53 410l15 36l336 -156v-29l-336 -156l-15 35l289 135z"/>
<glyph unicode="?" horiz-adv-x="479" glyph-name="question" d="M176 51q0 23 16 39t39 16t39 -16t16 -39q0 -24 -16 -39.5t-39 -15.5t-39 15.5t-16 39.5zM247 190h-39q-2 15 -2 41q0 48 14.5 87t35 65.5t40.5 51.5t34.5 56t14.5 66q0 54 -32 83t-87 29q-61 0 -97 -37v-59q0 -18 -12.5 -31t-30.5 -13q-17 0 -29.5 13t-12.5 39 q0 54 50.5 88.5t135.5 34.5q94 0 149 -43t55 -119q0 -42 -19.5 -77t-47 -61t-54.5 -53.5t-46.5 -68.5t-19.5 -92z"/>
<glyph unicode="@" horiz-adv-x="868" glyph-name="at" d="M529 72v263q-32 23 -83 23q-116 0 -116 -165q0 -160 106 -160q61 0 93 39zM740 -45l16 -16q-48 -48 -126.5 -77.5t-178.5 -29.5q-177 0 -279 95t-102 264q0 164 97.5 258.5t280.5 94.5q174 0 262 -86t88 -230q0 -110 -49 -171.5t-136 -61.5q-73 0 -82 46l-3 3 q-21 -23 -57 -36t-73 -13q-74 0 -114.5 53t-40.5 140q0 98 53 149.5t152 51.5q60 0 114 -19l38 20l12 -11v-315q0 -35 31 -35q43 0 66 53t23 136q0 293 -283 293q-148 0 -228.5 -82t-80.5 -237q0 -151 83.5 -239t251.5 -88q175 0 265 90z"/>
<glyph unicode="A" horiz-adv-x="767" glyph-name="A" d="M353 601l-144 -333h287zM406 700l284 -653l64 -20v-27h-224v27l61 20l-79 185h-318l-80 -185l83 -20v-27h-184v27l62 20l285 653h46z"/>
<glyph unicode="B" horiz-adv-x="662" glyph-name="B" d="M327 664h-126v-287h126q67 0 107.5 37t40.5 106t-40.5 106.5t-107.5 37.5zM201 36h126q80 0 128 39.5t48 112.5q0 74 -48 113.5t-128 39.5h-126v-305zM39 700h301q106 0 171.5 -47.5t65.5 -128.5q0 -61 -37 -103.5t-103 -60.5q79 -18 124 -63t45 -112q0 -85 -73.5 -135 t-192.5 -50h-301v24l65 17v618l-65 17v24z"/>
<glyph unicode="C" horiz-adv-x="718" glyph-name="C" d="M638 121l22 -22q-102 -105 -262 -105q-157 0 -249.5 95.5t-92.5 258.5q0 165 93.5 261.5t249.5 96.5q113 0 197 -51l34 20l14 -13l13 -137h-34q-48 143 -206 143q-124 0 -191 -81.5t-67 -234.5q0 -144 67.5 -228.5t197.5 -84.5q133 0 214 82z"/>
<glyph unicode="D" horiz-adv-x="736" glyph-name="D" d="M341 664h-140v-628h139q107 0 172 81.5t65 231.5q0 151 -64.5 233t-171.5 82zM39 700h302q152 0 245.5 -93.5t93.5 -256.5t-93.5 -256.5t-245.5 -93.5h-302v24l65 17v618l-65 17v24z"/>
<glyph unicode="E" horiz-adv-x="631" glyph-name="E" d="M201 36h305l37 93h34l-12 -129h-526v24l65 17v618l-65 17v24h516l12 -129h-34l-37 93h-295v-287h231l19 70h31v-176h-31l-19 70h-231v-305z"/>
<glyph unicode="F" horiz-adv-x="611" glyph-name="F" d="M421 339h-220v-287l95 -25v-27h-257v29l65 25v605l-65 17v24h506l12 -129h-34l-37 93h-285v-289h220l18 70h32v-176h-32z"/>
<glyph unicode="G" horiz-adv-x="762" glyph-name="G" d="M658 288v-251l-14 -14l-44 28q-86 -57 -203 -57q-156 0 -248.5 95.5t-92.5 258.5q0 165 93.5 261.5t249.5 96.5q113 0 197 -51l34 20l14 -13l13 -137h-34q-48 143 -206 143q-124 0 -191 -81.5t-67 -234.5q0 -143 65 -228t190 -85q87 0 147 44v206l-65 21v27h227v-27z"/>
<glyph unicode="H" horiz-adv-x="779" glyph-name="H" d="M39 29l65 25v598l-65 21v27h227v-27l-65 -22v-279h377v280l-65 21v27h226v-27l-65 -22v-604l65 -20v-27h-226v29l65 25v282h-377v-289l65 -20v-27h-227v29z"/>
<glyph unicode="I" horiz-adv-x="305" glyph-name="I" d="M200 651v-604l65 -20v-27h-225v29l65 25v598l-65 21v27h225v-27z"/>
<glyph unicode="J" horiz-adv-x="305" glyph-name="J" d="M105 0v652l-65 21v27h225v-27l-65 -22v-651q0 -78 -39.5 -146.5t-112.5 -110.5l-23 23q39 38 59.5 102.5t20.5 131.5z"/>
<glyph unicode="K" horiz-adv-x="689" glyph-name="K" d="M198 651v-325l317 326l-84 21v27h201v-27l-64 -21l-215 -224l250 -381l66 -20v-27h-148l-237 361l-86 -89v-225l65 -20v-27h-227v29l65 25v598l-65 21v27h227v-27z"/>
<glyph unicode="L" horiz-adv-x="604" glyph-name="L" d="M201 36h278l37 93h34l-12 -129h-499v24l65 17v611l-65 21v27h227v-27l-65 -22v-615z"/>
<glyph unicode="M" horiz-adv-x="938" glyph-name="M" d="M802 651l46 -604l65 -20v-27h-227v29l65 25l-39 519l-249 -573h-46l-250 573l-42 -534l65 -21v-18h-166v20l65 25l47 607l-64 21v27h139l258 -601l260 601h138v-27z"/>
<glyph unicode="N" horiz-adv-x="729" glyph-name="N" d="M39 20l65 25v607l-65 21v27h162l388 -557v518l-65 20v19h166v-19l-65 -22v-659h-46l-439 629v-590l65 -21v-18h-166v20z"/>
<glyph unicode="O" horiz-adv-x="783" glyph-name="O" d="M159 349q0 -151 64 -235t169 -84t168.5 84t63.5 235q0 152 -63.5 236.5t-168.5 84.5t-169 -84.5t-64 -236.5zM56 350q0 163 92.5 259.5t243.5 96.5q150 0 242.5 -96.5t92.5 -259.5t-92.5 -259.5t-242.5 -96.5q-151 0 -243.5 96.5t-92.5 259.5z"/>
<glyph unicode="P" horiz-adv-x="623" glyph-name="P" d="M302 664h-101v-612l95 -25v-27h-257v29l65 25v605l-65 17v24h277q112 0 181.5 -54.5t69.5 -147.5t-69.5 -147.5t-181.5 -54.5h-68l-14 14v22h68q73 0 117.5 43t44.5 123t-44.5 123t-117.5 43z"/>
<glyph unicode="Q" horiz-adv-x="783" glyph-name="Q" d="M159 349q0 -151 64 -235t169 -84t168.5 84t63.5 235q0 152 -63.5 236.5t-168.5 84.5t-169 -84.5t-64 -236.5zM765 -62l14 -14q-52 -52 -133 -52q-35 0 -67 6.5t-67.5 23t-55.5 27t-61.5 36t-54.5 33.5q-129 15 -206.5 109t-77.5 243q0 163 92.5 259.5t243.5 96.5 q150 0 242.5 -96.5t92.5 -259.5q0 -137 -67 -228t-181 -115q57 -34 80 -47.5t66 -29.5t77 -16q40 0 63 24z"/>
<glyph unicode="R" horiz-adv-x="665" glyph-name="R" d="M323 664h-122v-307h122q67 0 108 40t41 113q0 74 -41 114t-108 40zM575 510q0 -74 -48.5 -122.5t-131.5 -59.5q37 -19 81 -98l104 -183l65 -20v-27h-144l-182 321h-118v-274l65 -20v-27h-227v29l65 25v605l-65 17v24h298q106 0 172 -51.5t66 -138.5z"/>
<glyph unicode="S" horiz-adv-x="587" glyph-name="S" d="M64 25l-14 140h34q16 -71 68.5 -103t120.5 -32q76 0 123 36.5t47 109.5q0 57 -36.5 83t-135.5 57q-32 10 -46 14.5t-42 15t-41 19.5t-32 24.5t-28 33t-16 42t-7 53.5q0 85 54 136.5t170 51.5q95 0 168 -42l26 23l13 -14l14 -138h-35q-15 73 -61.5 104t-106.5 31 q-70 0 -111.5 -36.5t-41.5 -100.5q0 -55 33.5 -78.5t121.5 -51.5l51 -16.5t46 -17.5t44 -22t34.5 -26t29 -34t16.5 -43t7 -55q0 -91 -59.5 -143t-186.5 -52q-103 0 -181 42l-27 -25z"/>
<glyph unicode="T" horiz-adv-x="674" glyph-name="T" d="M564 664h-178v-617l65 -20v-27h-227v29l65 25v610h-179l-37 -97h-34l12 133h573l12 -129h-35z"/>
<glyph unicode="U" horiz-adv-x="754" glyph-name="U" d="M650 659v-402q0 -121 -75.5 -191.5t-198.5 -70.5q-122 0 -197 70.5t-75 191.5v395l-65 21v27h227v-27l-65 -22v-394q0 -101 57 -157t151 -56t151 56t57 157v404l-64 20v19h162v-19z"/>
<glyph unicode="V" horiz-adv-x="767" glyph-name="V" d="M361 0l-284 652l-64 21v27h228v-27l-65 -21l238 -553l239 553l-83 21v27h184v-27l-61 -21l-285 -652h-47z"/>
<glyph unicode="W" horiz-adv-x="1177" glyph-name="W" d="M783 0l-196 474l-191 -474h-46l-273 652l-64 21v27h228v-27l-65 -21l227 -553l165 420l-58 133l-64 21v27h228v-27l-65 -21l226 -553l228 553l-83 21v27h184v-27l-62 -21l-273 -652h-46z"/>
<glyph unicode="X" horiz-adv-x="743" glyph-name="X" d="M551 46l-207 275l-214 -275l77 -19v-27h-186v27l65 19l238 301l-229 307l-63 19v27h234v-27l-62 -19l192 -257l201 257l-78 19v27h186v-27l-65 -19l-225 -284l244 -324l63 -19v-27h-234v27z"/>
<glyph unicode="Y" horiz-adv-x="702" glyph-name="Y" d="M184 654l196 -319l202 319l-77 19v27h184v-27l-65 -19l-228 -359v-248l65 -20v-27h-227v29l65 25v240l-223 360l-63 19v27h233v-27z"/>
<glyph unicode="Z" horiz-adv-x="639" glyph-name="Z" d="M56 0v27l415 637h-339l-37 -97h-34l12 133h506v-27l-415 -637h357l37 103h35l-12 -139h-525z"/>
<glyph unicode="[" horiz-adv-x="305" glyph-name="bracketleft" d="M167 702v-855l95 -20v-27h-180v950h180v-27z"/>
<glyph unicode="\" horiz-adv-x="357" glyph-name="backslash" d="M353 -100h-42l-308 850h42z"/>
<glyph unicode="]" horiz-adv-x="305" glyph-name="bracketright" d="M138 -153v855l-95 21v27h179v-950h-179v27z"/>
<glyph unicode="^" horiz-adv-x="489" glyph-name="asciicircum" d="M239 704h11l196 -227l-20 -20l-182 168l-181 -168l-20 20z"/>
<glyph unicode="_" horiz-adv-x="627" glyph-name="underscore" d="M3 -89v39h621v-39h-621z"/>
<glyph unicode="`" horiz-adv-x="287" glyph-name="grave" d="M100 677l144 -138l-20 -20l-181 101z"/>
<glyph unicode="a" horiz-adv-x="528" glyph-name="a" d="M336 86v140q-123 -28 -153 -44q-42 -24 -43 -73q0 -72 74 -72q71 0 122 49zM337 49l-3 4q-29 -26 -75 -42t-93 -16q-115 0 -115 107q0 67 54.5 94t230.5 66v83q0 37 -26 60.5t-70 23.5q-49 0 -90 -28v-50q0 -17 -12.5 -29.5t-29.5 -12.5t-30 12t-13 34q0 48 53 78.5 t132 30.5q82 0 130.5 -34t48.5 -89v-281q0 -24 21 -24q18 0 29 11l11 -12q-38 -38 -98 -38q-51 0 -55 52z"/>
<glyph unicode="b" horiz-adv-x="587" glyph-name="b" d="M193 372v-314q38 -28 104 -28q69 0 107 51t38 148q0 92 -35 142t-98 50q-77 0 -116 -49zM99 36v658l-60 17v25l140 21l14 -14v-283l-3 -49l3 -3q26 27 69.5 41.5t87.5 14.5q90 0 139 -63t49 -167q0 -117 -64.5 -177.5t-186.5 -60.5q-111 0 -188 40z"/>
<glyph unicode="c" horiz-adv-x="530" glyph-name="c" d="M387 350v53q-36 26 -95 26q-70 0 -108.5 -50t-38.5 -140q0 -98 45 -149t125 -51q88 0 133 45l23 -23q-65 -65 -184 -65q-109 0 -173.5 62.5t-64.5 172.5q0 109 63 171t176 62q78 0 131 -28.5t53 -78.5q0 -24 -12.5 -36.5t-29.5 -12.5q-18 0 -30.5 12.5t-12.5 29.5z"/>
<glyph unicode="d" horiz-adv-x="587" glyph-name="d" d="M395 88v308q-42 33 -105 33q-67 0 -106 -51.5t-39 -147.5q0 -92 35 -141.5t98 -49.5q76 0 117 49zM488 61l53 -22v-31l-133 -15l-13 14l2 42l-3 4q-26 -27 -69.5 -42t-87.5 -15q-90 0 -139 62.5t-49 165.5q0 115 61.5 177.5t169.5 62.5q74 0 115 -28v258l-60 17v25 l140 21l13 -14v-682z"/>
<glyph unicode="e" horiz-adv-x="533" glyph-name="e" d="M283 429q-54 0 -93 -45t-44 -109l251 8q0 65 -31.5 105.5t-82.5 40.5zM461 242h-316q1 -108 43.5 -155.5t123.5 -47.5q90 0 135 45l23 -23q-63 -65 -183 -65q-110 0 -174 64t-64 171q0 108 64.5 170.5t164.5 62.5q90 0 145.5 -50t55.5 -124q0 -22 -4 -34z"/>
<glyph unicode="f" horiz-adv-x="395" glyph-name="f" d="M99 465v123q0 75 46.5 120.5t125.5 45.5q64 0 104 -29.5t40 -73.5q0 -24 -12.5 -36t-29.5 -12q-18 0 -30.5 12.5t-12.5 30.5v58q-21 16 -54 16q-39 0 -61 -34.5t-22 -96.5v-129h169v-36h-169v-375l91 -22v-27h-245v29l60 23v372h-60v29z"/>
<glyph unicode="g" horiz-adv-x="571" glyph-name="g" d="M158 307q0 -59 29 -90.5t78 -31.5t78.5 32t29.5 90t-30 91t-78 33t-77.5 -32.5t-29.5 -91.5zM197 -26q-12 0 -32 2q-43 -48 -43 -104q0 -49 34.5 -69.5t101.5 -20.5q88 0 138 29.5t50 84.5q0 34 -21.5 56t-67.5 22h-160zM458 414h-40q48 -43 48 -108q0 -71 -55.5 -112.5 t-145.5 -41.5q-68 0 -113 22q-21 -29 -21 -58q0 -52 75 -52h141q170 0 170 -140q0 -177 -276 -177q-207 0 -207 101q0 38 27.5 75t69.5 60q-64 21 -64 91q0 31 13.5 57t44.5 59q-60 41 -60 116q0 72 55 114.5t145 42.5q22 0 43 -3h209v-27z"/>
<glyph unicode="h" horiz-adv-x="618" glyph-name="h" d="M193 365v-319l56 -19v-27h-210v29l60 23v642l-60 17v25l140 21l14 -14v-283l-3 -55l3 -3q31 29 83.5 45.5t96.5 16.5q72 0 108.5 -45.5t36.5 -117.5v-255l60 -19v-27h-210v29l57 23v242q0 60 -24 93.5t-68 33.5q-32 0 -73 -14.5t-67 -41.5z"/>
<glyph unicode="i" glyph-name="i" d="M77 607q0 26 17.5 43.5t43.5 17.5q27 0 44.5 -17.5t17.5 -43.5q0 -27 -17.5 -44t-44.5 -17q-26 0 -43.5 17t-17.5 44zM39 0v29l60 23v346l-53 16v32l133 21l14 -14v-407l60 -19v-27h-214z"/>
<glyph unicode="j" glyph-name="j" d="M77 607q0 26 17.5 43.5t43.5 17.5q27 0 44.5 -17.5t17.5 -43.5q0 -27 -17.5 -44t-44.5 -17q-26 0 -43.5 17t-17.5 44zM99 0v398l-53 16v32l133 21l14 -14v-453q0 -78 -39 -146.5t-111 -110.5l-23 23q39 38 59 102.5t20 131.5z"/>
<glyph unicode="k" horiz-adv-x="556" glyph-name="k" d="M408 0l-147 238l-68 -65v-127l60 -19v-27h-214v29l60 23v642l-60 17v25l140 21l14 -14v-517l203 188l-79 19v27h190v-27l-58 -19l-123 -114l153 -255l61 -18v-27h-132z"/>
<glyph unicode="l" glyph-name="l" d="M39 0v29l60 23v642l-60 17v25l140 21l14 -14v-697l60 -19v-27h-214z"/>
<glyph unicode="m" horiz-adv-x="877" glyph-name="m" d="M193 365v-319l53 -19v-27h-207v29l60 23v346l-53 16v32l133 21l14 -14l-3 -48l3 -3q29 29 76 45.5t86 16.5q77 0 110 -67q32 31 85 49t96 18q65 0 98.5 -45.5t33.5 -117.5v-255l60 -19v-27h-207v29l53 23v242q0 60 -21.5 93.5t-60.5 33.5q-27 0 -63.5 -13t-63.5 -38 q10 -30 10 -69v-255l53 -19v-27h-199v29l53 23v242q0 60 -21.5 93.5t-59.5 33.5q-27 0 -61.5 -14.5t-56.5 -41.5z"/>
<glyph unicode="n" horiz-adv-x="618" glyph-name="n" d="M193 365v-319l56 -19v-27h-210v29l60 23v346l-53 16v32l133 21l14 -14l-3 -48l3 -3q32 29 84.5 45.5t96.5 16.5q70 0 107 -45.5t37 -117.5v-255l60 -19v-27h-210v29l57 23v242q0 60 -25.5 93.5t-69.5 33.5q-31 0 -71 -14.5t-66 -41.5z"/>
<glyph unicode="o" horiz-adv-x="565" glyph-name="o" d="M145 230q0 -94 37.5 -146t99.5 -52t100 52t38 146q0 95 -38 147t-100 52t-99.5 -52.5t-37.5 -146.5zM49 230q0 108 64 171t169 63t169.5 -63t64.5 -171t-64.5 -171t-169.5 -63t-169 63t-64 171z"/>
<glyph unicode="p" horiz-adv-x="587" glyph-name="p" d="M193 372v-310q40 -32 105 -32q67 0 105.5 51.5t38.5 148.5q0 92 -35 141.5t-98 49.5q-77 0 -116 -49zM39 -250v29l60 24v595l-53 16v32l133 21l14 -14l-3 -43l3 -3q26 27 69.5 42t87.5 15q90 0 139 -63t49 -166q0 -114 -61.5 -176.5t-168.5 -62.5q-72 0 -115 27v-224 l91 -22v-27h-245z"/>
<glyph unicode="q" horiz-adv-x="572" glyph-name="q" d="M395 87v313q-41 29 -105 29q-68 0 -106.5 -51t-38.5 -148q0 -92 35 -141.5t98 -49.5q76 0 117 48zM488 -197l60 -24v-29h-213v27l60 19v204l2 50l-3 3q-26 -27 -69.5 -42t-87.5 -15q-90 0 -139 63t-49 166q0 118 64.5 178.5t185.5 60.5q70 0 132 -22l44 25l13 -14v-650z "/>
<glyph unicode="r" horiz-adv-x="463" glyph-name="r" d="M99 52v346l-53 16v32l133 21l14 -15l-3 -83l3 -3q2 4 6 10.5t18 23.5t28.5 30t37.5 23.5t47 10.5q41 0 69 -27t28 -67q0 -26 -12.5 -38t-29.5 -12q-18 0 -30.5 12.5t-12.5 30.5v56q-12 10 -29 10q-31 0 -61 -29t-44 -58l-15 -29v-264l91 -22v-27h-245v29z"/>
<glyph unicode="s" horiz-adv-x="446" glyph-name="s" d="M53 18v106h34q26 -93 120 -93q49 0 79.5 21.5t30.5 63.5q0 34 -24 49t-88 31q-33 9 -45.5 12.5t-39 15.5t-37.5 24t-21 34t-10 51q0 60 40.5 95.5t125.5 35.5q70 0 126 -31l16 17l12 -12v-104h-35q-23 94 -107 94q-44 0 -70.5 -22t-26.5 -58q0 -32 22 -46t77 -29 q35 -10 49 -14.5t42.5 -17.5t40.5 -26t23 -36t11 -52q0 -131 -187 -131q-74 0 -129 27l-17 -17z"/>
<glyph unicode="t" horiz-adv-x="390" glyph-name="t" d="M39 424v20q90 33 140 126l14 -13v-97h141v-36h-141v-294q0 -45 21 -69t60 -24q41 0 64 23l19 -19q-45 -45 -120 -45q-64 0 -101 36t-37 98v294h-60z"/>
<glyph unicode="u" horiz-adv-x="616" glyph-name="u" d="M516 61l54 -22v-31l-133 -15l-14 14l2 51l-3 3q-32 -30 -84.5 -47.5t-98.5 -17.5q-69 0 -104.5 39t-35.5 101v262l-53 16v32l133 21l14 -14v-314q0 -47 24 -73.5t67 -26.5q34 0 74 15.5t65 44.5v299l-53 16v32l133 21l13 -14v-392z"/>
<glyph unicode="v" horiz-adv-x="576" glyph-name="v" d="M268 0l-192 414l-60 19v27h211v-27l-56 -19l146 -315l147 315l-78 19v27h174v-27l-57 -19l-192 -414h-43z"/>
<glyph unicode="w" horiz-adv-x="854" glyph-name="w" d="M558 0l-126 296l-131 -296h-42l-183 414l-60 19v27h208v-27l-57 -19l139 -320l107 245l-31 75l-59 19v27h207v-27l-56 -19l131 -320l135 320l-77 19v27h174v-27l-56 -19l-180 -414h-43z"/>
<glyph unicode="x" horiz-adv-x="569" glyph-name="x" d="M383 46l-125 153l-128 -153l73 -19v-27h-176v27l59 19l152 179l-154 189l-53 19v27h215v-27l-57 -19l119 -146l124 146l-73 19v27h176v-27l-59 -19l-148 -172l160 -196l54 -19v-27h-215v27z"/>
<glyph unicode="y" horiz-adv-x="579" glyph-name="y" d="M269 -3l-193 417l-60 19v27h211v-27l-56 -19l146 -315l147 315l-78 19v27h177v-27l-57 -19l-194 -414q-75 -160 -106.5 -207t-77.5 -47q-33 0 -56.5 17.5t-23.5 51.5q0 25 13.5 37.5t33.5 12.5t33 -11.5t13 -30.5v-29q5 -3 10 -3q18 0 42 42t76 164z"/>
<glyph unicode="z" horiz-adv-x="499" glyph-name="z" d="M56 0v27l282 397h-214l-25 -83h-34v119h374v-27l-282 -397h226l25 83h35v-119h-387z"/>
<glyph unicode="{" horiz-adv-x="365" glyph-name="braceleft" d="M124 277q48 -25 75.5 -85t27.5 -146q0 -101 26 -156t69 -55v-36q-83 0 -133.5 67t-50.5 182q0 101 -26 156t-69 55v35q42 0 68.5 55.5t26.5 155.5q0 115 50.5 182.5t133.5 67.5v-36q-43 0 -69 -55t-26 -156q0 -86 -27.5 -146t-75.5 -85z"/>
<glyph unicode="|" horiz-adv-x="237" glyph-name="bar" d="M138 -250h-39v1000h39v-1000z"/>
<glyph unicode="}" horiz-adv-x="365" glyph-name="braceright" d="M241 277q-48 25 -75.5 85t-27.5 146q0 101 -26 156t-69 55v36q82 0 133 -67.5t51 -182.5q0 -100 26.5 -155.5t68.5 -55.5v-35q-43 0 -69 -55t-26 -156q0 -115 -51 -182t-133 -67v36q43 0 69 55t26 156q0 86 27.5 146t75.5 85z"/>
<glyph unicode="~" horiz-adv-x="483" glyph-name="asciitilde" d="M64 243l-20 19q98 98 143 98q23 0 65 -27t67 -27q46 0 100 52l20 -20q-101 -99 -149 -99q-22 0 -63.5 27.5t-67.5 27.5q-42 0 -95 -51z"/>
<glyph unicode="¡" horiz-adv-x="207" glyph-name="exclamdown" d="M49 595q0 23 15.5 39t38.5 16q24 0 40 -16t16 -39t-16 -39t-40 -16q-23 0 -38.5 16t-15.5 39zM84 460h39q6 -127 12 -223.5t10.5 -144.5t8 -78t5.5 -42t2 -18q0 -24 -16.5 -40.5t-41.5 -16.5q-23 0 -39.5 16.5t-16.5 40.5q0 6 2 18t5.5 42t8 78t10 144.5t11.5 223.5z"/>
<glyph unicode="¢" horiz-adv-x="530" glyph-name="cent" d="M145 239q0 -83 32.5 -132.5t91.5 -62.5v383q-59 -8 -91.5 -57t-32.5 -131zM302 -50h-33v47q-102 5 -161 67t-59 167q0 104 57.5 165.5t162.5 66.5v47h33v-46q73 -3 121.5 -31t48.5 -76q0 -24 -12.5 -36.5t-29.5 -12.5q-18 0 -30.5 12.5t-12.5 29.5v53q-32 22 -85 26v-390 h13q88 0 133 45l23 -23q-60 -60 -169 -65v-46z"/>
<glyph unicode="£" horiz-adv-x="579" glyph-name="sterling" d="M39 332v22l60 14v126q0 97 58.5 153.5t162.5 56.5q75 0 125 -28.5t50 -78.5q0 -24 -12.5 -36.5t-29.5 -12.5q-18 0 -30.5 12.5t-12.5 29.5v53q-33 26 -85 26q-62 0 -97 -44t-35 -123v-134h209v-36h-209q0 -122 -42 -250q42 20 69 20q31 0 84 -26t86 -26q61 0 128 53 l20 -20q-123 -97 -187 -97q-29 0 -82.5 26t-87.5 26q-56 0 -121 -51l-20 20q46 35 59 43v282h-60z"/>
<glyph unicode="¤" horiz-adv-x="525" glyph-name="currency" d="M126 300q0 -63 37.5 -101.5t99.5 -38.5t100.5 39t38.5 101q0 64 -38.5 103.5t-100.5 39.5t-99.5 -39t-37.5 -104zM89 300q0 66 35 112l-65 66l25 26l65 -65q50 38 113 38q67 0 115 -37l64 64l26 -26l-65 -64q37 -46 37 -114t-38 -114l66 -65l-25 -25l-67 65 q-45 -36 -113 -36q-66 0 -111 37l-67 -66l-26 25l67 67q-36 45 -36 112z"/>
<glyph unicode="¥" horiz-adv-x="702" glyph-name="yen" d="M162 228v39h137v27l-223 360l-63 19v27h233v-27l-62 -19l196 -319l202 319l-77 19v27h184v-27l-65 -19l-228 -359v-28h136v-39h-136v-76h136v-39h-136v-66l65 -20v-27h-227v29l65 25v59h-137v39h137v76h-137z"/>
<glyph unicode="¦" horiz-adv-x="237" glyph-name="brokenbar" d="M138 -250h-39v450h39v-450zM138 750v-450h-39v450h39z"/>
<glyph unicode="§" horiz-adv-x="479" glyph-name="section" d="M328 187q29 47 29 79q0 35 -22.5 59.5t-50.5 35t-70.5 25t-64.5 26.5q-29 -50 -29 -82q0 -30 14 -51t38.5 -33t50 -20t56.5 -18t49 -21zM104 437q-55 40 -55 108q0 73 53.5 116t146.5 43q84 0 132 -34.5t48 -87.5q0 -27 -12.5 -40t-29.5 -13q-18 0 -30.5 13t-12.5 31v59 q-36 37 -90 37t-85 -28.5t-31 -77.5q0 -47 30 -78t72 -46.5t84.5 -30.5t72.5 -43.5t30 -72.5q0 -61 -52 -128q59 -39 59 -109q0 -73 -55.5 -116.5t-148.5 -43.5q-85 0 -135.5 34.5t-50.5 88.5q0 26 12.5 39t29.5 13q18 0 30.5 -13t12.5 -30v-60q35 -36 97 -36 q54 0 86.5 28.5t32.5 77.5q0 47 -30 76.5t-73.5 44t-86.5 28.5t-73 42t-30 73q0 65 52 136z"/>
<glyph unicode="¨" horiz-adv-x="319" glyph-name="dieresis" d="M215 587q0 24 15.5 39.5t38.5 15.5q24 0 39.5 -15.5t15.5 -39.5q0 -23 -15.5 -38.5t-39.5 -15.5q-23 0 -38.5 15.5t-15.5 38.5zM-5 587q0 24 16 39.5t39 15.5t38.5 -15.5t15.5 -39.5q0 -23 -15.5 -38.5t-38.5 -15.5t-39 15.5t-16 38.5z"/>
<glyph unicode="©" horiz-adv-x="796" glyph-name="copyright" d="M521 241l14 -15q-55 -53 -134 -53t-125.5 47.5t-46.5 128.5q0 83 47 131.5t126 48.5q53 0 95 -22l21 10l7 -8l8 -72h-23q-25 69 -98 69q-115 0 -115 -153q0 -69 30 -110t93 -41q62 0 101 39zM79 350q0 -132 93.5 -225.5t225.5 -93.5t225.5 93.5t93.5 225.5t-93.5 225.5 t-225.5 93.5t-225.5 -93.5t-93.5 -225.5zM43 350q0 147 104 251t251 104t251 -104t104 -251t-104 -251t-251 -104t-251 104t-104 251z"/>
<glyph unicode="ª" horiz-adv-x="278" glyph-name="ordfeminine" d="M166 515v65q-49 -11 -65.5 -20.5t-16.5 -33.5q0 -32 31 -32q30 0 51 21zM166 494l-1 2q-31 -28 -82 -28q-56 0 -56 52q0 35 26.5 48.5t112.5 33.5v39q0 18 -11.5 28.5t-30.5 10.5q-21 0 -38 -11v-25q0 -10 -8 -18t-18 -8t-18 7.5t-8 20.5q0 25 27 40.5t70 15.5 q44 0 70.5 -17.5t26.5 -45.5v-136q0 -11 9 -11q8 0 14 6l7 -7q-22 -22 -60 -22q-28 0 -32 25z"/>
<glyph unicode="«" horiz-adv-x="425" glyph-name="guillemotleft" d="M197 254v11l158 161l20 -20l-99 -146l99 -146l-20 -21zM39 254v11l158 161l21 -20l-100 -146l100 -146l-21 -21z"/>
<glyph unicode="¬" horiz-adv-x="506" glyph-name="logicalnot" d="M43 331v39h420v-140h-39v101h-381z"/>
<glyph unicode="­" horiz-adv-x="313" glyph-name="uni00AD" d="M43 281v39h227v-39h-227z"/>
<glyph unicode="®" horiz-adv-x="796" glyph-name="registered" d="M397 510h-51v-148h51q30 0 48 19t18 55q0 37 -18 55.5t-48 18.5zM531 436q0 -36 -23 -59.5t-63 -31.5q20 -10 41 -48l47 -87l33 -11v-17h-88l-86 158h-46v-130l32 -11v-17h-129v18l33 14v294l-33 9v15h155q57 0 92 -26t35 -70zM79 350q0 -132 93.5 -225.5t225.5 -93.5 t225.5 93.5t93.5 225.5t-93.5 225.5t-225.5 93.5t-225.5 -93.5t-93.5 -225.5zM43 350q0 147 104 251t251 104t251 -104t104 -251t-104 -251t-251 -104t-251 104t-104 251z"/>
<glyph unicode="¯" horiz-adv-x="313" glyph-name="macron" d="M32 561v42h248v-42h-248z"/>
<glyph unicode="°" horiz-adv-x="273" glyph-name="degree" d="M78 609q0 -28 16 -45t42 -17t42.5 17t16.5 45t-16.5 45.5t-42.5 17.5t-42 -17.5t-16 -45.5zM41 609q0 43 26 69.5t68 26.5q44 0 70.5 -26.5t26.5 -69.5q0 -42 -27 -68.5t-70 -26.5q-41 0 -67.5 26.5t-26.5 68.5z"/>
<glyph unicode="±" horiz-adv-x="456" glyph-name="plusminus" d="M43 52v39h370v-39h-370zM43 331v39h165v165h39v-165h166v-39h-166v-167h-39v167h-165z"/>
<glyph unicode="²" horiz-adv-x="281" glyph-name="twosuperior" d="M23 350v27q85 74 125 127t40 114q0 62 -59 62q-32 0 -53 -21v-32q0 -11 -7.5 -18t-18.5 -7q-26 0 -26 30t29 50t80 20q53 0 83 -23.5t30 -68.5q0 -25 -11.5 -51t-23 -43.5t-41.5 -45t-41.5 -37t-47.5 -38.5h137l15 42h23l-5 -87h-228z"/>
<glyph unicode="³" horiz-adv-x="303" glyph-name="threesuperior" d="M89 664v-29q0 -11 -7.5 -18.5t-18.5 -7.5q-10 0 -18 7.5t-8 21.5q0 30 31 47.5t76 17.5q53 0 84 -24t31 -64q0 -61 -65 -80q79 -21 79 -90q0 -45 -36 -71.5t-93 -26.5q-46 0 -78 17.5t-32 47.5q0 14 8 21.5t18 7.5q11 0 18.5 -7.5t7.5 -18.5v-30q20 -15 51 -15 q32 0 52.5 20t20.5 58q0 75 -86 75h-25v22h23q74 0 74 65q0 34 -16 52t-44 18t-47 -16z"/>
<glyph unicode="´" horiz-adv-x="287" glyph-name="acute" d="M43 539l144 138l57 -57l-181 -101z"/>
<glyph unicode="µ" horiz-adv-x="616" glyph-name="mu" d="M99 398l-53 16v32l133 21l14 -14v-314q0 -47 24 -73.5t67 -26.5q34 0 74 15.5t65 44.5v299l-53 16v32l133 21l13 -14v-392l54 -22v-31l-133 -15l-14 14l2 51l-3 3q-30 -30 -80 -47.5t-93 -17.5q-50 0 -79 24q7 -40 14.5 -69t11 -40t3.5 -16q0 -21 -14 -35.5t-36 -14.5 q-21 0 -35.5 14.5t-14.5 35.5v503z"/>
<glyph unicode="¶" horiz-adv-x="515" glyph-name="paragraph" d="M340 11v205q-127 0 -205 65t-78 177q0 111 78 176.5t205 65.5h136v-27l-60 -21v-641q0 -81 -39 -152.5t-111 -115.5l-22 23q48 40 72 107.5t24 137.5z"/>
<glyph unicode="·" horiz-adv-x="196" glyph-name="periodcentered" d="M43 280q0 23 15.5 39t38.5 16q24 0 40 -16t16 -39t-16 -39t-40 -16q-23 0 -38.5 16t-15.5 39z"/>
<glyph unicode="¸" horiz-adv-x="187" glyph-name="cedilla" d="M32 -95l51 95h31l-23 -44q78 0 78 -45q0 -35 -94 -129l-12 14q49 49 49 79t-80 30z"/>
<glyph unicode="¹" horiz-adv-x="208" glyph-name="onesuperior" d="M33 350v18l43 13v281h-48v19l102 23l8 -8v-319l42 -10v-17h-147z"/>
<glyph unicode="º" horiz-adv-x="290" glyph-name="ordmasculine" d="M89 585q0 -47 15 -71t41 -24t41.5 24.5t15.5 70.5t-15.5 70.5t-41.5 24.5t-41 -24t-15 -71zM26 585q0 54 32.5 85.5t86.5 31.5t86.5 -31.5t32.5 -85.5t-32.5 -85.5t-86.5 -31.5t-86.5 31.5t-32.5 85.5z"/>
<glyph unicode="»" horiz-adv-x="425" glyph-name="guillemotright" d="M228 265v-11l-158 -161l-21 21l100 146l-100 146l21 20zM385 265v-11l-158 -161l-20 21l99 146l-99 146l20 20z"/>
<glyph unicode="¼" horiz-adv-x="581" glyph-name="onequarter" d="M30 350v18l41 13v281h-46v19l101 23l7 -8v-319l42 -10v-17h-145zM157 0h-42l299 700h41zM429 0v18l30 13v44h-150v15q43 73 65 132.5t22 127.5h62q0 -68 -31 -127t-87 -126h119v85l51 52l8 -8v-129h35v-22h-35v-48l29 -10v-17h-118z"/>
<glyph unicode="½" horiz-adv-x="623" glyph-name="onehalf" d="M371 0v27q82 74 120.5 127t38.5 114q0 62 -57 62q-29 0 -50 -21v-32q0 -11 -7.5 -18t-18.5 -7q-25 0 -25 30t28.5 50t77.5 20q50 0 79.5 -23.5t29.5 -68.5q0 -25 -11.5 -51.5t-22 -43.5t-40 -45t-39.5 -36.5t-46 -38.5h132l15 42h22l-4 -87h-222zM157 0h-42l299 700h41z M30 350v18l41 13v281h-46v19l101 23l7 -8v-319l42 -10v-17h-145z"/>
<glyph unicode="¾" horiz-adv-x="640" glyph-name="threequarters" d="M214 0h-41l298 700h41zM486 0v18l29 13v44h-150v15q43 73 65 132.5t22 127.5h62q0 -68 -31 -127.5t-86 -125.5h118v85l52 52l7 -8v-129h36v-22h-36v-48l30 -10v-17h-118zM86 664v-29q0 -11 -8 -18.5t-19 -7.5q-9 0 -17 7.5t-8 21.5q0 30 30.5 47.5t74.5 17.5q51 0 81 -24 t30 -64q0 -61 -63 -80q77 -21 77 -90q0 -45 -35 -71.5t-91 -26.5q-46 0 -76.5 17.5t-30.5 47.5q0 14 8 21.5t18 7.5q11 0 18 -7.5t7 -18.5v-30q20 -15 49 -15q31 0 50.5 20t19.5 58q0 75 -82 75h-24v22h21q72 0 72 65q0 34 -16 52t-42 18q-28 0 -44 -16z"/>
<glyph unicode="¿" horiz-adv-x="479" glyph-name="questiondown" d="M303 594q0 -23 -16 -38.5t-39 -15.5t-39 15.5t-16 38.5q0 24 16 40t39 16t39 -16t16 -40zM231 460h39q2 -16 2 -45q0 -52 -14.5 -95.5t-34.5 -73t-40.5 -57t-35 -62t-14.5 -73.5q0 -58 32 -89.5t87 -31.5q62 0 97 36v60q0 17 12.5 30t30.5 13q17 0 29.5 -13t12.5 -39 q0 -54 -50.5 -88.5t-135.5 -34.5q-93 0 -148.5 48t-55.5 131q0 46 19.5 84.5t46.5 66.5t54.5 58t47 74.5t19.5 100.5z"/>
<glyph unicode="À" horiz-adv-x="767" glyph-name="Agrave" d="M319 917l145 -138l-20 -20l-181 101zM353 601l-144 -333h287zM406 700l284 -653l64 -20v-27h-224v27l61 20l-79 185h-318l-80 -185l83 -20v-27h-184v27l62 20l285 653h46z"/>
<glyph unicode="Á" horiz-adv-x="767" glyph-name="Aacute" d="M303 779l144 138l57 -57l-181 -101zM353 601l-144 -333h287zM406 700l284 -653l64 -20v-27h-224v27l61 20l-79 185h-318l-80 -185l83 -20v-27h-184v27l62 20l285 653h46z"/>
<glyph unicode="Â" horiz-adv-x="767" glyph-name="Acircumflex" d="M378 917h11l141 -138l-21 -20l-126 79l-126 -79l-20 20zM353 601l-144 -333h287zM406 700l284 -653l64 -20v-27h-224v27l61 20l-79 185h-318l-80 -185l83 -20v-27h-184v27l62 20l285 653h46z"/>
<glyph unicode="Ã" horiz-adv-x="767" glyph-name="Atilde" d="M238 777l-19 19q80 82 120 82q23 0 54.5 -23.5t56.5 -23.5q37 0 81 46l19 -19q-82 -84 -124 -84q-22 0 -53.5 23.5t-56.5 23.5q-36 0 -78 -44zM353 601l-144 -333h287zM406 700l284 -653l64 -20v-27h-224v27l61 20l-79 185h-318l-80 -185l83 -20v-27h-184v27l62 20 l285 653h46z"/>
<glyph unicode="Ä" horiz-adv-x="767" glyph-name="Adieresis" d="M437 827q0 24 16 39.5t39 15.5t38.5 -15.5t15.5 -39.5q0 -23 -15.5 -38.5t-38.5 -15.5t-39 15.5t-16 38.5zM218 827q0 24 15.5 39.5t38.5 15.5q24 0 39.5 -15.5t15.5 -39.5q0 -23 -15.5 -38.5t-39.5 -15.5q-23 0 -38.5 15.5t-15.5 38.5zM353 601l-144 -333h287zM406 700 l284 -653l64 -20v-27h-224v27l61 20l-79 185h-318l-80 -185l83 -20v-27h-184v27l62 20l285 653h46z"/>
<glyph unicode="Å" horiz-adv-x="767" glyph-name="Aring" d="M338 825q0 -25 12.5 -40.5t32.5 -15.5t32.5 15.5t12.5 40.5t-12.5 40.5t-32.5 15.5t-32.5 -15.5t-12.5 -40.5zM300 825q0 37 23 59t60 22q38 0 61 -22t23 -59q0 -38 -23 -59.5t-61 -21.5q-37 0 -60 21.5t-23 59.5zM353 601l-144 -333h287zM406 700l284 -653l64 -20v-27 h-224v27l61 20l-79 185h-318l-80 -185l83 -20v-27h-184v27l62 20l285 653h46z"/>
<glyph unicode="Æ" horiz-adv-x="842" glyph-name="AE" d="M353 601l-144 -333h202zM450 40l-34 192h-222l-80 -185l83 -20v-27h-184v27l62 20l285 653h405l12 -129h-34l-37 93h-274l50 -287h160l19 70h31v-176h-31l-19 70h-155l53 -305h176l37 93h34l-11 -129h-391v24z"/>
<glyph unicode="Ç" horiz-adv-x="718" glyph-name="Ccedilla" d="M334 -95l49 90q-151 5 -239 99.5t-88 253.5q0 165 93.5 261.5t249.5 96.5q113 0 197 -51l34 20l14 -13l13 -137h-34q-48 143 -206 143q-124 0 -191 -81.5t-67 -234.5q0 -144 67.5 -228.5t197.5 -84.5q133 0 214 82l22 -22q-96 -100 -247 -105l-20 -38q78 0 78 -45 q0 -36 -93 -129l-13 14q50 50 50 79q0 30 -81 30z"/>
<glyph unicode="È" horiz-adv-x="631" glyph-name="Egrave" d="M251 917l145 -138l-20 -20l-182 101zM201 36h305l37 93h34l-12 -129h-526v24l65 17v618l-65 17v24h516l12 -129h-34l-37 93h-295v-287h231l19 70h31v-176h-31l-19 70h-231v-305z"/>
<glyph unicode="É" horiz-adv-x="631" glyph-name="Eacute" d="M234 779l145 138l57 -57l-181 -101zM201 36h305l37 93h34l-12 -129h-526v24l65 17v618l-65 17v24h516l12 -129h-34l-37 93h-295v-287h231l19 70h31v-176h-31l-19 70h-231v-305z"/>
<glyph unicode="Ê" horiz-adv-x="631" glyph-name="Ecircumflex" d="M310 917h11l141 -138l-21 -20l-126 79l-126 -79l-20 20zM201 36h305l37 93h34l-12 -129h-526v24l65 17v618l-65 17v24h516l12 -129h-34l-37 93h-295v-287h231l19 70h31v-176h-31l-19 70h-231v-305z"/>
<glyph unicode="Ë" horiz-adv-x="631" glyph-name="Edieresis" d="M371 827q0 24 15.5 39.5t38.5 15.5t38.5 -15.5t15.5 -39.5q0 -23 -15.5 -38.5t-38.5 -15.5t-38.5 15.5t-15.5 38.5zM151 827q0 24 15.5 39.5t39.5 15.5q23 0 38.5 -15.5t15.5 -39.5q0 -23 -15.5 -38.5t-38.5 -15.5q-24 0 -39.5 15.5t-15.5 38.5zM201 36h305l37 93h34 l-12 -129h-526v24l65 17v618l-65 17v24h516l12 -129h-34l-37 93h-295v-287h231l19 70h31v-176h-31l-19 70h-231v-305z"/>
<glyph unicode="Ì" horiz-adv-x="305" glyph-name="Igrave" d="M96 917l144 -138l-20 -20l-181 101zM200 651v-604l65 -20v-27h-225v29l65 25v598l-65 21v27h225v-27z"/>
<glyph unicode="Í" horiz-adv-x="305" glyph-name="Iacute" d="M72 779l144 138l57 -57l-181 -101zM200 651v-604l65 -20v-27h-225v29l65 25v598l-65 21v27h225v-27z"/>
<glyph unicode="Î" horiz-adv-x="305" glyph-name="Icircumflex" d="M147 917h11l141 -138l-20 -20l-126 79l-126 -79l-20 20zM200 651v-604l65 -20v-27h-225v29l65 25v598l-65 21v27h225v-27z"/>
<glyph unicode="Ï" horiz-adv-x="305" glyph-name="Idieresis" d="M190 827q0 24 16 39.5t39 15.5t38.5 -15.5t15.5 -39.5q0 -23 -15.5 -38.5t-38.5 -15.5t-39 15.5t-16 38.5zM7 827q0 24 15.5 39.5t38.5 15.5q24 0 39.5 -15.5t15.5 -39.5q0 -23 -15.5 -38.5t-39.5 -15.5q-23 0 -38.5 15.5t-15.5 38.5zM200 651v-604l65 -20v-27h-225v29 l65 25v598l-65 21v27h225v-27z"/>
<glyph unicode="Ð" horiz-adv-x="736" glyph-name="Eth" d="M341 664h-140v-294h166v-35h-166v-299h139q107 0 172 81.5t65 231.5q0 151 -64.5 233t-171.5 82zM39 335v22l65 13v289l-65 17v24h302q152 0 245.5 -93.5t93.5 -256.5t-93.5 -256.5t-245.5 -93.5h-302v24l65 17v294h-65z"/>
<glyph unicode="Ñ" horiz-adv-x="729" glyph-name="Ntilde" d="M219 777l-19 19q80 82 120 82q23 0 54.5 -23.5t56.5 -23.5q37 0 81 46l20 -19q-84 -84 -125 -84q-22 0 -53 23.5t-57 23.5q-34 0 -78 -44zM39 20l65 25v607l-65 21v27h162l388 -557v518l-65 20v19h166v-19l-65 -22v-659h-46l-439 629v-590l65 -21v-18h-166v20z"/>
<glyph unicode="Ò" horiz-adv-x="783" glyph-name="Ograve" d="M328 917l144 -138l-20 -20l-181 101zM159 349q0 -151 64 -235t169 -84t168.5 84t63.5 235q0 152 -63.5 236.5t-168.5 84.5t-169 -84.5t-64 -236.5zM56 350q0 163 92.5 259.5t243.5 96.5q150 0 242.5 -96.5t92.5 -259.5t-92.5 -259.5t-242.5 -96.5q-151 0 -243.5 96.5 t-92.5 259.5z"/>
<glyph unicode="Ó" horiz-adv-x="783" glyph-name="Oacute" d="M311 779l144 138l57 -57l-181 -101zM159 349q0 -151 64 -235t169 -84t168.5 84t63.5 235q0 152 -63.5 236.5t-168.5 84.5t-169 -84.5t-64 -236.5zM56 350q0 163 92.5 259.5t243.5 96.5q150 0 242.5 -96.5t92.5 -259.5t-92.5 -259.5t-242.5 -96.5q-151 0 -243.5 96.5 t-92.5 259.5z"/>
<glyph unicode="Ô" horiz-adv-x="783" glyph-name="Ocircumflex" d="M386 917h11l141 -138l-20 -20l-127 79l-126 -79l-20 20zM159 349q0 -151 64 -235t169 -84t168.5 84t63.5 235q0 152 -63.5 236.5t-168.5 84.5t-169 -84.5t-64 -236.5zM56 350q0 163 92.5 259.5t243.5 96.5q150 0 242.5 -96.5t92.5 -259.5t-92.5 -259.5t-242.5 -96.5 q-151 0 -243.5 96.5t-92.5 259.5z"/>
<glyph unicode="Õ" horiz-adv-x="783" glyph-name="Otilde" d="M247 777l-20 19q82 82 121 82q23 0 54 -23.5t56 -23.5q36 0 82 46l19 -19q-82 -84 -125 -84q-22 0 -53 23.5t-56 23.5q-36 0 -78 -44zM159 349q0 -151 64 -235t169 -84t168.5 84t63.5 235q0 152 -63.5 236.5t-168.5 84.5t-169 -84.5t-64 -236.5zM56 350q0 163 92.5 259.5 t243.5 96.5q150 0 242.5 -96.5t92.5 -259.5t-92.5 -259.5t-242.5 -96.5q-151 0 -243.5 96.5t-92.5 259.5z"/>
<glyph unicode="Ö" horiz-adv-x="783" glyph-name="Odieresis" d="M447 827q0 24 15.5 39.5t38.5 15.5q24 0 39.5 -15.5t15.5 -39.5q0 -23 -15.5 -38.5t-39.5 -15.5q-23 0 -38.5 15.5t-15.5 38.5zM227 827q0 24 16 39.5t39 15.5t38.5 -15.5t15.5 -39.5q0 -23 -15.5 -38.5t-38.5 -15.5t-39 15.5t-16 38.5zM159 349q0 -151 64 -235t169 -84 t168.5 84t63.5 235q0 152 -63.5 236.5t-168.5 84.5t-169 -84.5t-64 -236.5zM56 350q0 163 92.5 259.5t243.5 96.5q150 0 242.5 -96.5t92.5 -259.5t-92.5 -259.5t-242.5 -96.5q-151 0 -243.5 96.5t-92.5 259.5z"/>
<glyph unicode="×" horiz-adv-x="456" glyph-name="multiply" d="M53 447l29 28l146 -147l147 147l28 -28l-147 -146l147 -148l-27 -28l-148 147l-147 -147l-28 28l147 148z"/>
<glyph unicode="Ø" horiz-adv-x="783" glyph-name="Oslash" d="M159 349q0 -115 37 -192l372 416q-63 97 -176 97q-105 0 -169 -84.5t-64 -236.5zM624 349q0 114 -38 193l-372 -416q62 -96 178 -96q105 0 168.5 84t63.5 235zM101 0h-45l86 97q-86 95 -86 253q0 163 92.5 259.5t243.5 96.5q136 0 224 -79l66 73h45l-87 -97 q87 -96 87 -253q0 -163 -92.5 -259.5t-242.5 -96.5q-136 0 -226 79z"/>
<glyph unicode="Ù" horiz-adv-x="754" glyph-name="Ugrave" d="M320 917l145 -138l-21 -20l-181 101zM650 659v-402q0 -121 -75.5 -191.5t-198.5 -70.5q-122 0 -197 70.5t-75 191.5v395l-65 21v27h227v-27l-65 -22v-394q0 -101 57 -157t151 -56t151 56t57 157v404l-64 20v19h162v-19z"/>
<glyph unicode="Ú" horiz-adv-x="754" glyph-name="Uacute" d="M303 779l145 138l57 -57l-182 -101zM650 659v-402q0 -121 -75.5 -191.5t-198.5 -70.5q-122 0 -197 70.5t-75 191.5v395l-65 21v27h227v-27l-65 -22v-394q0 -101 57 -157t151 -56t151 56t57 157v404l-64 20v19h162v-19z"/>
<glyph unicode="Û" horiz-adv-x="754" glyph-name="Ucircumflex" d="M378 917h12l140 -138l-20 -20l-126 79l-126 -79l-20 20zM650 659v-402q0 -121 -75.5 -191.5t-198.5 -70.5q-122 0 -197 70.5t-75 191.5v395l-65 21v27h227v-27l-65 -22v-394q0 -101 57 -157t151 -56t151 56t57 157v404l-64 20v19h162v-19z"/>
<glyph unicode="Ü" horiz-adv-x="754" glyph-name="Udieresis" d="M439 827q0 24 16 39.5t39 15.5t38.5 -15.5t15.5 -39.5q0 -23 -15.5 -38.5t-38.5 -15.5t-39 15.5t-16 38.5zM220 827q0 24 15.5 39.5t38.5 15.5q24 0 39.5 -15.5t15.5 -39.5q0 -23 -15.5 -38.5t-39.5 -15.5q-23 0 -38.5 15.5t-15.5 38.5zM650 659v-402 q0 -121 -75.5 -191.5t-198.5 -70.5q-122 0 -197 70.5t-75 191.5v395l-65 21v27h227v-27l-65 -22v-394q0 -101 57 -157t151 -56t151 56t57 157v404l-64 20v19h162v-19z"/>
<glyph unicode="Ý" horiz-adv-x="702" glyph-name="Yacute" d="M286 779l145 138l57 -57l-181 -101zM184 654l196 -319l202 319l-77 19v27h184v-27l-65 -19l-228 -359v-248l65 -20v-27h-227v29l65 25v240l-223 360l-63 19v27h233v-27z"/>
<glyph unicode="Þ" horiz-adv-x="623" glyph-name="Thorn" d="M201 651v-91h115q112 0 181.5 -54t69.5 -146t-69.5 -146t-181.5 -54h-68l-14 13v22h68q73 0 117.5 43t44.5 122t-44.5 121.5t-117.5 42.5h-101v-472l95 -25v-27h-257v29l65 25v598l-65 21v27h227v-27z"/>
<glyph unicode="ß" horiz-adv-x="663" glyph-name="germandbls" d="M302 18v106h34q22 -93 104 -93q42 0 68.5 21t26.5 62q0 34 -22 50.5t-77 35.5q-35 13 -53 21t-40.5 24.5t-32 40t-9.5 56.5q0 39 16 75t35.5 60t35.5 60.5t16 76.5q0 106 -103 106q-108 0 -108 -131v-543l60 -19v-27h-214v29l60 23v372h-60v29l60 12v123q0 78 51 122 t157 44q91 0 133.5 -33.5t42.5 -89.5q0 -35 -16.5 -70.5t-37 -60.5t-37 -60t-16.5 -70t18.5 -52t71.5 -35q32 -12 45 -17.5t38 -19.5t36 -28t20.5 -37t9.5 -52q0 -133 -167 -133q-72 0 -117 27l-17 -17z"/>
<glyph unicode="à" horiz-adv-x="528" glyph-name="agrave" d="M186 677l144 -138l-20 -20l-181 101zM336 86v140q-123 -28 -153 -44q-42 -24 -43 -73q0 -72 74 -72q71 0 122 49zM337 49l-3 4q-29 -26 -75 -42t-93 -16q-115 0 -115 107q0 67 54.5 94t230.5 66v83q0 37 -26 60.5t-70 23.5q-49 0 -90 -28v-50q0 -17 -12.5 -29.5 t-29.5 -12.5t-30 12t-13 34q0 48 53 78.5t132 30.5q82 0 130.5 -34t48.5 -89v-281q0 -24 21 -24q18 0 29 11l11 -12q-38 -38 -98 -38q-51 0 -55 52z"/>
<glyph unicode="á" horiz-adv-x="528" glyph-name="aacute" d="M168 539l145 138l57 -57l-181 -101zM336 86v140q-123 -28 -153 -44q-42 -24 -43 -73q0 -72 74 -72q71 0 122 49zM337 49l-3 4q-29 -26 -75 -42t-93 -16q-115 0 -115 107q0 67 54.5 94t230.5 66v83q0 37 -26 60.5t-70 23.5q-49 0 -90 -28v-50q0 -17 -12.5 -29.5 t-29.5 -12.5t-30 12t-13 34q0 48 53 78.5t132 30.5q82 0 130.5 -34t48.5 -89v-281q0 -24 21 -24q18 0 29 11l11 -12q-38 -38 -98 -38q-51 0 -55 52z"/>
<glyph unicode="â" horiz-adv-x="528" glyph-name="acircumflex" d="M244 677h11l141 -138l-21 -20l-126 79l-126 -79l-20 20zM336 86v140q-123 -28 -153 -44q-42 -24 -43 -73q0 -72 74 -72q71 0 122 49zM337 49l-3 4q-29 -26 -75 -42t-93 -16q-115 0 -115 107q0 67 54.5 94t230.5 66v83q0 37 -26 60.5t-70 23.5q-49 0 -90 -28v-50 q0 -17 -12.5 -29.5t-29.5 -12.5t-30 12t-13 34q0 48 53 78.5t132 30.5q82 0 130.5 -34t48.5 -89v-281q0 -24 21 -24q18 0 29 11l11 -12q-38 -38 -98 -38q-51 0 -55 52z"/>
<glyph unicode="ã" horiz-adv-x="528" glyph-name="atilde" d="M103 537l-19 19q80 82 120 82q23 0 54.5 -23.5t55.5 -23.5q38 0 82 46l19 -19q-82 -84 -125 -84q-21 0 -52.5 23.5t-56.5 23.5q-36 0 -78 -44zM336 86v140q-123 -28 -153 -44q-42 -24 -43 -73q0 -72 74 -72q71 0 122 49zM337 49l-3 4q-29 -26 -75 -42t-93 -16 q-115 0 -115 107q0 67 54.5 94t230.5 66v83q0 37 -26 60.5t-70 23.5q-49 0 -90 -28v-50q0 -17 -12.5 -29.5t-29.5 -12.5t-30 12t-13 34q0 48 53 78.5t132 30.5q82 0 130.5 -34t48.5 -89v-281q0 -24 21 -24q18 0 29 11l11 -12q-38 -38 -98 -38q-51 0 -55 52z"/>
<glyph unicode="ä" horiz-adv-x="528" glyph-name="adieresis" d="M304 587q0 24 16 39.5t39 15.5t38.5 -15.5t15.5 -39.5q0 -23 -15.5 -38.5t-38.5 -15.5t-39 15.5t-16 38.5zM85 587q0 24 15.5 39.5t39.5 15.5q23 0 38.5 -15.5t15.5 -39.5q0 -23 -15.5 -38.5t-38.5 -15.5q-24 0 -39.5 15.5t-15.5 38.5zM336 86v140q-122 -28 -152 -44 q-42 -24 -43 -73q0 -72 74 -72q70 0 121 49zM338 49l-3 4q-29 -26 -75 -42t-93 -16q-115 0 -115 107q0 18 3 32.5t12.5 27t18 21t30.5 18t37 15.5t50.5 15t59 14.5t73.5 16.5v83q0 37 -25.5 60.5t-69.5 23.5q-49 0 -90 -28v-50q0 -17 -12.5 -29.5t-30.5 -12.5 q-17 0 -29.5 12t-12.5 34q0 48 52.5 78.5t131.5 30.5q83 0 131.5 -34t48.5 -89v-281q0 -24 21 -24q18 0 29 11l11 -12q-38 -38 -98 -38q-51 0 -55 52z"/>
<glyph unicode="å" horiz-adv-x="528" glyph-name="aring" d="M204 585q0 -25 12.5 -40.5t32.5 -15.5t32.5 15.5t12.5 40.5t-12.5 40.5t-32.5 15.5t-32.5 -15.5t-12.5 -40.5zM166 585q0 37 23 59t60 22q38 0 61 -22t23 -59q0 -38 -23 -59.5t-61 -21.5q-37 0 -60 21.5t-23 59.5zM336 86v140q-123 -28 -153 -44q-42 -24 -43 -73 q0 -72 74 -72q71 0 122 49zM337 49l-3 4q-29 -26 -75 -42t-93 -16q-115 0 -115 107q0 67 54.5 94t230.5 66v83q0 37 -26 60.5t-70 23.5q-49 0 -90 -28v-50q0 -17 -12.5 -29.5t-29.5 -12.5t-30 12t-13 34q0 48 53 78.5t132 30.5q82 0 130.5 -34t48.5 -89v-281q0 -24 21 -24 q18 0 29 11l11 -12q-38 -38 -98 -38q-51 0 -55 52z"/>
<glyph unicode="æ" horiz-adv-x="761" glyph-name="ae" d="M422 341v-75l203 17q0 65 -31.5 105.5t-82.5 40.5q-56 0 -96 -50q7 -21 7 -38zM336 86v140q-123 -28 -153 -44q-42 -24 -43 -73q0 -72 74 -72q71 0 122 49zM334 53q-29 -26 -75 -42t-93 -16q-115 0 -115 107q0 67 54.5 94t229.5 66v83q0 37 -25.5 60.5t-69.5 23.5 q-49 0 -90 -28v-50q0 -17 -12.5 -29.5t-29.5 -12.5t-30 12t-13 34q0 48 53 78.5t132 30.5q78 0 125 -37q54 37 130 37q91 0 146 -49.5t55 -124.5q0 -20 -3 -34l-15 -14l-266 -10v-151q39 -42 117 -42q91 0 135 45l23 -23q-63 -65 -180 -65q-118 0 -183 57z"/>
<glyph unicode="ç" horiz-adv-x="530" glyph-name="ccedilla" d="M223 -95l49 91q-103 5 -163 67t-60 168q0 109 63 171t176 62q78 0 131 -28.5t53 -78.5q0 -24 -12.5 -36.5t-29.5 -12.5q-18 0 -30.5 12.5t-12.5 29.5v53q-36 26 -95 26q-70 0 -108.5 -50t-38.5 -140q0 -98 45 -149t125 -51q88 0 133 45l23 -23q-60 -60 -168 -65l-21 -40 q78 0 78 -45q0 -35 -94 -129l-12 14q49 49 49 79t-80 30z"/>
<glyph unicode="è" horiz-adv-x="533" glyph-name="egrave" d="M216 677l144 -138l-20 -20l-181 101zM283 429q-54 0 -93 -45t-44 -109l251 8q0 65 -31.5 105.5t-82.5 40.5zM461 242h-316q1 -108 43.5 -155.5t123.5 -47.5q90 0 135 45l23 -23q-63 -65 -183 -65q-110 0 -174 64t-64 171q0 108 64.5 170.5t164.5 62.5q90 0 145.5 -50 t55.5 -124q0 -22 -4 -34z"/>
<glyph unicode="é" horiz-adv-x="533" glyph-name="eacute" d="M198 539l144 138l57 -57l-181 -101zM283 429q-54 0 -93 -45t-44 -109l251 8q0 65 -31.5 105.5t-82.5 40.5zM461 242h-316q1 -108 43.5 -155.5t123.5 -47.5q90 0 135 45l23 -23q-63 -65 -183 -65q-110 0 -174 64t-64 171q0 108 64.5 170.5t164.5 62.5q90 0 145.5 -50 t55.5 -124q0 -22 -4 -34z"/>
<glyph unicode="ê" horiz-adv-x="533" glyph-name="ecircumflex" d="M273 677h12l140 -138l-20 -20l-126 79l-126 -79l-20 20zM283 429q-54 0 -93 -45t-44 -109l251 8q0 65 -31.5 105.5t-82.5 40.5zM461 242h-316q1 -108 43.5 -155.5t123.5 -47.5q90 0 135 45l23 -23q-63 -65 -183 -65q-110 0 -174 64t-64 171q0 108 64.5 170.5t164.5 62.5 q90 0 145.5 -50t55.5 -124q0 -22 -4 -34z"/>
<glyph unicode="ë" horiz-adv-x="533" glyph-name="edieresis" d="M325 587q0 24 16 39.5t39 15.5t38.5 -15.5t15.5 -39.5q0 -23 -15.5 -38.5t-38.5 -15.5t-39 15.5t-16 38.5zM106 587q0 24 15.5 39.5t39.5 15.5q23 0 38.5 -15.5t15.5 -39.5q0 -23 -15.5 -38.5t-38.5 -15.5q-24 0 -39.5 15.5t-15.5 38.5zM282 429q-54 0 -93 -45t-44 -109 l251 8q0 65 -31.5 105.5t-82.5 40.5zM460 242h-316q1 -108 43 -155.5t123 -47.5q91 0 135 45l23 -23q-63 -65 -182 -65q-110 0 -174 64t-64 171q0 108 64 170.5t164 62.5q91 0 146 -49.5t55 -124.5q0 -20 -3 -34z"/>
<glyph unicode="ì" glyph-name="igrave" d="M39 0v29l60 23v346l-53 16v32l133 21l14 -14v-407l60 -19v-27h-214zM82 677l144 -138l-20 -20l-181 101z"/>
<glyph unicode="í" glyph-name="iacute" d="M39 0v29l60 23v346l-53 16v32l133 21l14 -14v-407l60 -19v-27h-214zM65 539l145 138l56 -57l-181 -101z"/>
<glyph unicode="î" glyph-name="icircumflex" d="M140 677h12l140 -138l-20 -20l-126 79l-126 -79l-20 20zM39 0v29l60 23v346l-53 16v32l133 21l14 -14v-407l60 -19v-27h-214z"/>
<glyph unicode="ï" glyph-name="idieresis" d="M164 587q0 24 15.5 39.5t38.5 15.5q24 0 39.5 -15.5t15.5 -39.5q0 -23 -15.5 -38.5t-39.5 -15.5q-23 0 -38.5 15.5t-15.5 38.5zM7 587q0 24 16 39.5t39 15.5t38.5 -15.5t15.5 -39.5q0 -23 -15.5 -38.5t-38.5 -15.5t-39 15.5t-16 38.5zM39 0v29l60 23v346l-53 16v32 l133 21l14 -14v-407l60 -19v-27h-214z"/>
<glyph unicode="ð" horiz-adv-x="565" glyph-name="eth" d="M418 230q0 95 -36.5 147t-97.5 52t-97.5 -52t-36.5 -147t36.5 -146.5t97.5 -51.5t97.5 51.5t36.5 146.5zM240 567l77 77q-89 66 -225 92l20 20q149 -21 237 -80l80 80l28 -27l-76 -76q135 -113 135 -346q0 -311 -231 -311q-107 0 -169 62.5t-62 171.5q0 108 61 171 t165 63q113 0 161 -78h4q0 140 -99 232l-79 -79z"/>
<glyph unicode="ñ" horiz-adv-x="618" glyph-name="ntilde" d="M164 537l-20 19q82 82 121 82q23 0 54 -23.5t56 -23.5q36 0 82 46l19 -19q-82 -84 -125 -84q-21 0 -52.5 23.5t-56.5 23.5q-36 0 -78 -44zM193 365v-319l56 -19v-27h-210v29l60 23v346l-53 16v32l133 21l14 -14l-3 -48l3 -3q32 29 84.5 45.5t96.5 16.5q70 0 107 -45.5 t37 -117.5v-255l60 -19v-27h-210v29l57 23v242q0 60 -25.5 93.5t-69.5 33.5q-31 0 -71 -14.5t-66 -41.5z"/>
<glyph unicode="ò" horiz-adv-x="565" glyph-name="ograve" d="M218 677l145 -138l-20 -20l-182 101zM145 230q0 -94 37.5 -146t99.5 -52t100 52t38 146q0 95 -38 147t-100 52t-99.5 -52.5t-37.5 -146.5zM49 230q0 108 64 171t169 63t169.5 -63t64.5 -171t-64.5 -171t-169.5 -63t-169 63t-64 171z"/>
<glyph unicode="ó" horiz-adv-x="565" glyph-name="oacute" d="M201 539l145 138l57 -57l-181 -101zM145 230q0 -94 37.5 -146t99.5 -52t100 52t38 146q0 95 -38 147t-100 52t-99.5 -52.5t-37.5 -146.5zM49 230q0 108 64 171t169 63t169.5 -63t64.5 -171t-64.5 -171t-169.5 -63t-169 63t-64 171z"/>
<glyph unicode="ô" horiz-adv-x="565" glyph-name="ocircumflex" d="M277 677h11l141 -138l-21 -20l-126 79l-126 -79l-20 20zM145 230q0 -94 37.5 -146t99.5 -52t100 52t38 146q0 95 -38 147t-100 52t-99.5 -52.5t-37.5 -146.5zM49 230q0 108 64 171t169 63t169.5 -63t64.5 -171t-64.5 -171t-169.5 -63t-169 63t-64 171z"/>
<glyph unicode="õ" horiz-adv-x="565" glyph-name="otilde" d="M137 537l-19 19q80 82 121 82q23 0 54 -23.5t56 -23.5q37 0 81 46l20 -19q-84 -84 -125 -84q-22 0 -53 23.5t-57 23.5q-34 0 -78 -44zM145 230q0 -94 37.5 -146t99.5 -52t100 52t38 146q0 95 -38 147t-100 52t-99.5 -52.5t-37.5 -146.5zM49 230q0 108 64 171t169 63 t169.5 -63t64.5 -171t-64.5 -171t-169.5 -63t-169 63t-64 171z"/>
<glyph unicode="ö" horiz-adv-x="565" glyph-name="odieresis" d="M338 587q0 24 15.5 39.5t38.5 15.5t38.5 -15.5t15.5 -39.5q0 -23 -15.5 -38.5t-38.5 -15.5t-38.5 15.5t-15.5 38.5zM118 587q0 24 15.5 39.5t39.5 15.5q23 0 38.5 -15.5t15.5 -39.5q0 -23 -15.5 -38.5t-38.5 -15.5q-24 0 -39.5 15.5t-15.5 38.5zM145 230q0 -94 37.5 -146 t99.5 -52t100 52t38 146q0 95 -38 147t-100 52t-99.5 -52.5t-37.5 -146.5zM49 230q0 108 64 171t169 63t169.5 -63t64.5 -171t-64.5 -171t-169.5 -63t-169 63t-64 171z"/>
<glyph unicode="÷" horiz-adv-x="456" glyph-name="divide" d="M178 414q0 21 14.5 35.5t35.5 14.5q22 0 36.5 -14.5t14.5 -35.5q0 -22 -14.5 -36.5t-36.5 -14.5q-21 0 -35.5 14.5t-14.5 36.5zM178 140q0 22 14.5 36.5t35.5 14.5q22 0 36.5 -14.5t14.5 -36.5q0 -21 -14.5 -35.5t-36.5 -14.5q-21 0 -35.5 14.5t-14.5 35.5zM43 257v39 h370v-39h-370z"/>
<glyph unicode="ø" horiz-adv-x="565" glyph-name="oslash" d="M420 230q0 62 -17 107l-226 -245q37 -60 105 -60q62 0 100 52t38 146zM145 230q0 -62 17 -107l226 245q-38 61 -106 61q-62 0 -99.5 -52.5t-37.5 -146.5zM93 0h-44l59 64q-59 62 -59 166q0 108 64 171t169 63q89 0 150 -47l40 43h44l-60 -65q60 -63 60 -165 q0 -108 -64.5 -171t-169.5 -63q-90 0 -150 46z"/>
<glyph unicode="ù" horiz-adv-x="616" glyph-name="ugrave" d="M242 677l144 -138l-20 -20l-181 101zM516 61l54 -22v-31l-133 -15l-14 14l2 51l-3 3q-32 -30 -84.5 -47.5t-98.5 -17.5q-69 0 -104.5 39t-35.5 101v262l-53 16v32l133 21l14 -14v-314q0 -47 24 -73.5t67 -26.5q34 0 74 15.5t65 44.5v299l-53 16v32l133 21l13 -14v-392z "/>
<glyph unicode="ú" horiz-adv-x="616" glyph-name="uacute" d="M221 539l145 138l57 -57l-181 -101zM516 61l54 -22v-31l-133 -15l-14 14l2 51l-3 3q-32 -30 -84.5 -47.5t-98.5 -17.5q-69 0 -104.5 39t-35.5 101v262l-53 16v32l133 21l14 -14v-314q0 -47 24 -73.5t67 -26.5q34 0 74 15.5t65 44.5v299l-53 16v32l133 21l13 -14v-392z "/>
<glyph unicode="û" horiz-adv-x="616" glyph-name="ucircumflex" d="M300 677h11l141 -138l-20 -20l-127 79l-125 -79l-21 20zM516 61l54 -22v-31l-133 -15l-14 14l2 51l-3 3q-32 -30 -84.5 -47.5t-98.5 -17.5q-69 0 -104.5 39t-35.5 101v262l-53 16v32l133 21l14 -14v-314q0 -47 24 -73.5t67 -26.5q34 0 74 15.5t65 44.5v299l-53 16v32 l133 21l13 -14v-392z"/>
<glyph unicode="ü" horiz-adv-x="616" glyph-name="udieresis" d="M355 587q0 24 15.5 39.5t39.5 15.5q23 0 38.5 -15.5t15.5 -39.5q0 -23 -15.5 -38.5t-38.5 -15.5q-24 0 -39.5 15.5t-15.5 38.5zM136 587q0 24 15.5 39.5t38.5 15.5t38.5 -15.5t15.5 -39.5q0 -23 -15.5 -38.5t-38.5 -15.5t-38.5 15.5t-15.5 38.5zM516 61l54 -22v-31 l-133 -15l-14 14l2 51l-3 3q-32 -30 -84.5 -47.5t-98.5 -17.5q-69 0 -104.5 39t-35.5 101v262l-53 16v32l133 21l14 -14v-314q0 -47 24 -73.5t67 -26.5q34 0 74 15.5t65 44.5v299l-53 16v32l133 21l13 -14v-392z"/>
<glyph unicode="ý" horiz-adv-x="579" glyph-name="yacute" d="M220 539l145 138l57 -57l-181 -101zM269 -3l-193 417l-60 19v27h211v-27l-56 -19l146 -315l147 315l-78 19v27h177v-27l-57 -19l-194 -414q-75 -160 -106.5 -207t-77.5 -47q-33 0 -56.5 17.5t-23.5 51.5q0 25 13.5 37.5t33.5 12.5t33 -11.5t13 -30.5v-29q5 -3 10 -3 q18 0 42 42t76 164z"/>
<glyph unicode="þ" horiz-adv-x="587" glyph-name="thorn" d="M193 372v-310q40 -32 105 -32q67 0 105.5 51.5t38.5 148.5q0 92 -35 141.5t-98 49.5q-77 0 -116 -49zM39 -250v29l60 24v884l-53 17v32l133 20l14 -13v-283l-3 -50l3 -3q26 27 69.5 42t87.5 15q90 0 139 -63t49 -166q0 -114 -61.5 -176.5t-168.5 -62.5q-72 0 -115 27 v-224l91 -22v-27h-245z"/>
<glyph unicode="ÿ" horiz-adv-x="579" glyph-name="ydieresis" d="M346 587q0 24 15.5 39.5t38.5 15.5q24 0 39.5 -15.5t15.5 -39.5q0 -23 -15.5 -38.5t-39.5 -15.5q-23 0 -38.5 15.5t-15.5 38.5zM126 587q0 24 16 39.5t39 15.5t38.5 -15.5t15.5 -39.5q0 -23 -15.5 -38.5t-38.5 -15.5t-39 15.5t-16 38.5zM269 -3l-193 417l-60 19v27h211 v-27l-56 -19l146 -315l147 315l-78 19v27h177v-27l-57 -19l-194 -414q-75 -160 -106.5 -207t-77.5 -47q-33 0 -56.5 17.5t-23.5 51.5q0 25 13.5 37.5t33.5 12.5t33 -11.5t13 -30.5v-29q5 -3 10 -3q18 0 42 42t76 164z"/>
<glyph unicode="Ā" horiz-adv-x="767" glyph-name="Amacron" d="M259 801v42h248v-42h-248zM353 601l-144 -333h287zM406 700l284 -653l64 -20v-27h-224v27l61 20l-79 185h-318l-80 -185l83 -20v-27h-184v27l62 20l285 653h46z"/>
<glyph unicode="ā" horiz-adv-x="528" glyph-name="amacron" d="M124 561v42h248v-42h-248zM336 86v140q-123 -28 -153 -44q-42 -24 -43 -73q0 -72 74 -72q71 0 122 49zM337 49l-3 4q-29 -26 -75 -42t-93 -16q-115 0 -115 107q0 67 54.5 94t230.5 66v83q0 37 -26 60.5t-70 23.5q-49 0 -90 -28v-50q0 -17 -12.5 -29.5t-29.5 -12.5t-30 12 t-13 34q0 48 53 78.5t132 30.5q82 0 130.5 -34t48.5 -89v-281q0 -24 21 -24q18 0 29 11l11 -12q-38 -38 -98 -38q-51 0 -55 52z"/>
<glyph unicode="Ă" horiz-adv-x="767" glyph-name="Abreve" d="M447 868q0 17 13 30t31 13q16 0 28.5 -12t12.5 -34q0 -42 -45.5 -68t-104.5 -26t-105 26t-46 68q0 22 12.5 34t29.5 12q18 0 30.5 -13t12.5 -30q0 -63 66 -63q65 0 65 63zM353 601l-144 -333h287zM406 700l284 -653l64 -20v-27h-224v27l61 20l-79 185h-318l-80 -185 l83 -20v-27h-184v27l62 20l285 653h46z"/>
<glyph unicode="ă" horiz-adv-x="528" glyph-name="abreve" d="M317 628q0 17 12.5 30t30.5 13q17 0 29.5 -12t12.5 -34q0 -42 -45.5 -68t-104.5 -26q-60 0 -105.5 26t-45.5 68q0 22 12.5 34t29.5 12q18 0 30.5 -13t12.5 -30q0 -63 66 -63q65 0 65 63zM336 86v140q-122 -28 -152 -44q-42 -24 -43 -73q0 -72 74 -72q70 0 121 49zM338 49 l-3 4q-29 -26 -75 -42t-93 -16q-115 0 -115 107q0 18 3 32.5t12.5 27t18 21t30.5 18t37 15.5t50.5 15t59 14.5t73.5 16.5v83q0 37 -25.5 60.5t-69.5 23.5q-49 0 -90 -28v-50q0 -17 -12.5 -29.5t-30.5 -12.5q-17 0 -29.5 12t-12.5 34q0 48 52.5 78.5t131.5 30.5 q83 0 131.5 -34t48.5 -89v-281q0 -24 21 -24q18 0 29 11l11 -12q-38 -38 -98 -38q-51 0 -55 52z"/>
<glyph unicode="Ą" horiz-adv-x="767" glyph-name="Aogonek" d="M353 601l-144 -333h287zM741 -161l12 -11q-46 -46 -94 -46q-61 0 -61 63q0 72 72 155h-140v27l61 20l-79 185h-318l-80 -185l83 -20v-27h-184v27l62 20l285 653h46l284 -653l64 -20v-27h-54q-25 -35 -39.5 -74.5t-14.5 -67.5q0 -41 37 -41q36 0 58 22z"/>
<glyph unicode="ą" horiz-adv-x="528" glyph-name="aogonek" d="M336 86v140q-123 -28 -153 -44q-42 -24 -43 -73q0 -72 74 -72q71 0 122 49zM479 -149l11 -12q-45 -45 -93 -45q-62 0 -62 62q0 67 60 141h-3q-51 0 -55 52l-3 4q-29 -26 -75 -42t-93 -16q-115 0 -115 107q0 67 54.5 94t230.5 66v83q0 37 -26 60.5t-70 23.5q-49 0 -90 -28 v-50q0 -17 -12.5 -29.5t-29.5 -12.5t-30 12t-13 34q0 48 53 78.5t132 30.5q82 0 130.5 -34t48.5 -89v-281q0 -24 21 -24q18 0 29 11l11 -12q-24 -24 -60 -34q-46 -71 -46 -131q0 -42 36 -42t59 23z"/>
<glyph unicode="Ć" horiz-adv-x="718" glyph-name="Cacute" d="M320 779l145 138l57 -57l-181 -101zM638 121l22 -22q-102 -105 -262 -105q-157 0 -249.5 95.5t-92.5 258.5q0 165 93.5 261.5t249.5 96.5q113 0 197 -51l34 20l14 -13l13 -137h-34q-48 143 -206 143q-124 0 -191 -81.5t-67 -234.5q0 -144 67.5 -228.5t197.5 -84.5 q133 0 214 82z"/>
<glyph unicode="ć" horiz-adv-x="530" glyph-name="cacute" d="M208 539l144 138l57 -57l-181 -101zM387 350v53q-36 26 -95 26q-70 0 -108.5 -50t-38.5 -140q0 -98 45 -149t125 -51q88 0 133 45l23 -23q-65 -65 -184 -65q-109 0 -173.5 62.5t-64.5 172.5q0 109 63 171t176 62q78 0 131 -28.5t53 -78.5q0 -24 -12.5 -36.5t-29.5 -12.5 q-18 0 -30.5 12.5t-12.5 29.5z"/>
<glyph unicode="Ĉ" horiz-adv-x="718" glyph-name="Ccircumflex" d="M392 917h11l141 -138l-21 -20l-126 79l-126 -79l-20 20zM638 121l22 -22q-102 -105 -262 -105q-157 0 -249.5 95.5t-92.5 258.5q0 165 93.5 261.5t249.5 96.5q113 0 197 -51l34 20l14 -13l13 -137h-34q-48 143 -206 143q-124 0 -191 -81.5t-67 -234.5q0 -144 67.5 -228.5 t197.5 -84.5q133 0 214 82z"/>
<glyph unicode="ĉ" horiz-adv-x="530" glyph-name="ccircumflex" d="M282 677h11l141 -138l-21 -20l-126 79l-126 -79l-20 20zM387 350v53q-36 26 -95 26q-70 0 -108.5 -50t-38.5 -140q0 -98 45 -149t125 -51q88 0 133 45l23 -23q-65 -65 -184 -65q-109 0 -173.5 62.5t-64.5 172.5q0 109 63 171t176 62q78 0 131 -28.5t53 -78.5 q0 -24 -12.5 -36.5t-29.5 -12.5q-18 0 -30.5 12.5t-12.5 29.5z"/>
<glyph unicode="Ċ" horiz-adv-x="718" glyph-name="Cdotaccent" d="M336 847q0 25 16.5 41.5t41.5 16.5q26 0 42 -16.5t16 -41.5t-16.5 -41.5t-41.5 -16.5t-41.5 16.5t-16.5 41.5zM638 121l22 -22q-102 -105 -262 -105q-157 0 -249.5 95.5t-92.5 258.5q0 165 93.5 261.5t249.5 96.5q113 0 197 -51l34 20l14 -13l13 -137h-34 q-48 143 -206 143q-124 0 -191 -81.5t-67 -234.5q0 -144 67.5 -228.5t197.5 -84.5q133 0 214 82z"/>
<glyph unicode="ċ" horiz-adv-x="530" glyph-name="cdotaccent" d="M227 607q0 25 16.5 41.5t41.5 16.5t41.5 -16.5t16.5 -41.5t-16.5 -41.5t-41.5 -16.5t-41.5 16.5t-16.5 41.5zM387 350v53q-36 26 -95 26q-70 0 -108.5 -50t-38.5 -140q0 -98 45 -149t125 -51q88 0 133 45l23 -23q-65 -65 -184 -65q-109 0 -173.5 62.5t-64.5 172.5 q0 109 63 171t176 62q78 0 131 -28.5t53 -78.5q0 -24 -12.5 -36.5t-29.5 -12.5q-18 0 -30.5 12.5t-12.5 29.5z"/>
<glyph unicode="Č" horiz-adv-x="718" glyph-name="Ccaron" d="M403 759h-12l-140 138l20 20l126 -79l126 79l20 -20zM638 121l22 -22q-102 -105 -262 -105q-157 0 -249.5 95.5t-92.5 258.5q0 165 93.5 261.5t249.5 96.5q113 0 197 -51l34 20l14 -13l13 -137h-34q-48 143 -206 143q-124 0 -191 -81.5t-67 -234.5q0 -144 67.5 -228.5 t197.5 -84.5q133 0 214 82z"/>
<glyph unicode="č" horiz-adv-x="530" glyph-name="ccaron" d="M292 519h-11l-141 138l21 20l126 -79l126 79l20 -20zM387 350v53q-36 26 -95 26q-70 0 -108.5 -50t-38.5 -140q0 -98 45 -149t125 -51q88 0 133 45l23 -23q-65 -65 -184 -65q-109 0 -173.5 62.5t-64.5 172.5q0 109 63 171t176 62q78 0 131 -28.5t53 -78.5 q0 -24 -12.5 -36.5t-29.5 -12.5q-18 0 -30.5 12.5t-12.5 29.5z"/>
<glyph unicode="Ď" horiz-adv-x="736" glyph-name="Dcaron" d="M363 759h-11l-141 138l20 20l126 -79l126 79l21 -20zM341 664h-140v-628h139q107 0 172 81.5t65 231.5q0 151 -64.5 233t-171.5 82zM39 700h302q152 0 245.5 -93.5t93.5 -256.5t-93.5 -256.5t-245.5 -93.5h-302v24l65 17v618l-65 17v24z"/>
<glyph unicode="ď" horiz-adv-x="684" glyph-name="dcaron" d="M591 569l-13 14q15 16 27.5 39t12.5 35q0 6 -2 8q-19 0 -32.5 12.5t-13.5 31.5t13 32t33 13q19 0 33 -12.5t14 -41.5q0 -59 -72 -131zM395 88v308q-42 33 -105 33q-67 0 -106 -51.5t-39 -147.5q0 -92 35 -141.5t98 -49.5q76 0 117 49zM488 61l53 -22v-31l-133 -15l-13 14 l2 42l-3 4q-26 -27 -69.5 -42t-87.5 -15q-90 0 -139 62.5t-49 165.5q0 115 61.5 177.5t169.5 62.5q74 0 115 -28v258l-60 17v25l140 21l13 -14v-682z"/>
<glyph unicode="Đ" horiz-adv-x="736" glyph-name="Dcroat" d="M341 664h-140v-294h166v-35h-166v-299h139q107 0 172 81.5t65 231.5q0 151 -64.5 233t-171.5 82zM39 335v22l65 13v289l-65 17v24h302q152 0 245.5 -93.5t93.5 -256.5t-93.5 -256.5t-245.5 -93.5h-302v24l65 17v294h-65z"/>
<glyph unicode="đ" horiz-adv-x="587" glyph-name="dcroat" d="M395 88v308q-42 33 -105 33q-67 0 -106 -51.5t-39 -147.5q0 -92 35 -141.5t98 -49.5q76 0 117 49zM217 577v36h178v81l-60 17v25l140 21l13 -14v-130l53 -14v-22h-53v-516l53 -22v-31l-133 -15l-13 14l2 42l-3 4q-26 -27 -69.5 -42t-87.5 -15q-90 0 -139 62.5t-49 165.5 q0 115 61.5 177.5t169.5 62.5q74 0 115 -28v141h-178z"/>
<glyph unicode="Ē" horiz-adv-x="631" glyph-name="Emacron" d="M191 801v42h248v-42h-248zM201 36h305l37 93h34l-12 -129h-526v24l65 17v618l-65 17v24h516l12 -129h-34l-37 93h-295v-287h231l19 70h31v-176h-31l-19 70h-231v-305z"/>
<glyph unicode="ē" horiz-adv-x="533" glyph-name="emacron" d="M153 561v42h248v-42h-248zM283 429q-54 0 -93 -45t-44 -109l251 8q0 65 -31.5 105.5t-82.5 40.5zM461 242h-316q1 -108 43.5 -155.5t123.5 -47.5q90 0 135 45l23 -23q-63 -65 -183 -65q-110 0 -174 64t-64 171q0 108 64.5 170.5t164.5 62.5q90 0 145.5 -50t55.5 -124 q0 -22 -4 -34z"/>
<glyph unicode="Ĕ" horiz-adv-x="631" glyph-name="Ebreve" d="M381 868q0 17 12.5 30t30.5 13q17 0 29.5 -12t12.5 -34q0 -42 -46 -68t-105 -26t-105 26t-46 68q0 22 13 34t30 12t29.5 -13t12.5 -30q0 -63 66 -63t66 63zM201 36h305l37 93h34l-12 -129h-526v24l65 17v618l-65 17v24h516l12 -129h-34l-37 93h-295v-287h231l19 70h31 v-176h-31l-19 70h-231v-305z"/>
<glyph unicode="ĕ" horiz-adv-x="533" glyph-name="ebreve" d="M343 628q0 17 12.5 30t30.5 13q17 0 29.5 -12t12.5 -34q0 -42 -46 -68t-105 -26t-105 26t-46 68q0 22 13 34t30 12t29.5 -13t12.5 -30q0 -63 66 -63t66 63zM282 429q-54 0 -93 -45t-44 -109l251 8q0 65 -31.5 105.5t-82.5 40.5zM460 242h-316q1 -108 43 -155.5t123 -47.5 q91 0 135 45l23 -23q-63 -65 -182 -65q-110 0 -174 64t-64 171q0 108 64 170.5t164 62.5q91 0 146 -49.5t55 -124.5q0 -20 -3 -34z"/>
<glyph unicode="Ė" horiz-adv-x="631" glyph-name="Edotaccent" d="M257 847q0 25 16.5 41.5t41.5 16.5t41.5 -16.5t16.5 -41.5t-16.5 -41.5t-41.5 -16.5t-41.5 16.5t-16.5 41.5zM201 36h305l37 93h34l-12 -129h-526v24l65 17v618l-65 17v24h516l12 -129h-34l-37 93h-295v-287h231l19 70h31v-176h-31l-19 70h-231v-305z"/>
<glyph unicode="ė" horiz-adv-x="533" glyph-name="edotaccent" d="M217 607q0 25 16.5 41.5t41.5 16.5t41.5 -16.5t16.5 -41.5t-16.5 -41.5t-41.5 -16.5t-41.5 16.5t-16.5 41.5zM282 429q-54 0 -93 -45t-44 -109l251 8q0 65 -31.5 105.5t-82.5 40.5zM460 242h-316q1 -108 43 -155.5t123 -47.5q91 0 135 45l23 -23q-63 -65 -182 -65 q-110 0 -174 64t-64 171q0 108 64 170.5t164 62.5q91 0 146 -49.5t55 -124.5q0 -20 -3 -34z"/>
<glyph unicode="Ę" horiz-adv-x="631" glyph-name="Eogonek" d="M565 -161l12 -11q-46 -46 -94 -46q-61 0 -61 63q0 72 72 155h-455v24l65 17v618l-65 17v24h516l12 -129h-34l-37 93h-295v-287h231l19 70h31v-176h-31l-19 70h-231v-305h305l37 93h34l-12 -129h-41q-25 -35 -39.5 -74.5t-14.5 -67.5q0 -41 37 -41q36 0 58 22z"/>
<glyph unicode="ę" horiz-adv-x="533" glyph-name="eogonek" d="M283 429q-54 0 -93 -45t-44 -109l251 8q0 65 -31.5 105.5t-82.5 40.5zM459 -134l11 -12q-45 -45 -93 -45q-62 0 -62 62q0 65 55 135q-43 -10 -83 -10q-110 0 -174 64t-64 171q0 108 64.5 170.5t164.5 62.5q90 0 145.5 -50t55.5 -124q0 -22 -4 -34l-14 -14h-316 q1 -108 43.5 -155.5t123.5 -47.5q90 0 135 45l23 -23q-22 -24 -56 -39q-23 -33 -36.5 -72t-13.5 -65q0 -42 36 -42t59 23z"/>
<glyph unicode="Ě" horiz-adv-x="631" glyph-name="Ecaron" d="M321 759h-11l-141 138l20 20l126 -79l126 79l21 -20zM201 36h305l37 93h34l-12 -129h-526v24l65 17v618l-65 17v24h516l12 -129h-34l-37 93h-295v-287h231l19 70h31v-176h-31l-19 70h-231v-305z"/>
<glyph unicode="ě" horiz-adv-x="533" glyph-name="ecaron" d="M285 519h-11l-141 138l20 20l126 -79l126 79l21 -20zM283 429q-54 0 -93 -45t-44 -109l251 8q0 65 -31.5 105.5t-82.5 40.5zM461 242h-316q1 -108 43.5 -155.5t123.5 -47.5q90 0 135 45l23 -23q-63 -65 -183 -65q-110 0 -174 64t-64 171q0 108 64.5 170.5t164.5 62.5 q90 0 145.5 -50t55.5 -124q0 -22 -4 -34z"/>
<glyph unicode="Ĝ" horiz-adv-x="762" glyph-name="Gcircumflex" d="M395 917h12l140 -138l-20 -20l-126 79l-126 -79l-20 20zM658 288v-251l-14 -14l-44 28q-86 -57 -203 -57q-156 0 -248.5 95.5t-92.5 258.5q0 165 93.5 261.5t249.5 96.5q113 0 197 -51l34 20l14 -13l13 -137h-34q-48 143 -206 143q-124 0 -191 -81.5t-67 -234.5 q0 -143 65 -228t190 -85q87 0 147 44v206l-65 21v27h227v-27z"/>
<glyph unicode="ĝ" horiz-adv-x="571" glyph-name="gcircumflex" d="M260 677h11l141 -138l-21 -20l-126 79l-126 -79l-20 20zM158 307q0 -59 29 -90.5t78 -31.5t78.5 32t29.5 90t-30 91t-78 33t-77.5 -32.5t-29.5 -91.5zM197 -26q-12 0 -32 2q-43 -48 -43 -104q0 -49 34.5 -69.5t101.5 -20.5q88 0 138 29.5t50 84.5q0 34 -21.5 56t-67.5 22 h-160zM458 414h-40q48 -43 48 -108q0 -71 -55.5 -112.5t-145.5 -41.5q-68 0 -113 22q-21 -29 -21 -58q0 -52 75 -52h141q170 0 170 -140q0 -177 -276 -177q-207 0 -207 101q0 38 27.5 75t69.5 60q-64 21 -64 91q0 31 13.5 57t44.5 59q-60 41 -60 116q0 72 55 114.5t145 42.5 q22 0 43 -3h209v-27z"/>
<glyph unicode="Ğ" horiz-adv-x="762" glyph-name="Gbreve" d="M461 868q0 18 12.5 30.5t31.5 12.5q16 0 28.5 -12t12.5 -34q0 -42 -45.5 -68t-104.5 -26t-105 26t-46 68q0 22 12.5 34t29.5 12q18 0 30.5 -13t12.5 -30q0 -63 66 -63q65 0 65 63zM658 288v-251l-14 -14l-44 28q-86 -57 -203 -57q-156 0 -248.5 95.5t-92.5 258.5 q0 165 93.5 261.5t249.5 96.5q113 0 197 -51l34 20l14 -13l13 -137h-34q-48 143 -206 143q-124 0 -191 -81.5t-67 -234.5q0 -143 65 -228t190 -85q87 0 147 44v206l-65 21v27h227v-27z"/>
<glyph unicode="ğ" horiz-adv-x="571" glyph-name="gbreve" d="M331 628q0 18 12.5 30.5t31.5 12.5q16 0 28.5 -12t12.5 -34q0 -42 -45.5 -68t-104.5 -26t-105 26t-46 68q0 22 12.5 34t29.5 12q18 0 30.5 -13t12.5 -30q0 -63 66 -63q65 0 65 63zM158 307q0 -59 29 -90.5t78 -31.5t78.5 32t29.5 90t-30 91t-78 33t-77.5 -32.5 t-29.5 -91.5zM197 -26q-12 0 -32 2q-43 -48 -43 -104q0 -49 34.5 -69.5t101.5 -20.5q88 0 138 29.5t50 84.5q0 34 -21.5 56t-67.5 22h-160zM458 414h-40q48 -43 48 -108q0 -71 -55.5 -112.5t-145.5 -41.5q-68 0 -113 22q-21 -29 -21 -58q0 -52 75 -52h141q170 0 170 -140 q0 -177 -276 -177q-207 0 -207 101q0 38 27.5 75t69.5 60q-64 21 -64 91q0 31 13.5 57t44.5 59q-60 41 -60 116q0 72 55 114.5t145 42.5q22 0 43 -3h209v-27z"/>
<glyph unicode="Ġ" horiz-adv-x="762" glyph-name="Gdotaccent" d="M338 847q0 25 16.5 41.5t41.5 16.5t41.5 -16.5t16.5 -41.5t-16.5 -41.5t-41.5 -16.5t-41.5 16.5t-16.5 41.5zM658 288v-251l-14 -14l-44 28q-86 -57 -203 -57q-156 0 -248.5 95.5t-92.5 258.5q0 165 93.5 261.5t249.5 96.5q113 0 197 -51l34 20l14 -13l13 -137h-34 q-48 143 -206 143q-124 0 -191 -81.5t-67 -234.5q0 -143 65 -228t190 -85q87 0 147 44v206l-65 21v27h227v-27z"/>
<glyph unicode="ġ" horiz-adv-x="571" glyph-name="gdotaccent" d="M208 607q0 25 16 41.5t42 16.5q25 0 41.5 -16.5t16.5 -41.5t-16.5 -41.5t-41.5 -16.5t-41.5 16.5t-16.5 41.5zM158 307q0 -59 29 -90.5t78 -31.5t78.5 32t29.5 90t-30 91t-78 33t-77.5 -32.5t-29.5 -91.5zM197 -26q-12 0 -32 2q-43 -48 -43 -104q0 -49 34.5 -69.5 t101.5 -20.5q88 0 138 29.5t50 84.5q0 34 -21.5 56t-67.5 22h-160zM458 414h-40q48 -43 48 -108q0 -71 -55.5 -112.5t-145.5 -41.5q-68 0 -113 22q-21 -29 -21 -58q0 -52 75 -52h141q170 0 170 -140q0 -177 -276 -177q-207 0 -207 101q0 38 27.5 75t69.5 60q-64 21 -64 91 q0 31 13.5 57t44.5 59q-60 41 -60 116q0 72 55 114.5t145 42.5q22 0 43 -3h209v-27z"/>
<glyph unicode="Ģ" horiz-adv-x="762" glyph-name="Gcommaaccent" d="M373 -250l-14 14q15 16 27.5 38.5t12.5 35.5q0 6 -2 8q-19 0 -32.5 12.5t-13.5 31.5t13.5 32t33.5 13q18 0 32 -13t14 -42q0 -59 -71 -130zM658 288v-251l-14 -14l-44 28q-86 -57 -203 -57q-156 0 -248.5 95.5t-92.5 258.5q0 165 93.5 261.5t249.5 96.5q113 0 197 -51 l34 20l14 -13l13 -137h-34q-48 143 -206 143q-124 0 -191 -81.5t-67 -234.5q0 -143 65 -228t190 -85q87 0 147 44v206l-65 21v27h227v-27z"/>
<glyph unicode="ģ" horiz-adv-x="571" glyph-name="gcommaaccent" d="M286 700l13 -14q-15 -16 -27.5 -39t-12.5 -35q0 -6 2 -8q19 0 32.5 -12.5t13.5 -31.5t-13 -32t-33 -13q-19 0 -33 12.5t-14 41.5q0 59 72 131zM158 307q0 -59 29 -90.5t78 -31.5t78.5 32t29.5 90t-30 91t-78 33t-77.5 -32.5t-29.5 -91.5zM197 -26q-12 0 -32 2 q-43 -48 -43 -104q0 -49 34.5 -69.5t101.5 -20.5q88 0 138 29.5t50 84.5q0 34 -21.5 56t-67.5 22h-160zM458 414h-40q48 -43 48 -108q0 -71 -55.5 -112.5t-145.5 -41.5q-68 0 -113 22q-21 -29 -21 -58q0 -52 75 -52h141q170 0 170 -140q0 -177 -276 -177q-207 0 -207 101 q0 38 27.5 75t69.5 60q-64 21 -64 91q0 31 13.5 57t44.5 59q-60 41 -60 116q0 72 55 114.5t145 42.5q22 0 43 -3h209v-27z"/>
<glyph unicode="Ĥ" horiz-adv-x="779" glyph-name="Hcircumflex" d="M383 917h12l140 -138l-20 -20l-126 79l-126 -79l-20 20zM39 29l65 25v598l-65 21v27h227v-27l-65 -22v-279h377v280l-65 21v27h226v-27l-65 -22v-604l65 -20v-27h-226v29l65 25v282h-377v-289l65 -20v-27h-227v29z"/>
<glyph unicode="ĥ" horiz-adv-x="618" glyph-name="hcircumflex" d="M303 935h11l141 -138l-20 -21l-127 80l-125 -80l-21 21zM193 365v-319l56 -19v-27h-210v29l60 23v642l-60 17v25l140 21l14 -14v-283l-3 -55l3 -3q31 29 83.5 45.5t96.5 16.5q72 0 108.5 -45.5t36.5 -117.5v-255l60 -19v-27h-210v29l57 23v242q0 60 -24 93.5t-68 33.5 q-32 0 -73 -14.5t-67 -41.5z"/>
<glyph unicode="Ħ" horiz-adv-x="762" glyph-name="Hbar" d="M201 372h360v126h-360v-126zM42 498v22l62 13v119l-65 21v27h227v-27l-65 -22v-118h360v119l-65 21v27h227v-27l-65 -22v-118l65 -13v-22h-65v-451l65 -20v-27h-227v29l65 25v282h-360v-289l65 -20v-27h-227v29l65 25v444h-62z"/>
<glyph unicode="ħ" horiz-adv-x="618" glyph-name="hbar" d="M99 606v88l-60 17v25l140 21l14 -14v-137h200v-35h-200v-111l-3 -55l3 -3q31 29 83.5 45.5t96.5 16.5q72 0 108.5 -45.5t36.5 -117.5v-255l60 -19v-27h-210v29l57 23v242q0 60 -24 93.5t-68 33.5q-32 0 -73 -14.5t-67 -41.5v-319l56 -19v-27h-210v29l60 23v519h-60v22z "/>
<glyph unicode="Ĩ" horiz-adv-x="305" glyph-name="Itilde" d="M8 777l-20 19q82 82 121 82q23 0 54 -23.5t56 -23.5q36 0 82 46l19 -19q-82 -84 -125 -84q-22 0 -53 23.5t-56 23.5q-36 0 -78 -44zM200 651v-604l65 -20v-27h-225v29l65 25v598l-65 21v27h225v-27z"/>
<glyph unicode="ĩ" glyph-name="itilde" d="M39 0v29l60 23v346l-53 16v32l133 21l14 -14v-407l60 -19v-27h-214zM1 537l-19 19q80 82 120 82q23 0 54.5 -23.5t55.5 -23.5q38 0 82 46l19 -19q-82 -84 -125 -84q-21 0 -52.5 23.5t-56.5 23.5q-36 0 -78 -44z"/>
<glyph unicode="Ī" horiz-adv-x="305" glyph-name="Imacron" d="M29 801v42h248v-42h-248zM200 651v-604l65 -20v-27h-225v29l65 25v598l-65 21v27h225v-27z"/>
<glyph unicode="ī" glyph-name="imacron" d="M39 0v29l60 23v346l-53 16v32l133 21l14 -14v-407l60 -19v-27h-214zM22 561v42h248v-42h-248z"/>
<glyph unicode="Ĭ" horiz-adv-x="305" glyph-name="Ibreve" d="M218 868q0 17 12.5 30t30.5 13q17 0 29.5 -12t12.5 -34q0 -42 -45.5 -68t-104.5 -26q-60 0 -105.5 26t-45.5 68q0 22 12.5 34t29.5 12q18 0 30.5 -13t12.5 -30q0 -63 66 -63q65 0 65 63zM200 651v-604l65 -20v-27h-225v29l65 25v598l-65 21v27h225v-27z"/>
<glyph unicode="ĭ" glyph-name="ibreve" d="M39 0v29l60 23v346l-53 16v32l133 21l14 -14v-407l60 -19v-27h-214zM198 628q0 17 12.5 30t30.5 13q17 0 29.5 -12t12.5 -34q0 -42 -46 -68t-105 -26t-104.5 26t-45.5 68q0 22 12.5 34t29.5 12q18 0 30.5 -13t12.5 -30q0 -63 65 -63q66 0 66 63z"/>
<glyph unicode="Į" horiz-adv-x="305" glyph-name="Iogonek" d="M254 -161l11 -11q-46 -46 -93 -46q-62 0 -62 63q0 73 73 155h-143v29l65 25v598l-65 21v27h225v-27l-65 -22v-604l65 -20v-27h-53q-25 -35 -39 -74.5t-14 -67.5q0 -41 36 -41q35 0 59 22z"/>
<glyph unicode="į" glyph-name="iogonek" d="M77 607q0 26 17.5 43.5t43.5 17.5q27 0 44.5 -17.5t17.5 -43.5q0 -27 -17.5 -44t-44.5 -17q-26 0 -43.5 17t-17.5 44zM39 0v29l60 23v346l-53 16v32l133 21l14 -14v-407l60 -19v-27h-53q-25 -35 -39.5 -74.5t-14.5 -67.5q0 -41 37 -41q34 0 58 22l12 -11q-46 -46 -94 -46 q-62 0 -62 63q0 71 73 155h-131z"/>
<glyph unicode="İ" horiz-adv-x="305" glyph-name="Idotaccent" d="M95 847q0 25 16.5 41.5t41.5 16.5t41 -16.5t16 -41.5t-16 -41.5t-41 -16.5t-41.5 16.5t-16.5 41.5zM200 651v-604l65 -20v-27h-225v29l65 25v598l-65 21v27h225v-27z"/>
<glyph unicode="ı" glyph-name="dotlessi" d="M39 0v29l60 23v346l-53 16v32l133 21l14 -14v-407l60 -19v-27h-214z"/>
<glyph unicode="Ĳ" horiz-adv-x="604" glyph-name="IJ" d="M404 0v652l-65 21v27h225v-27l-65 -22v-651q0 -78 -39.5 -146.5t-112.5 -110.5l-23 23q39 38 59.5 102.5t20.5 131.5zM200 651v-604l65 -20v-27h-225v29l65 25v598l-65 21v27h225v-27z"/>
<glyph unicode="ĳ" horiz-adv-x="577" glyph-name="ij" d="M362 607q0 26 17.5 43.5t44.5 17.5q26 0 43.5 -17.5t17.5 -43.5q0 -27 -17.5 -44t-43.5 -17q-27 0 -44.5 17t-17.5 44zM385 0v398l-54 16v32l134 21l13 -14v-453q0 -78 -39 -146.5t-111 -110.5l-22 23q39 38 59 102.5t20 131.5zM77 607q0 26 17.5 43.5t43.5 17.5 q27 0 44.5 -17.5t17.5 -43.5q0 -27 -17.5 -44t-44.5 -17q-26 0 -43.5 17t-17.5 44zM39 0v29l60 23v346l-53 16v32l133 21l14 -14v-407l60 -19v-27h-214z"/>
<glyph unicode="Ĵ" horiz-adv-x="305" glyph-name="Jcircumflex" d="M147 917h11l141 -138l-20 -20l-126 79l-126 -79l-20 20zM105 0v652l-65 21v27h225v-27l-65 -22v-651q0 -78 -39.5 -146.5t-112.5 -110.5l-23 23q39 38 59.5 102.5t20.5 131.5z"/>
<glyph unicode="ĵ" glyph-name="jcircumflex" d="M140 677h12l140 -138l-20 -20l-126 79l-126 -79l-20 20zM99 0v398l-53 16v32l133 21l14 -14v-453q0 -78 -39 -146.5t-111 -110.5l-23 23q39 38 59 102.5t20 131.5z"/>
<glyph unicode="Ķ" horiz-adv-x="689" glyph-name="Kcommaaccent" d="M319 -250l-14 14q16 16 28.5 38.5t12.5 35.5q0 5 -3 8q-19 0 -32 12.5t-13 31.5q0 20 13 32.5t33 12.5q19 0 32.5 -13t13.5 -42q0 -59 -71 -130zM198 651v-325l317 326l-84 21v27h201v-27l-64 -21l-215 -224l250 -381l66 -20v-27h-148l-237 361l-86 -89v-225l65 -20v-27 h-227v29l65 25v598l-65 21v27h227v-27z"/>
<glyph unicode="ķ" horiz-adv-x="556" glyph-name="kcommaaccent" d="M253 -250l-14 14q15 16 27.5 38.5t12.5 35.5q0 6 -2 8q-19 0 -32.5 12.5t-13.5 31.5t13.5 32t33.5 13q18 0 32 -13t14 -42q0 -59 -71 -130zM408 0l-147 238l-68 -65v-127l60 -19v-27h-214v29l60 23v642l-60 17v25l140 21l14 -14v-517l203 188l-79 19v27h190v-27l-58 -19 l-123 -114l153 -255l61 -18v-27h-132z"/>
<glyph unicode="Ĺ" horiz-adv-x="604" glyph-name="Lacute" d="M72 779l144 138l57 -57l-181 -101zM201 36h278l37 93h34l-12 -129h-499v24l65 17v611l-65 21v27h227v-27l-65 -22v-615z"/>
<glyph unicode="ĺ" glyph-name="lacute" d="M65 793l145 138l56 -57l-181 -101zM39 0v29l60 23v642l-60 17v25l140 21l14 -14v-697l60 -19v-27h-214z"/>
<glyph unicode="Ļ" horiz-adv-x="604" glyph-name="Lcommaaccent" d="M277 -250l-14 14q15 16 27.5 38.5t12.5 35.5q0 6 -2 8q-19 0 -32.5 12.5t-13.5 31.5t13.5 32t33.5 13q18 0 32 -13t14 -42q0 -59 -71 -130zM201 36h278l37 93h34l-12 -129h-499v24l65 17v611l-65 21v27h227v-27l-65 -22v-615z"/>
<glyph unicode="ļ" glyph-name="lcommaaccent" d="M121 -250l-14 14q15 16 27.5 38.5t12.5 35.5q0 6 -2 8q-19 0 -32.5 12.5t-13.5 31.5t13.5 32t33.5 13q18 0 32 -13t14 -42q0 -59 -71 -130zM39 0v29l60 23v642l-60 17v25l140 21l14 -14v-697l60 -19v-27h-214z"/>
<glyph unicode="Ľ" horiz-adv-x="604" glyph-name="Lcaron" d="M159 746h-12l-140 138l20 20l126 -79l126 79l20 -20zM201 36h278l37 93h34l-12 -129h-499v24l65 17v611l-65 21v27h227v-27l-65 -22v-615z"/>
<glyph unicode="ľ" horiz-adv-x="382" glyph-name="lcaron" d="M289 569l-13 14q15 16 27.5 39t12.5 35q0 6 -2 8q-19 0 -32.5 12.5t-13.5 31.5t13 32t33 13q19 0 33 -12.5t14 -41.5q0 -59 -72 -131zM39 0v29l60 23v642l-60 17v25l140 21l14 -14v-697l60 -19v-27h-214z"/>
<glyph unicode="Ŀ" horiz-adv-x="604" glyph-name="Ldot" d="M401 350q0 23 15.5 39t38.5 16q24 0 40 -16t16 -39t-16 -39t-40 -16q-23 0 -38.5 16t-15.5 39zM201 36h278l37 93h34l-12 -129h-499v24l65 17v611l-65 21v27h227v-27l-65 -22v-615z"/>
<glyph unicode="ŀ" horiz-adv-x="436" glyph-name="ldot" d="M302 300q0 23 15.5 39t38.5 16q24 0 40 -16t16 -39t-16 -39t-40 -16q-23 0 -38.5 16t-15.5 39zM39 0v29l60 23v642l-60 17v25l140 21l14 -14v-697l60 -19v-27h-214z"/>
<glyph unicode="Ł" horiz-adv-x="604" glyph-name="Lslash" d="M48 175l-25 25l81 81v371l-65 21v27h227v-27l-65 -22v-295l124 123l25 -25l-149 -149v-269h278l37 93h34l-12 -129h-499v24l65 17v190z"/>
<glyph unicode="ł" glyph-name="lslash" d="M48 209l-25 25l76 76v384l-60 17v25l140 21l14 -14v-358l51 51l25 -25l-76 -76v-289l60 -19v-27h-214v29l60 23v208z"/>
<glyph unicode="Ń" horiz-adv-x="729" glyph-name="Nacute" d="M283 779l145 138l57 -57l-181 -101zM39 20l65 25v607l-65 21v27h162l388 -557v518l-65 20v19h166v-19l-65 -22v-659h-46l-439 629v-590l65 -21v-18h-166v20z"/>
<glyph unicode="ń" horiz-adv-x="618" glyph-name="nacute" d="M228 539l144 138l57 -57l-181 -101zM193 365v-319l56 -19v-27h-210v29l60 23v346l-53 16v32l133 21l14 -14l-3 -48l3 -3q32 29 84.5 45.5t96.5 16.5q70 0 107 -45.5t37 -117.5v-255l60 -19v-27h-210v29l57 23v242q0 60 -25.5 93.5t-69.5 33.5q-31 0 -71 -14.5t-66 -41.5z "/>
<glyph unicode="Ņ" horiz-adv-x="729" glyph-name="Ncommaaccent" d="M340 -250l-14 14q15 16 27.5 38.5t12.5 35.5q0 6 -2 8q-19 0 -32.5 12.5t-13.5 31.5t13.5 32t33.5 13q18 0 32 -13t14 -42q0 -59 -71 -130zM39 20l65 25v607l-65 21v27h162l388 -557v518l-65 20v19h166v-19l-65 -22v-659h-46l-439 629v-590l65 -21v-18h-166v20z"/>
<glyph unicode="ņ" horiz-adv-x="618" glyph-name="ncommaaccent" d="M284 -250l-14 14q16 16 28.5 38.5t12.5 35.5q0 5 -3 8q-19 0 -32 12.5t-13 31.5t13 32t33 13q19 0 32.5 -13t13.5 -42q0 -59 -71 -130zM193 365v-319l56 -19v-27h-210v29l60 23v346l-53 16v32l133 21l14 -14l-3 -48l3 -3q32 29 84.5 45.5t96.5 16.5q70 0 107 -45.5 t37 -117.5v-255l60 -19v-27h-210v29l57 23v242q0 60 -25.5 93.5t-69.5 33.5q-31 0 -71 -14.5t-66 -41.5z"/>
<glyph unicode="Ň" horiz-adv-x="729" glyph-name="Ncaron" d="M370 759h-12l-140 138l20 20l126 -79l126 79l20 -20zM39 20l65 25v607l-65 21v27h162l388 -557v518l-65 20v19h166v-19l-65 -22v-659h-46l-439 629v-590l65 -21v-18h-166v20z"/>
<glyph unicode="ň" horiz-adv-x="618" glyph-name="ncaron" d="M314 519h-11l-141 138l21 20l125 -79l127 79l20 -20zM193 365v-319l56 -19v-27h-210v29l60 23v346l-53 16v32l133 21l14 -14l-3 -48l3 -3q32 29 84.5 45.5t96.5 16.5q70 0 107 -45.5t37 -117.5v-255l60 -19v-27h-210v29l57 23v242q0 60 -25.5 93.5t-69.5 33.5 q-31 0 -71 -14.5t-66 -41.5z"/>
<glyph unicode="Ŋ" horiz-adv-x="729" glyph-name="Eng" d="M39 20l65 25v607l-65 21v27h165l385 -614v575l-65 20v19h166v-19l-65 -22v-659q0 -78 -40 -146.5t-113 -110.5l-23 23q39 38 59 102.5t20 131.5v13l-388 616v-590l65 -21v-18h-166v20z"/>
<glyph unicode="ŋ" horiz-adv-x="618" glyph-name="eng" d="M425 0v294q0 60 -25.5 93.5t-69.5 33.5q-31 0 -71 -14.5t-66 -41.5v-319l60 -19v-27h-214v29l60 23v346l-53 16v32l133 21l14 -14l-3 -48l3 -3q32 29 84.5 45.5t96.5 16.5q70 0 107 -45.5t37 -117.5v-301q0 -78 -39 -146.5t-111 -110.5l-22 23q39 38 59 102.5t20 131.5z "/>
<glyph unicode="Ō" horiz-adv-x="783" glyph-name="Omacron" d="M268 801v42h248v-42h-248zM159 349q0 -151 64 -235t169 -84t168.5 84t63.5 235q0 152 -63.5 236.5t-168.5 84.5t-169 -84.5t-64 -236.5zM56 350q0 163 92.5 259.5t243.5 96.5q150 0 242.5 -96.5t92.5 -259.5t-92.5 -259.5t-242.5 -96.5q-151 0 -243.5 96.5t-92.5 259.5z "/>
<glyph unicode="ō" horiz-adv-x="565" glyph-name="omacron" d="M158 561v42h248v-42h-248zM145 230q0 -94 37.5 -146t99.5 -52t100 52t38 146q0 95 -38 147t-100 52t-99.5 -52.5t-37.5 -146.5zM49 230q0 108 64 171t169 63t169.5 -63t64.5 -171t-64.5 -171t-169.5 -63t-169 63t-64 171z"/>
<glyph unicode="Ŏ" horiz-adv-x="783" glyph-name="Obreve" d="M457 868q0 17 12.5 30t30.5 13q17 0 29.5 -12t12.5 -34q0 -42 -45.5 -68t-104.5 -26q-60 0 -105.5 26t-45.5 68q0 22 12.5 34t29.5 12q18 0 30.5 -13t12.5 -30q0 -63 66 -63q65 0 65 63zM159 349q0 -151 64 -235t169 -84t168.5 84t63.5 235q0 152 -63.5 236.5 t-168.5 84.5t-169 -84.5t-64 -236.5zM56 350q0 163 92.5 259.5t243.5 96.5q150 0 242.5 -96.5t92.5 -259.5t-92.5 -259.5t-242.5 -96.5q-151 0 -243.5 96.5t-92.5 259.5z"/>
<glyph unicode="ŏ" horiz-adv-x="565" glyph-name="obreve" d="M348 628q0 17 12.5 30t30.5 13q17 0 29.5 -12t12.5 -34q0 -42 -45.5 -68t-105.5 -26q-59 0 -104.5 26t-45.5 68q0 22 12.5 34t29.5 12q18 0 30.5 -13t12.5 -30q0 -63 65 -63q66 0 66 63zM145 230q0 -94 37.5 -146t99.5 -52t100 52t38 146q0 95 -38 147t-100 52 t-99.5 -52.5t-37.5 -146.5zM49 230q0 108 64 171t169 63t169.5 -63t64.5 -171t-64.5 -171t-169.5 -63t-169 63t-64 171z"/>
<glyph unicode="Ő" horiz-adv-x="783" glyph-name="Ohungarumlaut" d="M394 779l134 138l57 -57l-171 -101zM218 779l134 138l57 -57l-171 -101zM159 349q0 -151 64 -235t169 -84t168.5 84t63.5 235q0 152 -63.5 236.5t-168.5 84.5t-169 -84.5t-64 -236.5zM56 350q0 163 92.5 259.5t243.5 96.5q150 0 242.5 -96.5t92.5 -259.5t-92.5 -259.5 t-242.5 -96.5q-151 0 -243.5 96.5t-92.5 259.5z"/>
<glyph unicode="ő" horiz-adv-x="565" glyph-name="ohungarumlaut" d="M285 539l134 138l57 -57l-171 -101zM108 539l134 138l57 -57l-170 -101zM145 230q0 -94 37.5 -146t99.5 -52t100 52t38 146q0 95 -38 147t-100 52t-99.5 -52.5t-37.5 -146.5zM49 230q0 108 64 171t169 63t169.5 -63t64.5 -171t-64.5 -171t-169.5 -63t-169 63t-64 171z "/>
<glyph unicode="Œ" horiz-adv-x="987" glyph-name="OE" d="M392 30q45 0 82 17v605q-39 18 -82 18q-105 0 -169 -84.5t-64 -236.5q0 -151 64 -235t169 -84zM570 36h292l37 93h34l-12 -129h-458q-33 -6 -71 -6q-151 0 -243.5 96.5t-92.5 259.5t92.5 259.5t243.5 96.5q36 0 71 -6h448l12 -129h-34l-37 93h-282v-287h218l19 70h31 v-176h-31l-19 70h-218v-305z"/>
<glyph unicode="œ" horiz-adv-x="890" glyph-name="oe" d="M640 429q-54 0 -93 -45t-44 -109l251 8q0 65 -31.5 105.5t-82.5 40.5zM282 32q50 0 84.5 33.5t47.5 96.5q-8 34 -8 69q0 32 8 66q-13 64 -47.5 98t-84.5 34q-62 0 -99.5 -52.5t-37.5 -146.5t37.5 -146t99.5 -52zM818 242h-316q1 -108 43.5 -155.5t123.5 -47.5 q91 0 135 45l23 -23q-63 -65 -183 -65q-124 0 -183 84q-59 -84 -179 -84q-105 0 -169 63t-64 171t64 171t169 63q120 0 178 -84q59 84 175 84q90 0 145.5 -50t55.5 -124q0 -22 -4 -34z"/>
<glyph unicode="Ŕ" horiz-adv-x="665" glyph-name="Racute" d="M252 779l144 138l57 -57l-181 -101zM323 664h-122v-307h122q67 0 108 40t41 113q0 74 -41 114t-108 40zM575 510q0 -74 -48.5 -122.5t-131.5 -59.5q37 -19 81 -98l104 -183l65 -20v-27h-144l-182 321h-118v-274l65 -20v-27h-227v29l65 25v605l-65 17v24h298 q106 0 172 -51.5t66 -138.5z"/>
<glyph unicode="ŕ" horiz-adv-x="463" glyph-name="racute" d="M168 539l145 138l56 -57l-181 -101zM99 52v346l-53 16v32l133 21l14 -15l-3 -83l3 -3q2 4 6 10.5t18 23.5t28.5 30t37.5 23.5t47 10.5q41 0 69 -27t28 -67q0 -26 -12.5 -38t-29.5 -12q-18 0 -30.5 12.5t-12.5 30.5v56q-12 10 -29 10q-31 0 -61 -29t-44 -58l-15 -29v-264 l91 -22v-27h-245v29z"/>
<glyph unicode="Ŗ" horiz-adv-x="665" glyph-name="Rcommaaccent" d="M307 -250l-14 14q16 16 28.5 38.5t12.5 35.5q0 5 -3 8q-19 0 -32 12.5t-13 31.5q0 20 13 32.5t33 12.5q19 0 32.5 -13t13.5 -42q0 -59 -71 -130zM323 664h-122v-307h122q67 0 108 40t41 113q0 74 -41 114t-108 40zM575 510q0 -74 -48.5 -122.5t-131.5 -59.5 q37 -19 81 -98l104 -183l65 -20v-27h-144l-182 321h-118v-274l65 -20v-27h-227v29l65 25v605l-65 17v24h298q106 0 172 -51.5t66 -138.5z"/>
<glyph unicode="ŗ" horiz-adv-x="463" glyph-name="rcommaaccent" d="M133 -250l-14 14q15 16 27.5 38.5t12.5 35.5q0 6 -2 8q-19 0 -32.5 12.5t-13.5 31.5t13.5 32t33.5 13q18 0 32 -13t14 -42q0 -59 -71 -130zM99 52v346l-53 16v32l133 21l14 -15l-3 -83l3 -3q2 4 6 10.5t18 23.5t28.5 30t37.5 23.5t47 10.5q41 0 69 -27t28 -67 q0 -26 -12.5 -38t-29.5 -12q-18 0 -30.5 12.5t-12.5 30.5v56q-12 10 -29 10q-31 0 -61 -29t-44 -58l-15 -29v-264l91 -22v-27h-245v29z"/>
<glyph unicode="Ř" horiz-adv-x="665" glyph-name="Rcaron" d="M328 759h-11l-141 138l20 20l126 -79l126 79l21 -20zM323 664h-122v-307h122q67 0 108 40t41 113q0 74 -41 114t-108 40zM575 510q0 -74 -48.5 -122.5t-131.5 -59.5q37 -19 81 -98l104 -183l65 -20v-27h-144l-182 321h-118v-274l65 -20v-27h-227v29l65 25v605l-65 17v24 h298q106 0 172 -51.5t66 -138.5z"/>
<glyph unicode="ř" horiz-adv-x="463" glyph-name="rcaron" d="M242 519h-11l-141 138l20 20l126 -79l126 79l21 -20zM99 52v346l-53 16v32l133 21l14 -15l-3 -83l3 -3q2 4 6 10.5t18 23.5t28.5 30t37.5 23.5t47 10.5q41 0 69 -27t28 -67q0 -26 -12.5 -38t-29.5 -12q-18 0 -30.5 12.5t-12.5 30.5v56q-12 10 -29 10q-31 0 -61 -29 t-44 -58l-15 -29v-264l91 -22v-27h-245v29z"/>
<glyph unicode="Ś" horiz-adv-x="587" glyph-name="Sacute" d="M203 779l144 138l57 -57l-181 -101zM64 25l-14 140h34q16 -71 68.5 -103t120.5 -32q76 0 123 36.5t47 109.5q0 57 -36.5 83t-135.5 57q-32 10 -46 14.5t-42 15t-41 19.5t-32 24.5t-28 33t-16 42t-7 53.5q0 85 54 136.5t170 51.5q95 0 168 -42l26 23l13 -14l14 -138h-35 q-15 73 -61.5 104t-106.5 31q-70 0 -111.5 -36.5t-41.5 -100.5q0 -55 33.5 -78.5t121.5 -51.5l51 -16.5t46 -17.5t44 -22t34.5 -26t29 -34t16.5 -43t7 -55q0 -91 -59.5 -143t-186.5 -52q-103 0 -181 42l-27 -25z"/>
<glyph unicode="ś" horiz-adv-x="446" glyph-name="sacute" d="M139 539l145 138l56 -57l-181 -101zM53 18v106h34q26 -93 120 -93q49 0 79.5 21.5t30.5 63.5q0 34 -24 49t-88 31q-33 9 -45.5 12.5t-39 15.5t-37.5 24t-21 34t-10 51q0 60 40.5 95.5t125.5 35.5q70 0 126 -31l16 17l12 -12v-104h-35q-23 94 -107 94q-44 0 -70.5 -22 t-26.5 -58q0 -32 22 -46t77 -29q35 -10 49 -14.5t42.5 -17.5t40.5 -26t23 -36t11 -52q0 -131 -187 -131q-74 0 -129 27l-17 -17z"/>
<glyph unicode="Ŝ" horiz-adv-x="587" glyph-name="Scircumflex" d="M278 917h11l141 -138l-21 -20l-126 79l-126 -79l-20 20zM64 25l-14 140h34q16 -71 68.5 -103t120.5 -32q76 0 123 36.5t47 109.5q0 57 -36.5 83t-135.5 57q-32 10 -46 14.5t-42 15t-41 19.5t-32 24.5t-28 33t-16 42t-7 53.5q0 85 54 136.5t170 51.5q95 0 168 -42l26 23 l13 -14l14 -138h-35q-15 73 -61.5 104t-106.5 31q-70 0 -111.5 -36.5t-41.5 -100.5q0 -55 33.5 -78.5t121.5 -51.5l51 -16.5t46 -17.5t44 -22t34.5 -26t29 -34t16.5 -43t7 -55q0 -91 -59.5 -143t-186.5 -52q-103 0 -181 42l-27 -25z"/>
<glyph unicode="ŝ" horiz-adv-x="446" glyph-name="scircumflex" d="M213 677h11l141 -138l-21 -20l-126 79l-126 -79l-20 20zM53 18v106h34q26 -93 120 -93q49 0 79.5 21.5t30.5 63.5q0 34 -24 49t-88 31q-33 9 -45.5 12.5t-39 15.5t-37.5 24t-21 34t-10 51q0 60 40.5 95.5t125.5 35.5q70 0 126 -31l16 17l12 -12v-104h-35q-23 94 -107 94 q-44 0 -70.5 -22t-26.5 -58q0 -32 22 -46t77 -29q35 -10 49 -14.5t42.5 -17.5t40.5 -26t23 -36t11 -52q0 -131 -187 -131q-74 0 -129 27l-17 -17z"/>
<glyph unicode="Ş" horiz-adv-x="587" glyph-name="Scedilla" d="M219 -95l49 89q-93 3 -164 42l-27 -25l-13 14l-14 140h34q16 -71 68.5 -103t120.5 -32q76 0 123 36.5t47 109.5q0 57 -36.5 83t-135.5 57q-32 10 -46 14.5t-42 15t-41 19.5t-32 24.5t-28 33t-16 42t-7 53.5q0 85 54 136.5t170 51.5q95 0 168 -42l26 23l13 -14l14 -138 h-35q-15 73 -61.5 104t-106.5 31q-70 0 -111.5 -36.5t-41.5 -100.5q0 -55 33.5 -78.5t121.5 -51.5l51 -16.5t46 -17.5t44 -22t34.5 -26t29 -34t16.5 -43t7 -55q0 -88 -56.5 -140t-175.5 -55l-20 -38q78 0 78 -45q0 -35 -94 -129l-13 14q50 50 50 79q0 30 -81 30z"/>
<glyph unicode="ş" horiz-adv-x="446" glyph-name="scedilla" d="M147 -95l49 91q-65 3 -114 27l-17 -17l-12 12v106h34q26 -93 120 -93q49 0 79.5 21.5t30.5 63.5q0 34 -24 49t-88 31q-33 9 -45.5 12.5t-39 15.5t-37.5 24t-21 34t-10 51q0 60 40.5 95.5t125.5 35.5q70 0 126 -31l16 17l12 -12v-104h-35q-23 94 -107 94q-44 0 -70.5 -22 t-26.5 -58q0 -32 22 -46t77 -29q35 -10 49 -14.5t42.5 -17.5t40.5 -26t23 -36t11 -52q0 -126 -171 -130l-21 -41q78 0 78 -45q0 -35 -94 -129l-12 14q49 49 49 79t-80 30z"/>
<glyph unicode="Š" horiz-adv-x="587" glyph-name="Scaron" d="M289 759h-11l-141 138l21 20l125 -79l127 79l20 -20zM64 25l-14 140h34q16 -71 68.5 -103t120.5 -32q76 0 123 36.5t47 109.5q0 57 -36.5 83t-135.5 57q-32 10 -46 14.5t-42 15t-41 19.5t-32 24.5t-28 33t-16 42t-7 53.5q0 85 54 136.5t170 51.5q95 0 168 -42l26 23 l13 -14l14 -138h-35q-15 73 -61.5 104t-106.5 31q-70 0 -111.5 -36.5t-41.5 -100.5q0 -55 33.5 -78.5t121.5 -51.5l51 -16.5t46 -17.5t44 -22t34.5 -26t29 -34t16.5 -43t7 -55q0 -91 -59.5 -143t-186.5 -52q-103 0 -181 42l-27 -25z"/>
<glyph unicode="š" horiz-adv-x="446" glyph-name="scaron" d="M224 519h-11l-141 138l20 20l126 -79l126 79l21 -20zM53 18v106h34q26 -93 120 -93q49 0 79.5 21.5t30.5 63.5q0 34 -24 49t-88 31q-33 9 -45.5 12.5t-39 15.5t-37.5 24t-21 34t-10 51q0 60 40.5 95.5t125.5 35.5q70 0 126 -31l16 17l12 -12v-104h-35q-23 94 -107 94 q-44 0 -70.5 -22t-26.5 -58q0 -32 22 -46t77 -29q35 -10 49 -14.5t42.5 -17.5t40.5 -26t23 -36t11 -52q0 -131 -187 -131q-74 0 -129 27l-17 -17z"/>
<glyph unicode="Ţ" horiz-adv-x="674" glyph-name="Tcommaaccent" d="M312 -250l-14 14q15 16 27.5 38.5t12.5 35.5q0 6 -2 8q-19 0 -32.5 12.5t-13.5 31.5t13.5 32t33.5 13q18 0 32 -13t14 -42q0 -59 -71 -130zM564 664h-178v-617l65 -20v-27h-227v29l65 25v610h-179l-37 -97h-34l12 133h573l12 -129h-35z"/>
<glyph unicode="ţ" horiz-adv-x="390" glyph-name="tcommaaccent" d="M191 -250l-13 14q15 16 27.5 38.5t12.5 35.5q0 4 -2 8q-19 0 -32.5 12.5t-13.5 31.5t13 32t33 13q19 0 33 -13t14 -42q0 -61 -72 -130zM39 424v20q90 33 140 126l14 -13v-97h141v-36h-141v-294q0 -45 21 -69t60 -24q41 0 64 23l19 -19q-45 -45 -120 -45q-64 0 -101 36 t-37 98v294h-60z"/>
<glyph unicode="Ť" horiz-adv-x="674" glyph-name="Tcaron" d="M342 759h-11l-141 138l21 20l125 -79l127 79l20 -20zM564 664h-178v-617l65 -20v-27h-227v29l65 25v610h-179l-37 -97h-34l12 133h573l12 -129h-35z"/>
<glyph unicode="ť" horiz-adv-x="390" glyph-name="tcaron" d="M281 569l-14 14q15 16 27.5 39t12.5 35q0 7 -2 8q-19 0 -32.5 12.5t-13.5 31.5t13.5 32t33.5 13q18 0 32 -12.5t14 -41.5q0 -57 -71 -131zM39 424v20q90 33 140 126l14 -13v-97h141v-36h-141v-294q0 -45 21 -69t60 -24q41 0 64 23l19 -19q-45 -45 -120 -45q-64 0 -101 36 t-37 98v294h-60z"/>
<glyph unicode="Ŧ" horiz-adv-x="674" glyph-name="Tbar" d="M180 331v36h109v297h-179l-37 -97h-34l12 133h573l12 -129h-35l-37 93h-178v-297h109v-36h-109v-284l65 -20v-27h-227v29l65 25v277h-109z"/>
<glyph unicode="ŧ" horiz-adv-x="390" glyph-name="tbar" d="M39 264v22l60 14v124h-60v20q90 33 140 126l14 -13v-97h141v-36h-141v-124h141v-36h-141v-134q0 -45 21 -69t60 -24q41 0 64 23l19 -19q-45 -45 -120 -45q-64 0 -101 36t-37 98v134h-60z"/>
<glyph unicode="Ũ" horiz-adv-x="754" glyph-name="Utilde" d="M246 777l-20 19q82 82 121 82q23 0 54 -23.5t56 -23.5q36 0 82 46l19 -19q-82 -84 -125 -84q-21 0 -52.5 23.5t-56.5 23.5q-36 0 -78 -44zM650 659v-402q0 -121 -75.5 -191.5t-198.5 -70.5q-122 0 -197 70.5t-75 191.5v395l-65 21v27h227v-27l-65 -22v-394 q0 -101 57 -157t151 -56t151 56t57 157v404l-64 20v19h162v-19z"/>
<glyph unicode="ũ" horiz-adv-x="616" glyph-name="utilde" d="M159 537l-19 19q80 82 121 82q23 0 54 -23.5t56 -23.5q37 0 81 46l20 -19q-84 -84 -125 -84q-22 0 -53 23.5t-57 23.5q-34 0 -78 -44zM516 61l54 -22v-31l-133 -15l-14 14l2 51l-3 3q-32 -30 -84.5 -47.5t-98.5 -17.5q-69 0 -104.5 39t-35.5 101v262l-53 16v32l133 21 l14 -14v-314q0 -47 24 -73.5t67 -26.5q34 0 74 15.5t65 44.5v299l-53 16v32l133 21l13 -14v-392z"/>
<glyph unicode="Ū" horiz-adv-x="754" glyph-name="Umacron" d="M260 801v42h248v-42h-248zM650 659v-402q0 -121 -75.5 -191.5t-198.5 -70.5q-122 0 -197 70.5t-75 191.5v395l-65 21v27h227v-27l-65 -22v-394q0 -101 57 -157t151 -56t151 56t57 157v404l-64 20v19h162v-19z"/>
<glyph unicode="ū" horiz-adv-x="616" glyph-name="umacron" d="M180 561v42h248v-42h-248zM516 61l54 -22v-31l-133 -15l-14 14l2 51l-3 3q-32 -30 -84.5 -47.5t-98.5 -17.5q-69 0 -104.5 39t-35.5 101v262l-53 16v32l133 21l14 -14v-314q0 -47 24 -73.5t67 -26.5q34 0 74 15.5t65 44.5v299l-53 16v32l133 21l13 -14v-392z"/>
<glyph unicode="Ŭ" horiz-adv-x="754" glyph-name="Ubreve" d="M449 868q0 18 12.5 30.5t31.5 12.5q16 0 28.5 -12t12.5 -34q0 -42 -45.5 -68t-104.5 -26t-105 26t-46 68q0 22 12.5 34t29.5 12q18 0 30.5 -13t12.5 -30q0 -63 66 -63q65 0 65 63zM650 659v-402q0 -121 -75.5 -191.5t-198.5 -70.5q-122 0 -197 70.5t-75 191.5v395l-65 21 v27h227v-27l-65 -22v-394q0 -101 57 -157t151 -56t151 56t57 157v404l-64 20v19h162v-19z"/>
<glyph unicode="ŭ" horiz-adv-x="616" glyph-name="ubreve" d="M368 628q0 17 12.5 30t30.5 13q17 0 29.5 -12t12.5 -34q0 -42 -45.5 -68t-104.5 -26q-60 0 -105.5 26t-45.5 68q0 22 12.5 34t29.5 12q18 0 30.5 -13t12.5 -30q0 -63 66 -63q65 0 65 63zM516 61l54 -22v-31l-133 -15l-14 14l2 51l-3 3q-32 -30 -84.5 -47.5t-98.5 -17.5 q-69 0 -104.5 39t-35.5 101v262l-53 16v32l133 21l14 -14v-314q0 -47 24 -73.5t67 -26.5q34 0 74 15.5t65 44.5v299l-53 16v32l133 21l13 -14v-392z"/>
<glyph unicode="Ů" horiz-adv-x="754" glyph-name="Uring" d="M345 825q0 -25 12.5 -40.5t32.5 -15.5t32.5 15.5t12.5 40.5t-12.5 40.5t-32.5 15.5t-32.5 -15.5t-12.5 -40.5zM307 825q0 37 23 59t60 22q38 0 61 -22t23 -59q0 -38 -23 -59.5t-61 -21.5q-37 0 -60 21.5t-23 59.5zM650 659v-402q0 -121 -75.5 -191.5t-198.5 -70.5 q-122 0 -197 70.5t-75 191.5v395l-65 21v27h227v-27l-65 -22v-394q0 -101 57 -157t151 -56t151 56t57 157v404l-64 20v19h162v-19z"/>
<glyph unicode="ů" horiz-adv-x="616" glyph-name="uring" d="M261 585q0 -25 12.5 -40.5t32.5 -15.5t32.5 15.5t12.5 40.5t-12.5 40.5t-32.5 15.5t-32.5 -15.5t-12.5 -40.5zM223 585q0 37 23 59t60 22q38 0 61 -22t23 -59q0 -38 -23 -59.5t-61 -21.5q-37 0 -60 21.5t-23 59.5zM516 61l54 -22v-31l-133 -15l-14 14l2 51l-3 3 q-32 -30 -84.5 -47.5t-98.5 -17.5q-69 0 -104.5 39t-35.5 101v262l-53 16v32l133 21l14 -14v-314q0 -47 24 -73.5t67 -26.5q34 0 74 15.5t65 44.5v299l-53 16v32l133 21l13 -14v-392z"/>
<glyph unicode="Ű" horiz-adv-x="754" glyph-name="Uhungarumlaut" d="M386 779l134 138l57 -57l-170 -101zM210 779l134 138l57 -57l-171 -101zM650 659v-402q0 -121 -75.5 -191.5t-198.5 -70.5q-122 0 -197 70.5t-75 191.5v395l-65 21v27h227v-27l-65 -22v-394q0 -101 57 -157t151 -56t151 56t57 157v404l-64 20v19h162v-19z"/>
<glyph unicode="ű" horiz-adv-x="616" glyph-name="uhungarumlaut" d="M307 539l134 138l57 -57l-170 -101zM131 539l134 138l57 -57l-171 -101zM516 61l54 -22v-31l-133 -15l-14 14l2 51l-3 3q-32 -30 -84.5 -47.5t-98.5 -17.5q-69 0 -104.5 39t-35.5 101v262l-53 16v32l133 21l14 -14v-314q0 -47 24 -73.5t67 -26.5q34 0 74 15.5t65 44.5 v299l-53 16v32l133 21l13 -14v-392z"/>
<glyph unicode="Ų" horiz-adv-x="754" glyph-name="Uogonek" d="M472 -161l12 -11q-48 -46 -94 -46q-62 0 -62 63q0 70 69 151q-7 -1 -21 -1q-122 0 -197 70.5t-75 191.5v395l-65 21v27h227v-27l-65 -22v-394q0 -101 57 -157t151 -56t151 56t57 157v404l-64 20v19h162v-19l-65 -22v-402q0 -106 -59.5 -174.5t-160.5 -83.5 q-25 -35 -39 -74t-14 -67q0 -41 37 -41q34 0 58 22z"/>
<glyph unicode="ų" horiz-adv-x="616" glyph-name="uogonek" d="M560 -157l12 -11q-44 -46 -94 -46q-61 0 -61 63q0 71 67 150l-47 -6l-14 14l2 51l-3 3q-32 -30 -84.5 -47.5t-98.5 -17.5q-69 0 -104.5 39t-35.5 101v262l-53 16v32l133 21l14 -14v-314q0 -47 24 -73.5t67 -26.5q34 0 74 15.5t65 44.5v299l-53 16v32l133 21l13 -14v-392 l54 -22v-31l-53 -6q-25 -34 -38.5 -73.5t-13.5 -66.5q0 -41 37 -41q36 0 58 22z"/>
<glyph unicode="Ŵ" horiz-adv-x="1177" glyph-name="Wcircumflex" d="M586 917h11l141 -138l-21 -20l-126 79l-126 -79l-20 20zM783 0l-196 474l-191 -474h-46l-273 652l-64 21v27h228v-27l-65 -21l227 -553l165 420l-58 133l-64 21v27h228v-27l-65 -21l226 -553l228 553l-83 21v27h184v-27l-62 -21l-273 -652h-46z"/>
<glyph unicode="ŵ" horiz-adv-x="854" glyph-name="wcircumflex" d="M426 677h12l140 -138l-20 -20l-126 79l-126 -79l-20 20zM558 0l-126 296l-131 -296h-42l-183 414l-60 19v27h208v-27l-57 -19l139 -320l107 245l-31 75l-59 19v27h207v-27l-56 -19l131 -320l135 320l-77 19v27h174v-27l-56 -19l-180 -414h-43z"/>
<glyph unicode="Ŷ" horiz-adv-x="702" glyph-name="Ycircumflex" d="M347 917h12l140 -138l-20 -20l-126 79l-126 -79l-20 20zM184 654l196 -319l202 319l-77 19v27h184v-27l-65 -19l-228 -359v-248l65 -20v-27h-227v29l65 25v240l-223 360l-63 19v27h233v-27z"/>
<glyph unicode="ŷ" horiz-adv-x="579" glyph-name="ycircumflex" d="M288 677h11l141 -138l-20 -20l-126 79l-126 -79l-21 20zM269 -3l-193 417l-60 19v27h211v-27l-56 -19l146 -315l147 315l-78 19v27h177v-27l-57 -19l-194 -414q-75 -160 -106.5 -207t-77.5 -47q-33 0 -56.5 17.5t-23.5 51.5q0 25 13.5 37.5t33.5 12.5t33 -11.5t13 -30.5 v-29q5 -3 10 -3q18 0 42 42t76 164z"/>
<glyph unicode="Ÿ" horiz-adv-x="702" glyph-name="Ydieresis" d="M405 827q0 24 16 39.5t39 15.5t38.5 -15.5t15.5 -39.5q0 -23 -15.5 -38.5t-38.5 -15.5t-39 15.5t-16 38.5zM186 827q0 24 15.5 39.5t39.5 15.5q23 0 38.5 -15.5t15.5 -39.5q0 -23 -15.5 -38.5t-38.5 -15.5q-24 0 -39.5 15.5t-15.5 38.5zM184 654l196 -319l202 319l-77 19 v27h184v-27l-65 -19l-228 -359v-248l65 -20v-27h-227v29l65 25v240l-223 360l-63 19v27h233v-27z"/>
<glyph unicode="Ź" horiz-adv-x="639" glyph-name="Zacute" d="M239 779l144 138l57 -57l-181 -101zM56 0v27l415 637h-339l-37 -97h-34l12 133h506v-27l-415 -637h357l37 103h35l-12 -139h-525z"/>
<glyph unicode="ź" horiz-adv-x="499" glyph-name="zacute" d="M169 539l144 138l57 -57l-181 -101zM56 0v27l282 397h-214l-25 -83h-34v119h374v-27l-282 -397h226l25 83h35v-119h-387z"/>
<glyph unicode="Ż" horiz-adv-x="639" glyph-name="Zdotaccent" d="M261 847q0 25 16.5 41.5t42.5 16.5q25 0 41 -16.5t16 -41.5t-16 -41.5t-41 -16.5t-42 16.5t-17 41.5zM56 0v27l415 637h-339l-37 -97h-34l12 133h506v-27l-415 -637h357l37 103h35l-12 -139h-525z"/>
<glyph unicode="ż" horiz-adv-x="499" glyph-name="zdotaccent" d="M191 607q0 25 16.5 41.5t42.5 16.5q25 0 41 -16.5t16 -41.5t-16 -41.5t-41 -16.5t-42 16.5t-17 41.5zM56 0v27l282 397h-214l-25 -83h-34v119h374v-27l-282 -397h226l25 83h35v-119h-387z"/>
<glyph unicode="Ž" horiz-adv-x="639" glyph-name="Zcaron" d="M325 759h-11l-141 138l20 20l126 -79l126 79l21 -20zM56 0v27l415 637h-339l-37 -97h-34l12 133h506v-27l-415 -637h357l37 103h35l-12 -139h-525z"/>
<glyph unicode="ž" horiz-adv-x="499" glyph-name="zcaron" d="M255 519h-11l-141 138l20 20l126 -79l126 79l21 -20zM56 0v27l282 397h-214l-25 -83h-34v119h374v-27l-282 -397h226l25 83h35v-119h-387z"/>
<glyph unicode="ſ" horiz-adv-x="444" glyph-name="longs" d="M99 465v123q0 75 46.5 120.5t125.5 45.5q64 0 104 -29.5t40 -73.5q0 -24 -12.5 -36t-29.5 -12q-18 0 -30.5 12.5t-12.5 30.5v58q-21 16 -54 16q-39 0 -61 -34.5t-22 -96.5v-540l91 -22v-27h-245v29l60 23v372h-60v29z"/>
<glyph unicode="Ə" horiz-adv-x="747" glyph-name="uni018F" d="M345 32q91 0 158 63.5t81 183.5l-437 -19q0 -96 51.5 -162t146.5 -66zM109 579l-23 22q103 105 263 105q156 0 249 -95.5t93 -258.5q0 -164 -93.5 -261t-245.5 -97q-134 0 -215 72t-81 176q0 32 6 53l21 19h504q1 11 1 33q0 63 -14.5 117.5t-45 99.5t-83.5 71t-123 26 q-132 0 -213 -82z"/>
<glyph unicode="ƒ" horiz-adv-x="413" glyph-name="florin" d="M57 0l90 424h-75l7 29l77 12l26 123q17 75 73 120.5t135 45.5q57 0 90 -23.5t33 -60.5q0 -7 -2 -19q-5 -24 -20 -36t-31 -12t-26 9.5t-10 24.5q0 6 1 9l13 58q-18 16 -51 16q-39 0 -68.5 -34.5t-42.5 -96.5l-28 -129h170l-8 -36h-169l-91 -424q-24 -116 -85.5 -185.5 t-139.5 -69.5q-67 0 -67 46q0 8 1 12q5 23 21.5 35.5t34.5 12.5q16 0 26.5 -9.5t10.5 -25.5q0 -6 -1 -9l-6 -26q66 0 112 219z"/>
<glyph unicode="ǝ" horiz-adv-x="533" glyph-name="uni01DD" d="M250 31q54 0 93 46.5t44 112.5l-251 -8q0 -67 31.5 -109t82.5 -42zM72 223h316q-1 198 -163 198q-87 0 -132 -45l-23 23q65 65 178 65q108 0 172 -64.5t64 -171.5q0 -108 -64 -170t-164 -62q-91 0 -146.5 51t-55.5 127q0 22 4 35z"/>
<glyph unicode="Ǻ" horiz-adv-x="767" glyph-name="Aringacute" d="M338 774q0 -26 12.5 -41.5t32.5 -15.5t32.5 15.5t12.5 41.5q0 25 -12.5 40.5t-32.5 15.5t-32.5 -15.5t-12.5 -40.5zM281 854l145 138l57 -58l-181 -101zM353 601l-144 -333h287zM300 774q0 36 23 58t60 22q38 0 61 -21.5t23 -58.5q0 -64 -59 -79l282 -648l64 -20v-27 h-224v27l61 20l-79 185h-318l-80 -185l83 -20v-27h-184v27l62 20l283 648q-58 15 -58 79z"/>
<glyph unicode="ǻ" horiz-adv-x="528" glyph-name="aringacute" d="M148 655l144 138l57 -57l-181 -101zM203 565q0 -25 12.5 -40.5t32.5 -15.5t32.5 15.5t12.5 40.5t-12.5 40.5t-32.5 15.5t-32.5 -15.5t-12.5 -40.5zM165 565q0 37 23 59t60 22q38 0 61 -22t23 -59q0 -38 -23 -59.5t-61 -21.5q-37 0 -60 21.5t-23 59.5zM336 86v140 q-123 -28 -153 -44q-42 -24 -43 -73q0 -72 74 -72q71 0 122 49zM337 49l-3 4q-29 -26 -75 -42t-93 -16q-115 0 -115 107q0 67 54.5 94t230.5 66v83q0 37 -26 60.5t-70 23.5q-49 0 -90 -28v-50q0 -17 -12.5 -29.5t-29.5 -12.5t-30 12t-13 34q0 48 53 78.5t132 30.5 q82 0 130.5 -34t48.5 -89v-281q0 -24 21 -24q18 0 29 11l11 -12q-38 -38 -98 -38q-51 0 -55 52z"/>
<glyph unicode="Ǽ" horiz-adv-x="842" glyph-name="AEacute" d="M370 779l145 138l57 -57l-181 -101zM353 601l-144 -333h202zM450 40l-34 192h-222l-80 -185l83 -20v-27h-184v27l62 20l285 653h405l12 -129h-34l-37 93h-274l50 -287h160l19 70h31v-176h-31l-19 70h-155l53 -305h176l37 93h34l-11 -129h-391v24z"/>
<glyph unicode="ǽ" horiz-adv-x="761" glyph-name="aeacute" d="M299 539l145 138l57 -57l-181 -101zM422 341v-75l203 17q0 65 -31.5 105.5t-82.5 40.5q-56 0 -96 -50q7 -21 7 -38zM336 86v140q-123 -28 -153 -44q-42 -24 -43 -73q0 -72 74 -72q71 0 122 49zM334 53q-29 -26 -75 -42t-93 -16q-115 0 -115 107q0 67 54.5 94t229.5 66v83 q0 37 -25.5 60.5t-69.5 23.5q-49 0 -90 -28v-50q0 -17 -12.5 -29.5t-29.5 -12.5t-30 12t-13 34q0 48 53 78.5t132 30.5q78 0 125 -37q54 37 130 37q91 0 146 -49.5t55 -124.5q0 -20 -3 -34l-15 -14l-266 -10v-151q39 -42 117 -42q91 0 135 45l23 -23q-63 -65 -180 -65 q-118 0 -183 57z"/>
<glyph unicode="Ǿ" horiz-adv-x="783" glyph-name="Oslashacute" d="M311 779l144 138l57 -57l-181 -101zM159 349q0 -115 37 -192l372 416q-63 97 -176 97q-105 0 -169 -84.5t-64 -236.5zM624 349q0 114 -38 193l-372 -416q62 -96 178 -96q105 0 168.5 84t63.5 235zM101 0h-45l86 97q-86 95 -86 253q0 163 92.5 259.5t243.5 96.5 q136 0 224 -79l66 73h45l-87 -97q87 -96 87 -253q0 -163 -92.5 -259.5t-242.5 -96.5q-136 0 -226 79z"/>
<glyph unicode="ǿ" horiz-adv-x="565" glyph-name="oslashacute" d="M201 539l145 138l57 -57l-182 -101zM420 230q0 62 -17 107l-226 -245q37 -60 105 -60q62 0 100 52t38 146zM145 230q0 -62 17 -107l226 245q-38 61 -106 61q-62 0 -99.5 -52.5t-37.5 -146.5zM93 0h-44l59 64q-59 62 -59 166q0 108 64 171t169 63q89 0 150 -47l40 43h44 l-60 -65q60 -63 60 -165q0 -108 -64.5 -171t-169.5 -63q-90 0 -150 46z"/>
<glyph unicode="Ș" horiz-adv-x="587" glyph-name="Scommaaccent" d="M258 -250l-14 14q16 16 28.5 38.5t12.5 35.5q0 4 -2 8q-20 0 -33 12.5t-13 31.5t13 32t33 13q19 0 33 -13t14 -42q0 -61 -72 -130zM64 25l-14 140h34q16 -71 68.5 -103t120.5 -32q76 0 123 36.5t47 109.5q0 57 -36.5 83t-135.5 57q-32 10 -46 14.5t-42 15t-41 19.5 t-32 24.5t-28 33t-16 42t-7 53.5q0 85 54 136.5t170 51.5q95 0 168 -42l26 23l13 -14l14 -138h-35q-15 73 -61.5 104t-106.5 31q-70 0 -111.5 -36.5t-41.5 -100.5q0 -55 33.5 -78.5t121.5 -51.5l51 -16.5t46 -17.5t44 -22t34.5 -26t29 -34t16.5 -43t7 -55q0 -91 -59.5 -143 t-186.5 -52q-103 0 -181 42l-27 -25z"/>
<glyph unicode="ș" horiz-adv-x="446" glyph-name="scommaaccent" d="M187 -250l-14 14q15 16 27.5 38.5t12.5 35.5q0 4 -2 8q-19 0 -32.5 12.5t-13.5 31.5t13 32t33 13q19 0 33 -13t14 -42q0 -59 -71 -130zM53 18v106h34q26 -93 120 -93q49 0 79.5 21.5t30.5 63.5q0 34 -24 49t-88 31q-33 9 -45.5 12.5t-39 15.5t-37.5 24t-21 34t-10 51 q0 60 40.5 95.5t125.5 35.5q70 0 126 -31l16 17l12 -12v-104h-35q-23 94 -107 94q-44 0 -70.5 -22t-26.5 -58q0 -32 22 -46t77 -29q35 -10 49 -14.5t42.5 -17.5t40.5 -26t23 -36t11 -52q0 -131 -187 -131q-74 0 -129 27l-17 -17z"/>
<glyph unicode="Ț" horiz-adv-x="674" glyph-name="uni021A" d="M312 -250l-14 14q15 16 27.5 38.5t12.5 35.5q0 6 -2 8q-19 0 -32.5 12.5t-13.5 31.5t13.5 32t33.5 13q18 0 32 -13t14 -42q0 -59 -71 -130zM564 664h-178v-617l65 -20v-27h-227v29l65 25v610h-179l-37 -97h-34l12 133h573l12 -129h-35z"/>
<glyph unicode="ț" horiz-adv-x="390" glyph-name="uni021B" d="M191 -250l-13 14q15 16 27.5 38.5t12.5 35.5q0 4 -2 8q-19 0 -32.5 12.5t-13.5 31.5t13 32t33 13q19 0 33 -13t14 -42q0 -61 -72 -130zM39 424v20q90 33 140 126l14 -13v-97h141v-36h-141v-294q0 -45 21 -69t60 -24q41 0 64 23l19 -19q-45 -45 -120 -45q-64 0 -101 36 t-37 98v294h-60z"/>
<glyph unicode="ȷ" glyph-name="dotlessj" d="M99 0v398l-53 16v32l133 21l14 -14v-453q0 -78 -39 -146.5t-111 -110.5l-23 23q39 38 59 102.5t20 131.5z"/>
<glyph unicode="ˆ" horiz-adv-x="378" glyph-name="circumflex" d="M183 677h12l140 -138l-20 -20l-126 79l-126 -79l-20 20z"/>
<glyph unicode="ˇ" horiz-adv-x="378" glyph-name="caron" d="M195 519h-12l-140 138l20 20l126 -79l126 79l20 -20z"/>
<glyph unicode="˘" horiz-adv-x="432" glyph-name="breve" d="M281 628q0 17 12.5 30t30.5 13q17 0 29.5 -12t12.5 -34q0 -42 -46 -68t-105 -26t-105 26t-46 68q0 22 13 34t30 12t29.5 -13t12.5 -30q0 -63 66 -63t66 63z"/>
<glyph unicode="˙" horiz-adv-x="277" glyph-name="dotaccent" d="M80 607q0 25 16.5 41.5t41.5 16.5q26 0 42 -16.5t16 -41.5t-16.5 -41.5t-41.5 -16.5t-41.5 16.5t-16.5 41.5z"/>
<glyph unicode="˚" horiz-adv-x="247" glyph-name="ring" d="M78 585q0 -25 12.5 -40.5t32.5 -15.5q21 0 33 15t12 41t-12 41t-33 15q-20 0 -32.5 -15.5t-12.5 -40.5zM40 585q0 37 23 59t60 22q38 0 61 -22t23 -59q0 -38 -23 -59.5t-61 -21.5q-37 0 -60 21.5t-23 59.5z"/>
<glyph unicode="˛" horiz-adv-x="187" glyph-name="ogonek" d="M154 -161l12 -11q-48 -46 -94 -46q-62 0 -62 63q0 71 73 155h29q-25 -35 -39 -74.5t-14 -67.5q0 -41 37 -41q34 0 58 22z"/>
<glyph unicode="˜" horiz-adv-x="415" glyph-name="tilde" d="M62 537l-19 19q80 82 120 82q23 0 54.5 -23.5t56.5 -23.5q37 0 81 46l20 -19q-84 -84 -125 -84q-22 0 -53 23.5t-57 23.5q-34 0 -78 -44z"/>
<glyph unicode="˝" horiz-adv-x="453" glyph-name="hungarumlaut" d="M219 539l134 138l57 -57l-170 -101zM43 539l134 138l57 -57l-171 -101z"/>
<glyph unicode="Ѐ" horiz-adv-x="631" glyph-name="uni0400" d="M251 917l145 -138l-20 -20l-182 101zM201 36h305l37 93h34l-12 -129h-526v24l65 17v618l-65 17v24h516l12 -129h-34l-37 93h-295v-287h231l19 70h31v-176h-31l-19 70h-231v-305z"/>
<glyph unicode="Ё" horiz-adv-x="631" glyph-name="afii10023" d="M371 808q0 23 15.5 38.5t38.5 15.5t38.5 -15.5t15.5 -38.5t-15.5 -39t-38.5 -16t-38.5 16t-15.5 39zM151 808q0 23 15.5 38.5t39.5 15.5q23 0 38.5 -15.5t15.5 -38.5t-15.5 -39t-38.5 -16q-24 0 -39.5 16t-15.5 39zM201 36h305l37 93h34l-12 -129h-526v24l65 17v618 l-65 17v24h516l12 -129h-34l-37 93h-295v-287h231l19 70h31v-176h-31l-19 70h-231v-305z"/>
<glyph unicode="Ђ" horiz-adv-x="791" glyph-name="afii10051" d="M645 79v161q0 132 -106 132q-35 0 -79.5 -14.5t-73.5 -41.5v-269l65 -20v-27h-227v29l65 25v610h-179l-37 -97h-34l12 133h573l12 -129h-35l-37 93h-178v-261l-3 -47l3 -4q36 29 95 46t106 17q77 0 116 -46.5t39 -124.5v-165q0 -116 -47.5 -184t-126.5 -68q-43 0 -62 17 t-19 41q0 23 14 36t32 13t31.5 -12.5t13.5 -32.5v-25q67 0 67 215z"/>
<glyph unicode="Ѓ" horiz-adv-x="583" glyph-name="afii10052" d="M201 664v-612l95 -25v-27h-257v29l65 25v605l-65 17v24h489l12 -129h-34l-37 93h-268zM215 779l145 138l57 -57l-182 -101z"/>
<glyph unicode="Є" horiz-adv-x="718" glyph-name="afii10053" d="M638 121l22 -22q-102 -105 -262 -105q-157 0 -249.5 95.5t-92.5 258.5q0 165 93.5 261.5t249.5 96.5q116 0 200 -51l31 17l14 -14l13 -133h-34q-12 43 -38 73.5t-58.5 44.5t-60.5 19.5t-56 5.5q-118 0 -181 -76t-70 -218h349v-36h-349q2 -139 69 -219t195 -80 q134 0 215 82z"/>
<glyph unicode="Ѕ" horiz-adv-x="587" glyph-name="afii10054" d="M64 25l-14 140h34q16 -71 68.5 -103t120.5 -32q76 0 123 36.5t47 109.5q0 57 -36.5 83t-135.5 57q-32 10 -46 14.5t-42 15t-41 19.5t-32 24.5t-28 33t-16 42t-7 53.5q0 85 54 136.5t170 51.5q95 0 168 -42l26 23l13 -14l14 -138h-35q-15 73 -61.5 104t-106.5 31 q-70 0 -111.5 -36.5t-41.5 -100.5q0 -55 33.5 -78.5t121.5 -51.5l51 -16.5t46 -17.5t44 -22t34.5 -26t29 -34t16.5 -43t7 -55q0 -91 -59.5 -143t-186.5 -52q-103 0 -181 42l-27 -25z"/>
<glyph unicode="І" horiz-adv-x="305" glyph-name="afii10055" d="M200 651v-604l65 -20v-27h-225v29l65 25v598l-65 21v27h225v-27z"/>
<glyph unicode="Ї" horiz-adv-x="305" glyph-name="afii10056" d="M190 827q0 24 16 39.5t39 15.5t38.5 -15.5t15.5 -39.5q0 -23 -15.5 -38.5t-38.5 -15.5t-39 15.5t-16 38.5zM7 827q0 24 15.5 39.5t38.5 15.5q24 0 39.5 -15.5t15.5 -39.5q0 -23 -15.5 -38.5t-39.5 -15.5q-23 0 -38.5 15.5t-15.5 38.5zM200 651v-604l65 -20v-27h-225v29 l65 25v598l-65 21v27h225v-27z"/>
<glyph unicode="Ј" horiz-adv-x="305" glyph-name="afii10057" d="M105 0v652l-65 21v27h225v-27l-65 -22v-651q0 -78 -39.5 -146.5t-112.5 -110.5l-23 23q39 38 59.5 102.5t20.5 131.5z"/>
<glyph unicode="Љ" horiz-adv-x="1069" glyph-name="afii10058" d="M633 36h116q73 0 117 41t44 118t-44 118t-117 41h-116v-318zM185 152l62 507l-65 17v24h516v-24l-65 -19v-267h129q113 0 182 -52.5t69 -142.5t-69 -142.5t-182 -52.5h-291v24l65 17v623h-250l-62 -509q-16 -159 -104 -159q-33 0 -57.5 16.5t-24.5 49.5q0 23 12.5 36.5 t33.5 13.5q20 0 33 -11.5t13 -30.5v-27q3 -2 8 -2q7 0 15 8t17.5 34.5t14.5 68.5z"/>
<glyph unicode="Њ" horiz-adv-x="1090" glyph-name="afii10059" d="M653 36h116q73 0 117.5 40.5t44.5 114.5q0 75 -44.5 115t-117.5 40h-116v-310zM39 29l65 25v598l-65 21v27h227v-27l-65 -22v-269h355v270l-65 21v27h227v-27l-65 -22v-269h130q113 0 182 -51t69 -140q0 -88 -69 -139.5t-182 -51.5h-292v24l65 17v305h-355v-299l65 -20 v-27h-227v29z"/>
<glyph unicode="Ћ" horiz-adv-x="847" glyph-name="afii10060" d="M386 316v-269l65 -20v-27h-227v29l65 25v610h-179l-37 -97h-34l12 133h573l12 -129h-35l-37 93h-178v-261l-3 -47l3 -4q36 29 95 46t106 17q77 0 116 -46t39 -118v-204l65 -20v-27h-230v29l68 25v191q0 59 -28.5 93t-78.5 34q-35 0 -79 -15t-73 -41z"/>
<glyph unicode="Ќ" horiz-adv-x="705" glyph-name="afii10061" d="M273 779l145 138l57 -57l-181 -101zM670 58l11 -13q-23 -26 -46 -38.5t-61 -12.5q-50 0 -78 25.5t-45 90.5l-34 129q-16 59 -59 83t-118 24h-42v-299l65 -20v-27h-227v29l65 25v598l-65 21v27h227v-27l-65 -22v-272q83 0 120 26t55 82l33 102q20 60 51 88.5t80 28.5 q40 0 63.5 -18.5t23.5 -50.5q0 -22 -12 -37t-35 -15q-21 0 -35 12.5t-14 34.5v25q-4 3 -10 3q-52 0 -79 -90l-30 -96q-23 -75 -71 -101q83 -7 122.5 -36t56.5 -91l33 -130q12 -45 28.5 -61t41.5 -16q33 0 50 19z"/>
<glyph unicode="Ѝ" horiz-adv-x="766" glyph-name="uni040D" d="M39 29l65 25v598l-65 21v27h227v-27l-65 -22v-515l364 496v20l-65 21v27h227v-27l-65 -22v-604l65 -20v-27h-227v29l65 25v510l-364 -497v-20l65 -20v-27h-227v29zM319 917l144 -138l-20 -20l-181 101z"/>
<glyph unicode="Ў" horiz-adv-x="711" glyph-name="afii10062" d="M337 209l-253 445l-65 19v27h227v-27l-62 -19l202 -360l202 360l-83 19v27h187v-27l-62 -19l-234 -414q-86 -152 -125 -199t-90 -47q-37 0 -63 18t-26 54q0 26 14.5 38.5t34.5 12.5q22 0 35.5 -13t13.5 -34v-34q4 -2 10 -2q21 0 52.5 40t84.5 135zM425 804v45 q0 17 12.5 29.5t30.5 12.5q17 0 29.5 -12t12.5 -34q0 -41 -46 -67t-105 -26t-104.5 26t-45.5 68q0 21 12.5 33t29.5 12q18 0 30.5 -12.5t12.5 -29.5v-45q25 -19 65 -19t66 19z"/>
<glyph unicode="Џ" horiz-adv-x="754" glyph-name="afii10145" d="M346 0h-307v24l65 17v611l-65 21v27h227v-27l-65 -22v-615h352v616l-65 21v27h226v-27l-65 -22v-610l65 -16v-25h-306l-13 -137h-36z"/>
<glyph unicode="А" horiz-adv-x="767" glyph-name="afii10017" d="M353 601l-144 -333h287zM406 700l284 -653l64 -20v-27h-224v27l61 20l-79 185h-318l-80 -185l83 -20v-27h-184v27l62 20l285 653h46z"/>
<glyph unicode="Б" horiz-adv-x="657" glyph-name="afii10018" d="M201 36h136q73 0 117 42t44 119q0 78 -44 119.5t-117 41.5h-136v-322zM201 664v-270h149q113 0 182 -53t69 -144t-69 -144t-182 -53h-311v24l65 17v618l-65 17v24h500l12 -129h-35l-37 93h-278z"/>
<glyph unicode="В" horiz-adv-x="662" glyph-name="afii10019" d="M327 664h-126v-287h126q67 0 107.5 37t40.5 106t-40.5 106.5t-107.5 37.5zM201 36h126q80 0 128 39.5t48 112.5q0 74 -48 113.5t-128 39.5h-126v-305zM39 700h301q106 0 171.5 -47.5t65.5 -128.5q0 -61 -37 -103.5t-103 -60.5q79 -18 124 -63t45 -112q0 -85 -73.5 -135 t-192.5 -50h-301v24l65 17v618l-65 17v24z"/>
<glyph unicode="Г" horiz-adv-x="583" glyph-name="afii10020" d="M201 664v-612l95 -25v-27h-257v29l65 25v605l-65 17v24h489l12 -129h-34l-37 93h-268z"/>
<glyph unicode="Д" horiz-adv-x="758" glyph-name="afii10021" d="M270 664l-61 -509q-10 -82 -35 -119h368v628h-272zM654 0h-553l-27 -137h-36v173h82q32 20 43 116l62 507l-65 17v24h544v-24l-65 -19v-621h78v-173h-36z"/>
<glyph unicode="Е" horiz-adv-x="631" glyph-name="afii10022" d="M201 36h305l37 93h34l-12 -129h-526v24l65 17v618l-65 17v24h516l12 -129h-34l-37 93h-295v-287h231l19 70h31v-176h-31l-19 70h-231v-305z"/>
<glyph unicode="Ж" horiz-adv-x="1063" glyph-name="afii10024" d="M171 657v-25q0 -22 -14 -34.5t-35 -12.5q-23 0 -34.5 15t-11.5 37q0 32 23 50.5t62 18.5q44 0 71.5 -27t52.5 -90l39 -99q22 -58 54.5 -84.5t104.5 -26.5v273l-65 21v27h227v-27l-65 -22v-272q72 0 104.5 26.5t54.5 84.5l39 99q25 63 52.5 90t71.5 27q39 0 62.5 -18.5 t23.5 -50.5q0 -22 -12 -37t-35 -15q-21 0 -35 12.5t-14 34.5v25q-5 3 -10 3q-37 0 -74 -90l-36 -92q-32 -78 -71 -104q85 -5 123.5 -31t57.5 -89l41 -138q13 -45 26 -61t37 -16q29 0 48 19l11 -13q-23 -26 -45 -38.5t-58 -12.5q-46 0 -70 25.5t-43 90.5l-42 138 q-17 57 -55 77.5t-111 20.5h-41v-299l65 -20v-27h-227v29l65 25v292h-40q-73 0 -111.5 -20.5t-55.5 -77.5l-42 -138q-19 -65 -43 -90.5t-70 -25.5q-36 0 -58 12.5t-45 38.5l11 13q19 -19 48 -19q24 0 37 16t26 61l41 138q18 63 57 89t124 31q-41 26 -71 104l-36 92 q-37 90 -74 90q-5 0 -10 -3z"/>
<glyph unicode="З" horiz-adv-x="630" glyph-name="afii10025" d="M98 532h-34l14 133l13 13l31 -17q76 45 183 45q108 0 174 -48.5t66 -132.5q0 -64 -38 -106t-102 -59q79 -18 124 -63t45 -113q0 -87 -74.5 -138.5t-193.5 -51.5q-113 0 -191 45l-32 -18l-13 14l-14 133h34q11 -41 34.5 -69.5t53.5 -42t57 -19t55 -5.5q83 0 132 41t49 117 q0 75 -50 113t-141 38q-40 0 -94 -3v43q47 -4 92 -4q165 0 165 140q0 73 -41 112t-113 39q-26 0 -52.5 -6t-55 -20t-51 -42.5t-32.5 -67.5z"/>
<glyph unicode="И" horiz-adv-x="766" glyph-name="afii10026" d="M39 29l65 25v598l-65 21v27h227v-27l-65 -22v-515l364 496v20l-65 21v27h227v-27l-65 -22v-604l65 -20v-27h-227v29l65 25v510l-364 -497v-20l65 -20v-27h-227v29z"/>
<glyph unicode="Й" horiz-adv-x="766" glyph-name="afii10027" d="M39 29l65 25v598l-65 21v27h227v-27l-65 -22v-515l364 496v20l-65 21v27h227v-27l-65 -22v-604l65 -20v-27h-227v29l65 25v510l-364 -497v-20l65 -20v-27h-227v29zM448 804v45q0 17 13 29.5t31 12.5q16 0 28.5 -12t12.5 -34q0 -41 -45.5 -67t-104.5 -26t-105 26t-46 68 q0 21 13 33t29 12q18 0 30.5 -12.5t12.5 -29.5v-45q26 -19 66 -19t65 19z"/>
<glyph unicode="К" horiz-adv-x="703" glyph-name="afii10028" d="M670 58l11 -13q-23 -26 -46 -38.5t-61 -12.5q-50 0 -78 25.5t-45 90.5l-34 129q-16 59 -59 83t-118 24h-42v-299l65 -20v-27h-227v29l65 25v598l-65 21v27h227v-27l-65 -22v-272q83 0 120 26t55 82l33 102q20 60 51 88.5t80 28.5q40 0 63.5 -18.5t23.5 -50.5 q0 -22 -12 -37t-35 -15q-21 0 -35 12.5t-14 34.5v25q-4 3 -10 3q-52 0 -79 -90l-30 -96q-23 -75 -71 -101q83 -7 122.5 -36t56.5 -91l33 -130q12 -45 28.5 -61t41.5 -16q33 0 50 19z"/>
<glyph unicode="Л" horiz-adv-x="754" glyph-name="afii10029" d="M185 152l62 507l-65 17v24h532v-24l-65 -19v-610l65 -20v-27h-226v29l65 25v610h-261l-61 -509q-18 -159 -111 -159q-33 0 -57.5 16.5t-24.5 49.5q0 23 12.5 36.5t33.5 13.5q20 0 33 -11.5t13 -30.5v-27q3 -2 8 -2q7 0 15 8t17.5 34.5t14.5 68.5z"/>
<glyph unicode="М" horiz-adv-x="938" glyph-name="afii10030" d="M802 651l46 -604l65 -20v-27h-227v29l65 25l-39 519l-249 -573h-46l-250 573l-42 -534l65 -21v-18h-166v20l65 25l47 607l-64 21v27h139l258 -601l260 601h138v-27z"/>
<glyph unicode="Н" horiz-adv-x="779" glyph-name="afii10031" d="M39 29l65 25v598l-65 21v27h227v-27l-65 -22v-279h377v280l-65 21v27h226v-27l-65 -22v-604l65 -20v-27h-226v29l65 25v282h-377v-289l65 -20v-27h-227v29z"/>
<glyph unicode="О" horiz-adv-x="783" glyph-name="afii10032" d="M159 349q0 -151 64 -235t169 -84t168.5 84t63.5 235q0 152 -63.5 236.5t-168.5 84.5t-169 -84.5t-64 -236.5zM56 350q0 163 92.5 259.5t243.5 96.5q150 0 242.5 -96.5t92.5 -259.5t-92.5 -259.5t-242.5 -96.5q-151 0 -243.5 96.5t-92.5 259.5z"/>
<glyph unicode="П" horiz-adv-x="752" glyph-name="afii10033" d="M39 29l65 25v605l-65 17v24h674v-24l-65 -19v-610l65 -20v-27h-227v29l65 25v610h-350v-617l65 -20v-27h-227v29z"/>
<glyph unicode="Р" horiz-adv-x="629" glyph-name="afii10034" d="M302 664h-101v-612l95 -25v-27h-257v29l65 25v605l-65 17v24h277q112 0 181.5 -54.5t69.5 -147.5t-69.5 -147.5t-181.5 -54.5h-68l-14 14v22h68q73 0 117.5 43t44.5 123t-44.5 123t-117.5 43z"/>
<glyph unicode="С" horiz-adv-x="718" glyph-name="afii10035" d="M638 121l22 -22q-102 -105 -262 -105q-157 0 -249.5 95.5t-92.5 258.5q0 165 93.5 261.5t249.5 96.5q113 0 197 -51l34 20l14 -13l13 -137h-34q-48 143 -206 143q-124 0 -191 -81.5t-67 -234.5q0 -144 67.5 -228.5t197.5 -84.5q133 0 214 82z"/>
<glyph unicode="Т" horiz-adv-x="674" glyph-name="afii10036" d="M564 664h-178v-617l65 -20v-27h-227v29l65 25v610h-179l-37 -97h-34l12 133h573l12 -129h-35z"/>
<glyph unicode="У" horiz-adv-x="711" glyph-name="afii10037" d="M337 209l-253 445l-65 19v27h227v-27l-62 -19l202 -360l202 360l-83 19v27h187v-27l-62 -19l-234 -414q-86 -152 -125 -199t-90 -47q-37 0 -63 18t-26 54q0 26 14.5 38.5t34.5 12.5q22 0 35.5 -13t13.5 -34v-34q4 -2 10 -2q21 0 52.5 40t84.5 135z"/>
<glyph unicode="Ф" horiz-adv-x="877" glyph-name="afii10038" d="M487 578v-452q105 0 168 58.5t63 166.5t-63 167.5t-168 59.5zM390 126v452q-105 0 -168 -59t-63 -168q0 -108 63 -166.5t168 -58.5zM487 651v-38q151 0 242.5 -70t91.5 -192q0 -121 -91.5 -191t-242.5 -70v-43l65 -20v-27h-227v29l65 25v36q-151 0 -242.5 70t-91.5 192 q0 121 91.5 191t242.5 70v39l-65 21v27h227v-27z"/>
<glyph unicode="Х" horiz-adv-x="743" glyph-name="afii10039" d="M551 46l-207 275l-214 -275l77 -19v-27h-186v27l65 19l238 301l-229 307l-63 19v27h234v-27l-62 -19l192 -257l201 257l-78 19v27h186v-27l-65 -19l-225 -284l244 -324l63 -19v-27h-234v27z"/>
<glyph unicode="Ц" horiz-adv-x="756" glyph-name="afii10040" d="M661 0h-622v24l65 17v611l-65 21v27h227v-27l-65 -22v-615h348v616l-65 21v27h227v-27l-65 -22v-615h78v-173h-36z"/>
<glyph unicode="Ч" horiz-adv-x="722" glyph-name="afii10041" d="M201 651v-181q0 -142 132 -142q42 0 97.5 12.5t90.5 35.5v276l-65 21v27h227v-27l-65 -22v-604l65 -20v-27h-227v29l65 25v284q-41 -24 -109 -38.5t-122 -14.5q-95 0 -140.5 49.5t-45.5 133.5v184l-65 21v27h226v-27z"/>
<glyph unicode="Ш" horiz-adv-x="1096" glyph-name="afii10042" d="M39 24l65 17v611l-65 21v27h227v-27l-65 -22v-615h299v616l-65 21v27h226v-27l-65 -22v-615h299v616l-65 21v27h227v-27l-65 -22v-610l65 -16v-25h-1018v24z"/>
<glyph unicode="Щ" horiz-adv-x="1101" glyph-name="afii10043" d="M1007 0h-968v24l65 17v611l-65 21v27h227v-27l-65 -22v-615h299v616l-65 21v27h226v-27l-65 -22v-615h299v616l-65 21v27h227v-27l-65 -22v-615h78v-173h-36z"/>
<glyph unicode="Ъ" horiz-adv-x="793" glyph-name="afii10044" d="M356 36h116q73 0 117.5 41t44.5 118t-44 118t-118 41h-116v-318zM356 657v-267h130q113 0 182 -52.5t69 -142.5t-69 -142.5t-182 -52.5h-292v24l65 17v623h-149l-37 -97h-34l12 133h370v-24z"/>
<glyph unicode="Ы" horiz-adv-x="900" glyph-name="afii10045" d="M795 651v-604l65 -20v-27h-226v29l65 25v598l-65 21v27h226v-27zM201 36h116q73 0 117.5 41t44.5 118t-44.5 118t-117.5 41h-116v-318zM201 651v-261h130q112 0 181.5 -52.5t69.5 -142.5t-69.5 -142.5t-181.5 -52.5h-292v24l65 17v611l-65 21v27h227v-27z"/>
<glyph unicode="Ь" horiz-adv-x="638" glyph-name="afii10046" d="M201 36h116q73 0 117.5 41t44.5 118t-44.5 118t-117.5 41h-116v-318zM201 651v-261h130q112 0 181.5 -52.5t69.5 -142.5t-69.5 -142.5t-181.5 -52.5h-292v24l65 17v611l-65 21v27h227v-27z"/>
<glyph unicode="Э" horiz-adv-x="718" glyph-name="afii10047" d="M564 338h-333v36h333q-7 143 -71 218.5t-178 75.5q-29 0 -57.5 -5.5t-61.5 -19.5t-58.5 -44.5t-37.5 -73.5h-35l14 133l13 14l32 -17q84 51 200 51q156 0 249.5 -96.5t93.5 -260.5t-94 -259.5t-252 -95.5q-119 0 -203 51l-32 -17l-14 13l-13 134h34q15 -55 55.5 -89 t80.5 -44t83 -10q120 0 184.5 79t67.5 227z"/>
<glyph unicode="Ю" horiz-adv-x="1025" glyph-name="afii10048" d="M454 349q0 -151 56.5 -235t150.5 -84q92 0 148.5 84t56.5 235q0 152 -56.5 236.5t-148.5 84.5q-94 0 -150.5 -84.5t-56.5 -236.5zM39 29l65 25v598l-65 21v27h227v-27l-65 -22v-279h150q7 154 91.5 244t217.5 90q139 0 224 -96.5t85 -259.5t-85 -259.5t-224 -96.5 q-135 0 -220 92t-89 250h-150v-289l65 -20v-27h-227v29z"/>
<glyph unicode="Я" horiz-adv-x="671" glyph-name="afii10049" d="M470 664h-126q-68 0 -109 -39.5t-41 -112.5t41 -112.5t109 -39.5h126v304zM19 45l11 13q17 -19 48 -19q18 0 29.5 14.5t27.5 56.5l48 129q14 38 33 60t50 34q-83 14 -129 62t-46 119q0 85 65 135.5t170 50.5h306v-24l-65 -19v-610l65 -20v-27h-227v29l65 25v270h-40 q-63 0 -98 -21t-55 -74l-45 -129q-22 -60 -45.5 -83t-63.5 -23q-36 0 -58.5 13t-45.5 38z"/>
<glyph unicode="а" horiz-adv-x="528" glyph-name="afii10065" d="M336 86v140q-122 -28 -152 -44q-42 -24 -43 -73q0 -72 74 -72q70 0 121 49zM338 49l-3 4q-29 -26 -75 -42t-93 -16q-115 0 -115 107q0 18 3 32.5t12.5 27t18 21t30.5 18t37 15.5t50.5 15t59 14.5t73.5 16.5v83q0 37 -25.5 60.5t-69.5 23.5q-49 0 -90 -28v-50 q0 -17 -12.5 -29.5t-30.5 -12.5q-17 0 -29.5 12t-12.5 34q0 48 52.5 78.5t131.5 30.5q83 0 131.5 -34t48.5 -89v-281q0 -24 21 -24q18 0 29 11l11 -12q-38 -38 -98 -38q-51 0 -55 52z"/>
<glyph unicode="б" horiz-adv-x="575" glyph-name="afii10066" d="M162 230q0 -95 36.5 -146.5t97.5 -51.5q60 0 97 52t37 146t-37 146.5t-97 52.5q-61 0 -97.5 -52t-36.5 -147zM133 390h4q50 74 161 74q105 0 166.5 -62.5t61.5 -171.5t-62 -171.5t-171 -62.5t-169 73t-60 242q0 108 26 186t65.5 117t90 64t95 33t85 19.5t55.5 26.5 l13 -14q-18 -40 -48.5 -64.5t-63.5 -34t-68.5 -16.5t-67.5 -18.5t-57.5 -34t-40.5 -69t-15 -116.5z"/>
<glyph unicode="в" horiz-adv-x="536" glyph-name="afii10067" d="M193 257h100q38 0 60.5 22t22.5 62t-22.5 61.5t-60.5 21.5h-100v-167zM293 221h-100v-185h100q48 0 77 24t29 68t-29 68.5t-77 24.5zM39 460h270q73 0 118 -31t45 -84q0 -39 -24 -66.5t-65 -39.5q52 -12 82 -42t30 -73q0 -57 -51.5 -90.5t-134.5 -33.5h-270v26l60 20v368 l-60 20v26z"/>
<glyph unicode="г" horiz-adv-x="466" glyph-name="afii10068" d="M366 424h-173v-375l91 -22v-27h-245v29l60 23v369l-60 15v24h386v-119h-34z"/>
<glyph unicode="д" horiz-adv-x="583" glyph-name="afii10069" d="M219 424l-33 -269q-10 -84 -37 -119h239v388h-169zM483 0h-383l-27 -122h-35v158h66q32 23 43 116l33 269l-60 15v24h421v-24l-60 -17v-383h63v-158h-34z"/>
<glyph unicode="е" horiz-adv-x="533" glyph-name="afii10070" d="M282 429q-54 0 -93 -45t-44 -109l251 8q0 65 -31.5 105.5t-82.5 40.5zM460 242h-316q1 -108 43 -155.5t123 -47.5q91 0 135 45l23 -23q-63 -65 -182 -65q-110 0 -174 64t-64 171q0 108 64 170.5t164 62.5q91 0 146 -49.5t55 -124.5q0 -20 -3 -34z"/>
<glyph unicode="ж" horiz-adv-x="834" glyph-name="afii10072" d="M687 391v24q-3 2 -9 2q-24 0 -46 -52l-24 -56q-14 -34 -36 -56q55 -5 85.5 -23.5t42.5 -58.5l28 -95q8 -24 17 -33t25 -9q22 0 32 12l12 -12q-31 -38 -90 -38q-36 0 -57 17.5t-33 58.5l-26 91q-10 34 -39.5 45.5t-80.5 11.5h-24v-174l60 -19v-27h-214v29l60 23v168h-24 q-51 0 -80 -11.5t-39 -45.5l-27 -91q-12 -41 -33 -58.5t-57 -17.5q-59 0 -90 38l12 12q12 -12 32 -12q16 0 25.5 9t16.5 33l28 95q12 39 42.5 58t84.5 24q-22 22 -35 56l-24 56q-22 52 -45 52q-6 0 -9 -2v-24q0 -18 -12 -28.5t-31 -10.5q-20 0 -31.5 13t-11.5 36q0 31 21 46 t55 15q31 0 53 -17t41 -60l28 -65q14 -32 38 -47.5t72 -15.5v157l-60 19v27h214v-27l-60 -21v-155q48 0 71.5 15.5t38.5 47.5l29 65q18 41 40 59t55 18t54 -15t21 -46q0 -23 -11.5 -36t-31.5 -13q-19 0 -31 10.5t-12 28.5z"/>
<glyph unicode="з" horiz-adv-x="478" glyph-name="afii10073" d="M170 218v44q28 -4 57 -4q93 0 93 84q0 42 -23.5 64.5t-65.5 22.5q-43 0 -77.5 -24.5t-46.5 -78.5h-34v114l12 11l18 -17q59 30 133 30q81 0 130.5 -31.5t49.5 -86.5q0 -79 -92 -106q53 -12 83 -42t30 -74q0 -59 -54.5 -93.5t-142.5 -34.5q-80 0 -133 26.5t-53 72.5 q0 22 12 33t29 11t29 -12t12 -29v-42q37 -25 96 -25q50 0 79.5 25t29.5 71t-29.5 70.5t-80.5 24.5q-21 0 -61 -4z"/>
<glyph unicode="и" horiz-adv-x="614" glyph-name="afii10074" d="M39 29l60 23v362l-60 19v27h210v-27l-56 -19v-249l-3 -46l3 -3l228 283v15l-57 19v27h210v-27l-60 -21v-366l60 -19v-27h-210v27l57 24v244l3 46l-3 3l-228 -283v-15l56 -19v-27h-210v29z"/>
<glyph unicode="й" horiz-adv-x="614" glyph-name="afii10075" d="M39 29l60 23v362l-60 19v27h210v-27l-56 -19v-249l-3 -46l3 -3l228 283v15l-57 19v27h210v-27l-60 -21v-366l60 -19v-27h-210v27l57 24v244l3 46l-3 3l-228 -283v-15l56 -19v-27h-210v29zM372 584v44q0 18 13 30.5t31 12.5q16 0 28.5 -12t12.5 -34q0 -42 -45.5 -68 t-104.5 -26t-105 26t-46 68q0 22 12.5 34t29.5 12q18 0 30.5 -13t12.5 -30v-44q24 -19 66 -19t65 19z"/>
<glyph unicode="к" horiz-adv-x="580" glyph-name="afii10076" d="M432 391v24q-3 2 -9 2q-25 0 -49 -52l-25 -56q-18 -39 -39 -56q57 -5 89 -24t44 -58l27 -91q8 -27 17 -36.5t26 -9.5q24 0 34 12l12 -12q-33 -38 -94 -38q-36 0 -57.5 17t-33.5 59l-27 91q-11 34 -43 45.5t-86 11.5h-25v-174l60 -19v-27h-214v29l60 23v362l-60 19v27h214 v-27l-60 -21v-155q51 0 77.5 15t41.5 48l29 65q19 40 41.5 58.5t58.5 18.5q34 0 56 -15t22 -46q0 -22 -11.5 -35.5t-31.5 -13.5q-19 0 -31.5 10.5t-12.5 28.5z"/>
<glyph unicode="л" horiz-adv-x="590" glyph-name="afii10077" d="M176 152l33 269l-60 15v24h401v-24l-60 -17v-373l60 -19v-27h-208v27l55 24v373h-149l-33 -269q-17 -159 -105 -159q-30 0 -53 16t-23 46q0 22 12 35t31 13t31.5 -10.5t12.5 -28.5v-24q2 -2 8 -2q7 0 15 8t17.5 34.5t14.5 68.5z"/>
<glyph unicode="м" horiz-adv-x="700" glyph-name="afii10078" d="M589 412l24 -366l60 -19v-27h-214v29l60 23l-19 297l-156 -349h-42l-157 349l-20 -310l60 -19v-20h-157v22l60 23l23 369l-60 19v27h140l158 -362l162 362h138v-27z"/>
<glyph unicode="н" horiz-adv-x="615" glyph-name="afii10079" d="M39 29l60 23v362l-60 19v27h208v-27l-54 -19v-162h228v162l-54 19v27h208v-27l-60 -21v-366l60 -19v-27h-208v27l54 24v165h-228v-170l54 -19v-27h-208v29z"/>
<glyph unicode="о" horiz-adv-x="565" glyph-name="afii10080" d="M145 230q0 -94 37.5 -146t99.5 -52t100 52t38 146q0 95 -38 147t-100 52t-99.5 -52.5t-37.5 -146.5zM49 230q0 108 64 171t169 63t169.5 -63t64.5 -171t-64.5 -171t-169.5 -63t-169 63t-64 171z"/>
<glyph unicode="п" horiz-adv-x="615" glyph-name="afii10081" d="M39 29l60 23v369l-60 15v24h536v-24l-60 -17v-373l60 -19v-27h-208v27l54 24v373h-228v-378l54 -19v-27h-208v29z"/>
<glyph unicode="р" horiz-adv-x="587" glyph-name="afii10082" d="M193 372v-310q40 -32 105 -32q67 0 105.5 51.5t38.5 148.5q0 92 -35 141.5t-98 49.5q-77 0 -116 -49zM39 -250v29l60 24v595l-53 16v32l133 21l14 -14l-3 -43l3 -3q26 27 69.5 42t87.5 15q90 0 139 -63t49 -166q0 -114 -61.5 -176.5t-168.5 -62.5q-72 0 -115 27v-224 l91 -22v-27h-245z"/>
<glyph unicode="с" horiz-adv-x="530" glyph-name="afii10083" d="M387 350v53q-36 26 -95 26q-70 0 -108.5 -50t-38.5 -140q0 -98 45 -149t125 -51q88 0 133 45l23 -23q-65 -65 -184 -65q-109 0 -173.5 62.5t-64.5 172.5q0 109 63 171t176 62q78 0 131 -28.5t53 -78.5q0 -24 -12.5 -36.5t-29.5 -12.5q-18 0 -30.5 12.5t-12.5 29.5z"/>
<glyph unicode="т" horiz-adv-x="535" glyph-name="afii10084" d="M434 424h-120v-378l60 -19v-27h-213v29l60 23v372h-121l-25 -83h-34v119h453v-119h-34z"/>
<glyph unicode="у" horiz-adv-x="579" glyph-name="afii10085" d="M269 -3l-193 417l-60 19v27h211v-27l-56 -19l146 -315l147 315l-78 19v27h177v-27l-57 -19l-194 -414q-75 -160 -106.5 -207t-77.5 -47q-33 0 -56.5 17.5t-23.5 51.5q0 25 13.5 37.5t33.5 12.5t33 -11.5t13 -30.5v-29q5 -3 10 -3q18 0 42 42t76 164z"/>
<glyph unicode="ф" horiz-adv-x="789" glyph-name="afii10086" d="M520 421q-45 0 -79 -23v-354q33 -14 68 -14q63 0 98.5 51t35.5 149q0 92 -32.5 141.5t-90.5 49.5zM268 39q47 0 79 22v353q-35 15 -69 15q-62 0 -97.5 -51.5t-35.5 -148.5q0 -92 32.5 -141t90.5 -49zM441 432q51 32 118 32q86 0 133 -63t47 -165q0 -114 -58 -177 t-160 -63q-46 0 -80 14v-214l60 -19v-27h-214v29l60 24v197l3 25l-3 3q-51 -32 -119 -32q-86 0 -132.5 63t-46.5 165q0 115 58 177.5t159 62.5q45 0 81 -14v237l-53 17v32l133 20l14 -13v-283l-3 -25z"/>
<glyph unicode="х" horiz-adv-x="569" glyph-name="afii10087" d="M383 46l-125 153l-128 -153l73 -19v-27h-176v27l59 19l152 179l-154 189l-53 19v27h215v-27l-57 -19l119 -146l124 146l-73 19v27h176v-27l-59 -19l-148 -172l160 -196l54 -19v-27h-215v27z"/>
<glyph unicode="ц" horiz-adv-x="610" glyph-name="afii10088" d="M510 0h-471v26l60 20v368l-60 19v27h208v-27l-54 -21v-376h222v378l-55 19v27h208v-27l-60 -21v-376h63v-158h-34z"/>
<glyph unicode="ч" horiz-adv-x="596" glyph-name="afii10089" d="M193 414v-102q0 -47 22 -73t62 -26q29 0 65.5 12.5t60.5 35.5v153l-53 19v27h206v-27l-60 -21v-366l60 -19v-27h-208v27l55 24v172q-29 -25 -79 -39t-91 -14q-67 0 -100.5 39t-33.5 101v104l-60 19v27h205v-27z"/>
<glyph unicode="ш" horiz-adv-x="858" glyph-name="afii10090" d="M382 414l-53 19v27h199v-27l-53 -21v-376h190v378l-53 19v27h206v-27l-60 -21v-373l60 -15v-24h-779v26l60 20v368l-60 19v27h207v-27l-53 -21v-376h189v378z"/>
<glyph unicode="щ" horiz-adv-x="859" glyph-name="afii10091" d="M760 0h-721v26l60 20v368l-60 19v27h207v-27l-53 -21v-376h189v378l-53 19v27h199v-27l-53 -21v-376h190v378l-53 19v27h206v-27l-60 -21v-376h64v-158h-35z"/>
<glyph unicode="ъ" horiz-adv-x="613" glyph-name="afii10092" d="M377 233h-84v-197h84q45 0 72 25.5t27 72.5t-27 73t-72 26zM353 460v-27l-60 -21v-143h100q80 0 129.5 -36.5t49.5 -98.5q0 -61 -49.5 -97.5t-129.5 -36.5h-253v26l60 20v378h-100l-25 -83h-35v119h313z"/>
<glyph unicode="ы" horiz-adv-x="753" glyph-name="afii10093" d="M653 412v-366l60 -19v-27h-213v29l60 23v362l-60 19v27h213v-27zM277 233h-84v-197h84q45 0 71.5 25.5t26.5 72.5t-27 73t-71 26zM293 0h-254v26l60 20v368l-60 19v27h214v-27l-60 -21v-143h100q80 0 129 -36.5t49 -98.5t-49 -98t-129 -36z"/>
<glyph unicode="ь" horiz-adv-x="509" glyph-name="afii10094" d="M277 233h-84v-197h84q45 0 71.5 25.5t26.5 72.5t-27 73t-71 26zM293 0h-254v26l60 20v368l-60 19v27h214v-27l-60 -21v-143h100q80 0 129 -36.5t49 -98.5t-49 -98t-129 -36z"/>
<glyph unicode="э" horiz-adv-x="525" glyph-name="afii10095" d="M182 218v36h196q-4 84 -43.5 129.5t-106.5 45.5q-102 0 -124 -103h-34v114l12 11l17 -17q59 30 133 30q115 0 179 -62t64 -171q0 -110 -63 -172.5t-174 -62.5q-77 0 -130.5 28t-53.5 74q0 22 12 33.5t29 11.5t29 -12.5t12 -29.5v-43q40 -27 98 -27q68 0 106 49t39 138 h-197z"/>
<glyph unicode="ю" horiz-adv-x="788" glyph-name="afii10096" d="M391 230q0 -94 34.5 -146t91.5 -52q56 0 90.5 52t34.5 146t-34.5 146.5t-90.5 52.5q-57 0 -91.5 -52t-34.5 -147zM39 29l60 23v362l-60 19v27h208v-27l-54 -19v-162h103q6 98 66 155t155 57q99 0 160 -63t61 -171t-61 -171t-160 -63q-96 0 -157 59t-65 161h-102v-170 l54 -19v-27h-208v29z"/>
<glyph unicode="я" horiz-adv-x="561" glyph-name="afii10097" d="M278 239h90v185h-90q-46 0 -74 -24t-28 -68t28 -68.5t74 -24.5zM18 34l11 12q12 -12 35 -12q15 0 21.5 8t16.5 33l27 75q18 51 77 67q-58 10 -92 41t-34 78q0 57 50.5 90.5t131.5 33.5h260v-24l-60 -17v-373l60 -19v-27h-214v27l60 24v152h-26q-54 0 -83 -10.5t-41 -43.5 l-27 -83q-13 -38 -31.5 -54t-53.5 -16q-56 0 -88 38z"/>
<glyph unicode="ѐ" horiz-adv-x="533" glyph-name="uni0450" d="M214 677l145 -138l-21 -20l-181 101zM282 429q-54 0 -93 -45t-44 -109l251 8q0 65 -31.5 105.5t-82.5 40.5zM460 242h-316q1 -108 43 -155.5t123 -47.5q91 0 135 45l23 -23q-63 -65 -182 -65q-110 0 -174 64t-64 171q0 108 64 170.5t164 62.5q91 0 146 -49.5t55 -124.5 q0 -20 -3 -34z"/>
<glyph unicode="ё" horiz-adv-x="533" glyph-name="afii10071" d="M325 572q0 23 16 38.5t39 15.5t38.5 -15.5t15.5 -38.5t-15.5 -38.5t-38.5 -15.5t-39 15.5t-16 38.5zM106 572q0 23 15.5 38.5t39.5 15.5q23 0 38.5 -15.5t15.5 -38.5t-15.5 -38.5t-38.5 -15.5q-24 0 -39.5 15.5t-15.5 38.5zM282 429q-54 0 -93 -45t-44 -109l251 8 q0 65 -31.5 105.5t-82.5 40.5zM460 242h-316q1 -108 43 -155.5t123 -47.5q91 0 135 45l23 -23q-63 -65 -182 -65q-110 0 -174 64t-64 171q0 108 64 170.5t164 62.5q91 0 146 -49.5t55 -124.5q0 -20 -3 -34z"/>
<glyph unicode="ђ" horiz-adv-x="618" glyph-name="afii10099" d="M39 29l60 23v519h-60v22l60 13v88l-60 17v25l140 21l14 -14v-137h200v-35h-200v-111l-3 -55l3 -3q31 29 83.5 45.5t96.5 16.5q72 0 108.5 -45.5t36.5 -117.5v-301q0 -78 -39 -146.5t-111 -110.5l-22 23q39 38 59 102.5t20 131.5v294q0 60 -24 93.5t-68 33.5 q-32 0 -73 -14.5t-67 -41.5v-319l60 -19v-27h-214v29z"/>
<glyph unicode="ѓ" horiz-adv-x="466" glyph-name="afii10100" d="M366 424h-173v-375l91 -22v-27h-245v29l60 23v369l-60 15v24h386v-119h-34zM157 539l145 138l56 -57l-181 -101z"/>
<glyph unicode="є" horiz-adv-x="525" glyph-name="afii10101" d="M49 230q0 109 64.5 171.5t179.5 62.5q75 0 132 -30l18 17l12 -11v-114h-35q-26 103 -124 103q-67 0 -106.5 -45.5t-43.5 -129.5h233v-36h-233q3 -88 46 -133.5t120 -45.5q86 0 131 45l23 -23q-67 -65 -182 -65q-108 0 -171.5 62.5t-63.5 171.5z"/>
<glyph unicode="ѕ" horiz-adv-x="446" glyph-name="afii10102" d="M53 18v106h34q26 -93 120 -93q49 0 79.5 21.5t30.5 63.5q0 34 -24 49t-88 31q-33 9 -45.5 12.5t-39 15.5t-37.5 24t-21 34t-10 51q0 60 40.5 95.5t125.5 35.5q70 0 126 -31l16 17l12 -12v-104h-35q-23 94 -107 94q-44 0 -70.5 -22t-26.5 -58q0 -32 22 -46t77 -29 q35 -10 49 -14.5t42.5 -17.5t40.5 -26t23 -36t11 -52q0 -131 -187 -131q-74 0 -129 27l-17 -17z"/>
<glyph unicode="і" glyph-name="afii10103" d="M77 607q0 26 17.5 43.5t43.5 17.5q27 0 44.5 -17.5t17.5 -43.5q0 -27 -17.5 -44t-44.5 -17q-26 0 -43.5 17t-17.5 44zM39 0v29l60 23v346l-53 16v32l133 21l14 -14v-407l60 -19v-27h-214z"/>
<glyph unicode="ї" glyph-name="afii10104" d="M164 587q0 24 15.5 39.5t38.5 15.5q24 0 39.5 -15.5t15.5 -39.5q0 -23 -15.5 -38.5t-39.5 -15.5q-23 0 -38.5 15.5t-15.5 38.5zM7 587q0 24 16 39.5t39 15.5t38.5 -15.5t15.5 -39.5q0 -23 -15.5 -38.5t-38.5 -15.5t-39 15.5t-16 38.5zM39 0v29l60 23v346l-53 16v32 l133 21l14 -14v-407l60 -19v-27h-214z"/>
<glyph unicode="ј" glyph-name="afii10105" d="M77 607q0 26 17.5 43.5t43.5 17.5q27 0 44.5 -17.5t17.5 -43.5q0 -27 -17.5 -44t-44.5 -17q-26 0 -43.5 17t-17.5 44zM99 0v398l-53 16v32l133 21l14 -14v-453q0 -78 -39 -146.5t-111 -110.5l-23 23q39 38 59 102.5t20 131.5z"/>
<glyph unicode="љ" horiz-adv-x="810" glyph-name="afii10106" d="M578 233h-88v-197h88q45 0 71.5 25.5t26.5 72.5t-27 73t-71 26zM593 0h-256v26l60 20v378h-149l-33 -269q-17 -159 -105 -159q-30 0 -53 16t-23 46q0 22 12 35t31 13t31.5 -10.5t12.5 -28.5v-24q2 -2 8 -2q7 0 15 8t17.5 34.5t14.5 68.5l33 269l-60 15v24h401v-24 l-60 -17v-150h103q80 0 129.5 -36.5t49.5 -98.5q0 -61 -49.5 -97.5t-129.5 -36.5z"/>
<glyph unicode="њ" horiz-adv-x="834" glyph-name="afii10107" d="M602 216h-87v-180h87q45 0 71.5 23t26.5 66t-26.5 67t-71.5 24zM618 0h-251v27l54 24v165h-228v-170l54 -19v-27h-208v29l60 23v362l-60 19v27h208v-27l-54 -19v-162h228v162l-54 19v27h208v-27l-60 -21v-160h103q80 0 129 -34t49 -93q0 -58 -49 -91.5t-129 -33.5z"/>
<glyph unicode="ћ" horiz-adv-x="618" glyph-name="afii10108" d="M99 606v88l-60 17v25l140 21l14 -14v-137h200v-35h-200v-111l-3 -55l3 -3q31 29 83.5 45.5t96.5 16.5q72 0 108.5 -45.5t36.5 -117.5v-255l60 -19v-27h-210v29l57 23v242q0 60 -24 93.5t-68 33.5q-32 0 -73 -14.5t-67 -41.5v-319l56 -19v-27h-210v29l60 23v519h-60v22z "/>
<glyph unicode="ќ" horiz-adv-x="580" glyph-name="afii10109" d="M209 539l144 138l57 -57l-181 -101zM432 391v24q-3 2 -9 2q-25 0 -49 -52l-25 -56q-18 -39 -39 -56q57 -5 89 -24t44 -58l27 -91q8 -27 17 -36.5t26 -9.5q24 0 34 12l12 -12q-33 -38 -94 -38q-36 0 -57.5 17t-33.5 59l-27 91q-11 34 -43 45.5t-86 11.5h-25v-174l60 -19 v-27h-214v29l60 23v362l-60 19v27h214v-27l-60 -21v-155q51 0 77.5 15t41.5 48l29 65q19 40 41.5 58.5t58.5 18.5q34 0 56 -15t22 -46q0 -22 -11.5 -35.5t-31.5 -13.5q-19 0 -31.5 10.5t-12.5 28.5z"/>
<glyph unicode="ѝ" horiz-adv-x="614" glyph-name="uni045D" d="M39 29l60 23v362l-60 19v27h210v-27l-56 -19v-249l-3 -46l3 -3l228 283v15l-57 19v27h210v-27l-60 -21v-366l60 -19v-27h-210v27l57 24v244l3 46l-3 3l-228 -283v-15l56 -19v-27h-210v29zM243 677l144 -138l-20 -20l-181 101z"/>
<glyph unicode="ў" horiz-adv-x="579" glyph-name="afii10110" d="M269 -3l-193 417l-60 19v27h211v-27l-56 -19l146 -315l147 315l-78 19v27h177v-27l-57 -19l-194 -414q-75 -160 -106.5 -207t-77.5 -47q-33 0 -56.5 17.5t-23.5 51.5q0 25 13.5 37.5t33.5 12.5t33 -11.5t13 -30.5v-29q5 -3 10 -3q18 0 42 42t76 164zM362 584v44 q0 18 13 30.5t31 12.5q16 0 28.5 -12t12.5 -34q0 -42 -45.5 -68t-104.5 -26t-105 26t-46 68q0 22 12.5 34t29.5 12q18 0 30.5 -13t12.5 -30v-44q24 -19 66 -19t65 19z"/>
<glyph unicode="џ" horiz-adv-x="614" glyph-name="afii10193" d="M276 0h-237v26l60 20v368l-60 19v27h208v-27l-54 -21v-376h228v378l-54 19v27h208v-27l-60 -21v-373l60 -15v-24h-237l-14 -122h-34z"/>
<glyph unicode="Ґ" horiz-adv-x="546" glyph-name="afii10050" d="M39 700h400l37 93h34l-12 -129h-297v-612l95 -25v-27h-257v29l65 25v605l-65 17v24z"/>
<glyph unicode="ґ" horiz-adv-x="436" glyph-name="afii10098" d="M395 424h-202v-375l91 -22v-27h-245v29l60 23v369l-60 15v24h297l25 83h34v-119z"/>
<glyph unicode="Ә" horiz-adv-x="747" glyph-name="uni04D8" d="M345 32q91 0 158 63.5t81 183.5l-437 -19q0 -96 51.5 -162t146.5 -66zM109 579l-23 22q103 105 263 105q156 0 249 -95.5t93 -258.5q0 -164 -93.5 -261t-245.5 -97q-134 0 -215 72t-81 176q0 32 6 53l21 19h504q1 11 1 33q0 63 -14.5 117.5t-45 99.5t-83.5 71t-123 26 q-132 0 -213 -82z"/>
<glyph unicode="ә" horiz-adv-x="533" glyph-name="afii10846" d="M250 31q54 0 93 46.5t44 112.5l-251 -8q0 -67 31.5 -109t82.5 -42zM72 223h316q-1 198 -163 198q-87 0 -132 -45l-23 23q65 65 178 65q108 0 172 -64.5t64 -171.5q0 -108 -64 -170t-164 -62q-91 0 -146.5 51t-55.5 127q0 22 4 35z"/>
<glyph unicode="Ẁ" horiz-adv-x="1177" glyph-name="Wgrave" d="M527 917l145 -138l-20 -20l-181 101zM783 0l-196 474l-191 -474h-46l-273 652l-64 21v27h228v-27l-65 -21l227 -553l165 420l-58 133l-64 21v27h228v-27l-65 -21l226 -553l228 553l-83 21v27h184v-27l-62 -21l-273 -652h-46z"/>
<glyph unicode="ẁ" horiz-adv-x="854" glyph-name="wgrave" d="M368 677l145 -138l-21 -20l-181 101zM558 0l-126 296l-131 -296h-42l-183 414l-60 19v27h208v-27l-57 -19l139 -320l107 245l-31 75l-59 19v27h207v-27l-56 -19l131 -320l135 320l-77 19v27h174v-27l-56 -19l-180 -414h-43z"/>
<glyph unicode="Ẃ" horiz-adv-x="1177" glyph-name="Wacute" d="M507 779l145 138l57 -57l-181 -101zM783 0l-196 474l-191 -474h-46l-273 652l-64 21v27h228v-27l-65 -21l227 -553l165 420l-58 133l-64 21v27h228v-27l-65 -21l226 -553l228 553l-83 21v27h184v-27l-62 -21l-273 -652h-46z"/>
<glyph unicode="ẃ" horiz-adv-x="854" glyph-name="wacute" d="M350 539l145 138l56 -57l-181 -101zM558 0l-126 296l-131 -296h-42l-183 414l-60 19v27h208v-27l-57 -19l139 -320l107 245l-31 75l-59 19v27h207v-27l-56 -19l131 -320l135 320l-77 19v27h174v-27l-56 -19l-180 -414h-43z"/>
<glyph unicode="Ẅ" horiz-adv-x="1177" glyph-name="Wdieresis" d="M637 827q0 24 16 39.5t39 15.5t38.5 -15.5t15.5 -39.5q0 -23 -15.5 -38.5t-38.5 -15.5t-39 15.5t-16 38.5zM418 827q0 24 15.5 39.5t38.5 15.5q24 0 39.5 -15.5t15.5 -39.5q0 -23 -15.5 -38.5t-39.5 -15.5q-23 0 -38.5 15.5t-15.5 38.5zM783 0l-196 474l-191 -474h-46 l-273 652l-64 21v27h228v-27l-65 -21l227 -553l165 420l-58 133l-64 21v27h228v-27l-65 -21l226 -553l228 553l-83 21v27h184v-27l-62 -21l-273 -652h-46z"/>
<glyph unicode="ẅ" horiz-adv-x="854" glyph-name="wdieresis" d="M483 587q0 24 15.5 39.5t38.5 15.5q24 0 39.5 -15.5t15.5 -39.5q0 -23 -15.5 -38.5t-39.5 -15.5q-23 0 -38.5 15.5t-15.5 38.5zM263 587q0 24 16 39.5t39 15.5t38.5 -15.5t15.5 -39.5q0 -23 -15.5 -38.5t-38.5 -15.5t-39 15.5t-16 38.5zM558 0l-126 296l-131 -296h-42 l-183 414l-60 19v27h208v-27l-57 -19l139 -320l107 245l-31 75l-59 19v27h207v-27l-56 -19l131 -320l135 320l-77 19v27h174v-27l-56 -19l-180 -414h-43z"/>
<glyph unicode="Ỳ" horiz-adv-x="702" glyph-name="Ygrave" d="M289 917l145 -138l-21 -20l-181 101zM184 654l196 -319l202 319l-77 19v27h184v-27l-65 -19l-228 -359v-248l65 -20v-27h-227v29l65 25v240l-223 360l-63 19v27h233v-27z"/>
<glyph unicode="ỳ" horiz-adv-x="579" glyph-name="ygrave" d="M229 677l144 -138l-20 -20l-181 101zM269 -3l-193 417l-60 19v27h211v-27l-56 -19l146 -315l147 315l-78 19v27h177v-27l-57 -19l-194 -414q-75 -160 -106.5 -207t-77.5 -47q-33 0 -56.5 17.5t-23.5 51.5q0 25 13.5 37.5t33.5 12.5t33 -11.5t13 -30.5v-29q5 -3 10 -3 q18 0 42 42t76 164z"/>
<glyph unicode="‒" horiz-adv-x="506" glyph-name="figuredash" d="M43 331v39h420v-39h-420z"/>
<glyph unicode="–" horiz-adv-x="506" glyph-name="endash" d="M43 243v39h420v-39h-420z"/>
<glyph unicode="—" horiz-adv-x="706" glyph-name="emdash" d="M43 243v39h620v-39h-620z"/>
<glyph unicode="‘" horiz-adv-x="196" glyph-name="quoteleft" d="M126 705l17 -17q-17 -17 -32 -43.5t-15 -40.5q0 -4 2 -8q24 0 39.5 -14.5t15.5 -37.5t-15.5 -38t-39.5 -15q-23 0 -39 15t-16 48q0 68 83 151z"/>
<glyph unicode="’" horiz-adv-x="196" glyph-name="quoteright" d="M69 491l-17 17q17 17 32 43.5t15 39.5q0 7 -2 8q-23 0 -38.5 15t-15.5 38t15.5 38t39.5 15q23 0 39 -15t16 -49q0 -69 -84 -150z"/>
<glyph unicode="‚" horiz-adv-x="196" glyph-name="quotesinglbase" d="M69 -109l-17 17q17 17 32 43.5t15 40.5q0 6 -2 8q-23 0 -38.5 14.5t-15.5 38.5q0 23 15.5 38t39.5 15q23 0 39 -15t16 -49q0 -70 -84 -151z"/>
<glyph unicode="“" horiz-adv-x="346" glyph-name="quotedblleft" d="M126 705l17 -17q-17 -17 -32 -43.5t-15 -40.5q0 -4 2 -8q24 0 39.5 -14.5t15.5 -37.5t-15.5 -38t-39.5 -15q-23 0 -39 15t-16 48q0 68 83 151zM276 705l17 -17q-17 -17 -32 -43.5t-15 -40.5q0 -6 2 -8q23 0 38.5 -14.5t15.5 -37.5t-15.5 -38t-39.5 -15q-23 0 -39 15 t-16 48q0 70 84 151z"/>
<glyph unicode="”" horiz-adv-x="346" glyph-name="quotedblright" d="M219 491l-17 17q17 17 32 43.5t15 39.5q0 6 -2 8q-23 0 -39 15t-16 38t16 38t39 15t39 -15t16 -49q0 -67 -83 -150zM69 491l-17 17q17 17 32 43.5t15 39.5q0 7 -2 8q-23 0 -38.5 15t-15.5 38t15.5 38t39.5 15q23 0 39 -15t16 -49q0 -69 -84 -150z"/>
<glyph unicode="„" horiz-adv-x="345" glyph-name="quotedblbase" d="M219 -109l-17 17q17 17 32 43.5t15 40.5q0 4 -2 8q-24 0 -39.5 14.5t-15.5 38.5q0 22 16 37.5t39 15.5t39 -15t16 -49q0 -68 -83 -151zM69 -109l-17 17q17 17 32 43.5t15 40.5q0 6 -2 8q-23 0 -38.5 14.5t-15.5 38.5q0 23 15.5 38t39.5 15q23 0 39 -15t16 -49 q0 -70 -84 -151z"/>
<glyph unicode="†" horiz-adv-x="520" glyph-name="dagger" d="M246 502q-4 47 -10.5 83t-10.5 53t-4 26q0 17 11 28.5t28 11.5t28.5 -11.5t11.5 -28.5q0 -8 -4 -25.5t-11 -53.5t-11 -83q47 4 83 10.5t53 10.5t26 4q17 0 28.5 -11t11.5 -28t-11.5 -28t-28.5 -11q-9 0 -26 4t-53 10.5t-83 10.5q4 -157 11 -277.5t11 -178t4 -82.5 q0 -17 -11.5 -28.5t-28.5 -11.5t-28 11.5t-11 28.5q0 26 4 83t10.5 177.5t10.5 277.5q-47 -4 -83 -10.5t-53 -10.5t-26 -4q-17 0 -28.5 11t-11.5 28t11.5 28t28.5 11q9 0 26 -4t53 -10.5t83 -10.5z"/>
<glyph unicode="‡" horiz-adv-x="520" glyph-name="daggerdbl" d="M246 502q-4 47 -10.5 83t-10.5 53t-4 26q0 17 11 28.5t28 11.5t28.5 -11.5t11.5 -28.5q0 -8 -4 -25.5t-11 -53.5t-11 -83q47 4 83 10.5t53 10.5t26 4q17 0 28.5 -11t11.5 -28t-11.5 -28t-28.5 -11q-9 0 -26 4t-53 10.5t-83 10.5v-227q47 4 82.5 10.5t53.5 10.5t26 4 q17 0 28.5 -11t11.5 -29q0 -17 -11.5 -28t-28.5 -11q-8 0 -26 4t-53.5 10.5t-82.5 10.5q4 -83 10.5 -146t11 -93t4.5 -43q0 -17 -11.5 -28.5t-28.5 -11.5t-28 11.5t-11 28.5q0 13 4 43t10.5 93t10.5 146q-47 -4 -82.5 -10.5t-53.5 -10.5t-26 -4q-17 0 -28.5 11t-11.5 28 t11.5 28.5t28.5 11.5q8 0 26 -4t53.5 -10.5t82.5 -10.5v227q-47 -4 -83 -10.5t-53 -10.5t-26 -4q-17 0 -28.5 11t-11.5 28t11.5 28t28.5 11q9 0 26 -4t53 -10.5t83 -10.5z"/>
<glyph unicode="•" horiz-adv-x="236" glyph-name="bullet" d="M36 300q0 34 23.5 58t57.5 24q35 0 58.5 -23.5t23.5 -58.5t-23.5 -58.5t-58.5 -23.5q-34 0 -57.5 24t-23.5 58z"/>
<glyph unicode="…" horiz-adv-x="574" glyph-name="ellipsis" d="M421 51q0 23 15.5 39t38.5 16q24 0 40 -16t16 -39q0 -24 -16 -39.5t-40 -15.5q-23 0 -38.5 15.5t-15.5 39.5zM232 51q0 23 15.5 39t38.5 16q24 0 40 -16t16 -39q0 -24 -16 -39.5t-40 -15.5q-23 0 -38.5 15.5t-15.5 39.5zM43 51q0 23 15.5 39t38.5 16q24 0 40 -16t16 -39 q0 -24 -16 -39.5t-40 -15.5q-23 0 -38.5 15.5t-15.5 39.5z"/>
<glyph unicode="‰" horiz-adv-x="1099" glyph-name="perthousand" d="M821 175q0 -68 22 -106.5t57 -38.5t57 38.5t22 106.5t-22 106.5t-57 38.5t-57 -38.5t-22 -106.5zM754 175q0 83 40.5 132t105.5 49t105.5 -49t40.5 -132t-40.5 -132t-105.5 -49t-105.5 49t-40.5 132zM480 175q0 -68 22 -106.5t57 -38.5t56.5 38.5t21.5 106.5t-21.5 106.5 t-56.5 38.5t-57 -38.5t-22 -106.5zM413 175q0 83 40.5 132t105.5 49t105.5 -49t40.5 -132t-40.5 -132t-105.5 -49t-105.5 49t-40.5 132zM197 0h-47l410 700h47zM120 525q0 -68 22 -106.5t57 -38.5t56.5 38.5t21.5 106.5t-21.5 106.5t-56.5 38.5t-57 -38.5t-22 -106.5z M53 525q0 83 40 132t105 49q66 0 106 -49t40 -132t-40 -132t-106 -49q-65 0 -105 49t-40 132z"/>
<glyph unicode="‹" horiz-adv-x="267" glyph-name="guilsinglleft" d="M39 254v11l158 161l21 -20l-100 -146l100 -146l-21 -21z"/>
<glyph unicode="›" horiz-adv-x="267" glyph-name="guilsinglright" d="M228 265v-11l-158 -161l-21 21l100 146l-100 146l21 20z"/>
<glyph unicode="⁄" horiz-adv-x="357" glyph-name="fraction" d="M45 0h-42l308 700h42z"/>
<glyph unicode="€" horiz-adv-x="718" glyph-name="Euro" d="M38 395v39h25q23 128 112.5 200t223.5 72q118 0 206 -51h39l13 -130h-34q-48 143 -206 143q-106 0 -171 -60t-81 -174h325v-39h-330q-1 -14 -1 -43q0 -33 2 -49h329v-39h-324q19 -106 84 -165.5t174 -59.5q133 0 214 82l22 -22q-102 -105 -262 -105q-136 0 -224 71.5 t-111 198.5h-25v39h20q-2 14 -2 45q0 17 2 47h-20z"/>
<glyph unicode="₴" horiz-adv-x="538" glyph-name="uni20B4" d="M52 393v39h273q55 53 55 114q0 58 -40 86.5t-112 28.5q-96 0 -151 -51l-23 22q75 72 200 72q102 0 162 -41t60 -114q0 -65 -57 -117h54v-39h-421zM52 268v39h421v-39h-275q-53 -48 -53 -110q0 -60 42 -89.5t115 -29.5q102 0 160 55l22 -23q-77 -75 -208 -75 q-103 0 -165 42t-62 115q0 62 56 115h-53z"/>
<glyph unicode="₽" horiz-adv-x="629" glyph-name="uni20BD" d="M302 664h-101v-332h101q73 0 117.5 43t44.5 123t-44.5 123t-117.5 43zM39 176v20l65 16v84h-65v21l65 15v327l-65 17v24h277q112 0 181.5 -54.5t69.5 -147.5t-69.5 -147.5t-181.5 -54.5h-115v-84h203v-36h-203v-124l95 -25v-27h-257v29l65 25v122h-65z"/>
<glyph unicode="№" horiz-adv-x="1086" glyph-name="afii61352" d="M739 243v39h282v-39h-282zM802 525q0 -68 21.5 -106.5t56.5 -38.5t57 38.5t22 106.5t-22 106.5t-57 38.5t-56.5 -38.5t-21.5 -106.5zM734 525q0 83 40.5 132t105.5 49t105.5 -49t40.5 -132t-40.5 -132t-105.5 -49t-105.5 49t-40.5 132zM39 20l65 25v607l-65 21v27h162 l388 -557v518l-65 20v19h166v-19l-65 -22v-659h-46l-439 629v-590l65 -21v-18h-166v20z"/>
<glyph unicode="™" horiz-adv-x="795" glyph-name="trademark" d="M726 670l21 -292l32 -11v-17h-128v18l31 14l-17 240l-115 -272h-29l-116 272l-18 -250l31 -12v-10h-84v11l31 15l22 296l-32 11v17h83l118 -286l120 286h81v-17zM277 678h-75v-300l31 -11v-17h-128v18l31 14v296h-75l-19 -50h-23l7 72h286l6 -70h-22z"/>
<glyph unicode="←" horiz-adv-x="690" glyph-name="arrowleft" d="M43 256v12l155 160l19 -20l-83 -126h513v-39h-513l83 -127l-19 -20z"/>
<glyph unicode="↑" horiz-adv-x="690" glyph-name="arrowup" d="M339 564h11l161 -155l-20 -20l-126 83v-513h-39v514l-127 -84l-21 20z"/>
<glyph unicode="→" horiz-adv-x="690" glyph-name="arrowright" d="M647 268v-12l-154 -160l-20 20l84 127h-514v39h513l-83 126l20 20z"/>
<glyph unicode="↓" horiz-adv-x="690" glyph-name="arrowdown" d="M350 -41h-11l-161 155l21 20l127 -84v514h39v-514l126 84l20 -20z"/>
<glyph unicode="↖" horiz-adv-x="690" glyph-name="uni2196" d="M127 471l8 9l223 4v-28l-148 -31l363 -363l-28 -28l-363 364l-30 -149l-29 -1z"/>
<glyph unicode="↗" horiz-adv-x="690" glyph-name="uni2197" d="M554 479l9 -8l4 -223h-28l-31 149l-363 -363l-28 28l364 362l-149 31l-1 28z"/>
<glyph unicode="↘" horiz-adv-x="690" glyph-name="uni2198" d="M563 52l-8 -8l-223 -4v28l149 30l-363 364l27 28l363 -363l31 148h28z"/>
<glyph unicode="↙" horiz-adv-x="690" glyph-name="uni2199" d="M135 44l-8 7l-5 223h29l30 -148l364 362l28 -27l-363 -363l147 -30l1 -28z"/>
<glyph unicode="−" horiz-adv-x="456" glyph-name="minus" d="M43 331v39h370v-39h-370z"/>
<glyph unicode="" horiz-adv-x="196" glyph-name="commaaccent" d="M73 -250l-14 14q15 16 27.5 38.5t12.5 35.5q0 6 -2 8q-19 0 -32.5 12.5t-13.5 31.5t13.5 32t33.5 13q18 0 32 -13t14 -42q0 -59 -71 -130z"/>
<glyph unicode="" horiz-adv-x="446" glyph-name="dollaroldstyle" d="M133 348q0 -28 17.5 -42t55.5 -26l12 147q-38 -3 -61.5 -24.5t-23.5 -54.5zM317 116q0 30 -18.5 44.5t-63.5 27.5l-13 -157q43 3 69 24.5t26 60.5zM216 -50h-36l4 47q-61 5 -102 26l-17 -17l-12 12v106h34q22 -84 100 -92l13 165q-31 8 -44.5 12.5t-38 16t-35.5 24 t-20.5 34t-9.5 49.5q0 60 40.5 95.5t125.5 35.5h3l4 46h36l-4 -49q46 -6 87 -28l16 17l12 -12v-104h-35q-19 79 -83 92l-13 -156q30 -9 46.5 -14.5t41 -17.5t37 -25.5t22.5 -35.5t10 -50q0 -128 -179 -131z"/>
<glyph unicode="" horiz-adv-x="624" glyph-name="zerooldstyle" d="M155 229q0 -94 43.5 -146.5t113.5 -52.5t113 52.5t43 146.5q0 95 -43 148t-113 53t-113.5 -53t-43.5 -148zM56 230q0 108 70.5 172t185.5 64t185.5 -64t70.5 -172t-70.5 -172t-185.5 -64t-185.5 64t-70.5 172z"/>
<glyph unicode="" horiz-adv-x="385" glyph-name="oneoldstyle" d="M65 0v29l84 23v346h-97v30l177 39l13 -14v-407l84 -19v-27h-261z"/>
<glyph unicode="" horiz-adv-x="482" glyph-name="twooldstyle" d="M50 0v43q66 48 104.5 78.5t78.5 70t58 77t18 77.5q0 83 -92 83q-52 0 -88 -35v-63q0 -17 -12.5 -30t-30.5 -13q-17 0 -29.5 12.5t-12.5 39.5q0 54 48.5 89t133.5 35q80 0 126 -32.5t46 -91.5q0 -31 -15.5 -62.5t-34 -54.5t-58.5 -56t-64 -50t-76 -52h216l27 84h34 l-5 -149h-372z"/>
<glyph unicode="" horiz-adv-x="539" glyph-name="threeoldstyle" d="M387 0q0 138 -170 138h-37v36h35q144 0 144 124q0 62 -32.5 96t-85.5 34q-57 0 -92 -35v-57q0 -18 -12.5 -30.5t-30.5 -12.5q-17 0 -29.5 12.5t-12.5 38.5q0 56 55.5 88.5t135.5 32.5q90 0 144.5 -43.5t54.5 -117.5q0 -57 -32.5 -94.5t-85.5 -52.5q72 -21 109.5 -60.5 t37.5 -106.5q0 -113 -105 -176.5t-287 -69.5l-23 22q158 15 238.5 75.5t80.5 158.5z"/>
<glyph unicode="" horiz-adv-x="581" glyph-name="fouroldstyle" d="M452 -250h-89v250h-310v27q169 226 169 433h94q0 -200 -214 -425h261v195l76 77l13 -14v-258h76v-35h-76v-250z"/>
<glyph unicode="" horiz-adv-x="502" glyph-name="fiveoldstyle" d="M357 7q0 74 -41 112t-113 38q-66 0 -108 -32l-24 24l28 311q189 0 299 13v-82h-258l-36 -228q52 31 125 31q103 0 163.5 -51t60.5 -143q0 -117 -101 -183t-283 -73l-22 22q154 15 232 77.5t78 163.5z"/>
<glyph unicode="" horiz-adv-x="561" glyph-name="sixoldstyle" d="M145 314q0 -282 139 -282q60 0 96 47t36 129q0 87 -41 132t-105 45q-42 0 -75.5 -19.5t-49.5 -51.5zM147 373q55 55 147 55q98 0 157.5 -57t59.5 -155q0 -101 -63 -159.5t-162 -58.5q-116 0 -176.5 82.5t-60.5 232.5q0 108 31.5 192t86.5 137t125.5 81.5t153.5 33.5 l22 -23q-146 -21 -230 -115.5t-91 -245.5z"/>
<glyph unicode="" horiz-adv-x="538" glyph-name="sevenoldstyle" d="M290 -250h-93q0 83 24 173t50 147t80.5 162.5t77.5 155.5h-311l-30 -80h-35l12 152h424v-27q-19 -53 -63.5 -164.5t-68.5 -177t-45.5 -161.5t-21.5 -180z"/>
<glyph unicode="" horiz-adv-x="585" glyph-name="eightoldstyle" d="M311 425l21 -9q79 66 79 162q0 70 -32 106t-88 36q-58 0 -91.5 -38t-33.5 -104q0 -63 30.5 -91t114.5 -62zM277 349l-28 11q-102 -69 -102 -180q0 -76 38 -113t104 -37q70 0 111 39.5t41 115.5q0 35 -9 58.5t-33.5 42.5t-49 31t-72.5 32zM498 583q0 -71 -36.5 -112.5 t-95.5 -68.5q81 -36 122 -80.5t41 -124.5q0 -94 -60 -148.5t-184 -54.5q-116 0 -172.5 49t-56.5 133q0 78 43 122.5t117 76.5q-65 30 -100 72t-35 116q0 85 51.5 139t163.5 54q103 0 152.5 -47.5t49.5 -125.5z"/>
<glyph unicode="" horiz-adv-x="561" glyph-name="nineoldstyle" d="M414 146q0 148 -33 215.5t-100 67.5q-61 0 -98.5 -49.5t-37.5 -132.5q0 -85 40.5 -128t102.5 -43q43 0 76.5 19.5t49.5 50.5zM411 87q-55 -54 -147 -54q-98 0 -156.5 56.5t-58.5 153.5q0 102 65 162t165 60q114 0 172.5 -79.5t58.5 -226.5q0 -201 -106 -300t-293 -112 l-22 23q301 38 322 317z"/>
<glyph horiz-adv-x="1166" glyph-name="T_h" d="M741 365v-319l57 -19v-27h-210v29l60 23v612h-262v-617l65 -20v-27h-227v29l65 25v610h-179l-37 -97h-34l12 133h537l140 36l13 -14v-262l-2 -55l3 -3q31 29 83.5 45.5t96.5 16.5q71 0 108 -45.5t37 -117.5v-255l60 -19v-27h-210v29l56 23v242q0 60 -23.5 93.5 t-67.5 33.5q-32 0 -73.5 -14.5t-67.5 -41.5z"/>
<glyph horiz-adv-x="1166" glyph-name="T_h.caron" d="M343 759h-11l-141 138l20 20l126 -79l126 79l21 -20zM741 365v-319l57 -19v-27h-210v29l60 23v612h-262v-617l65 -20v-27h-227v29l65 25v610h-179l-37 -97h-34l12 133h537l140 36l13 -14v-262l-2 -55l3 -3q31 29 83.5 45.5t96.5 16.5q71 0 108 -45.5t37 -117.5v-255 l60 -19v-27h-210v29l56 23v242q0 60 -23.5 93.5t-67.5 33.5q-32 0 -73.5 -14.5t-67.5 -41.5z"/>
<glyph horiz-adv-x="1166" glyph-name="T_h.commaaccent" d="M312 -250l-14 14q15 16 27.5 38.5t12.5 35.5q0 6 -2 8q-19 0 -32.5 12.5t-13.5 31.5t13.5 32t33.5 13q18 0 32 -13t14 -42q0 -59 -71 -130zM741 365v-319l57 -19v-27h-210v29l60 23v612h-262v-617l65 -20v-27h-227v29l65 25v610h-179l-37 -97h-34l12 133h537l140 36 l13 -14v-262l-2 -55l3 -3q31 29 83.5 45.5t96.5 16.5q71 0 108 -45.5t37 -117.5v-255l60 -19v-27h-210v29l56 23v242q0 60 -23.5 93.5t-67.5 33.5q-32 0 -73.5 -14.5t-67.5 -41.5z"/>
<glyph horiz-adv-x="583" glyph-name="A.smcp" d="M263 387l-93 -205h185zM312 476l198 -437l45 -16v-23h-181v23l44 16l-50 112h-212l-50 -112l58 -16v-23h-136v23l44 16l199 437h41z"/>
<glyph horiz-adv-x="583" glyph-name="Aacute.smcp" d="M228 526l103 105l52 -52l-139 -69zM263 387l-93 -205h185zM312 476l198 -437l45 -16v-23h-181v23l44 16l-50 112h-212l-50 -112l58 -16v-23h-136v23l44 16l199 437h41z"/>
<glyph horiz-adv-x="583" glyph-name="Abreve.smcp" d="M331 591q0 14 10.5 24.5t25.5 10.5t26 -9.5t11 -27.5q0 -31 -33.5 -49.5t-79.5 -18.5q-47 0 -80.5 18.5t-33.5 49.5q0 18 11 27.5t26 9.5q14 0 25 -10.5t11 -24.5q0 -19 8 -29t15.5 -11.5t17.5 -1.5q40 0 40 42zM263 387l-93 -205h185zM312 476l198 -437l45 -16v-23h-181 v23l44 16l-50 112h-212l-50 -112l58 -16v-23h-136v23l44 16l199 437h41z"/>
<glyph horiz-adv-x="583" glyph-name="Acircumflex.smcp" d="M286 631h10l101 -105l-16 -16l-90 53l-89 -53l-17 16zM263 387l-93 -205h185zM312 476l198 -437l45 -16v-23h-181v23l44 16l-50 112h-212l-50 -112l58 -16v-23h-136v23l44 16l199 437h41z"/>
<glyph horiz-adv-x="583" glyph-name="Agrave.smcp" d="M251 631l104 -105l-17 -16l-138 69zM263 387l-93 -205h185zM312 476l198 -437l45 -16v-23h-181v23l44 16l-50 112h-212l-50 -112l58 -16v-23h-136v23l44 16l199 437h41z"/>
<glyph horiz-adv-x="583" glyph-name="Adieresis.smcp" d="M323 566q0 20 12.5 32.5t32.5 12.5t33 -12.5t13 -32.5q0 -19 -13.5 -32t-32.5 -13t-32 13t-13 32zM168 566q0 20 12.5 32.5t32.5 12.5t32.5 -12.5t12.5 -32.5q0 -19 -13 -32t-32 -13t-32 13t-13 32zM263 387l-93 -205h185zM312 476l198 -437l45 -16v-23h-181v23l44 16 l-50 112h-212l-50 -112l58 -16v-23h-136v23l44 16l199 437h41z"/>
<glyph horiz-adv-x="583" glyph-name="Amacron.smcp" d="M199 541v35h184v-35h-184zM263 387l-93 -205h185zM312 476l198 -437l45 -16v-23h-181v23l44 16l-50 112h-212l-50 -112l58 -16v-23h-136v23l44 16l199 437h41z"/>
<glyph horiz-adv-x="583" glyph-name="Aogonek.smcp" d="M263 387l-93 -205h185zM545 -113l9 -10q-34 -32 -68 -32q-44 0 -44 44q0 52 54 111h-122v23l44 16l-50 112h-212l-50 -112l58 -16v-23h-136v23l44 16l199 437h41l198 -437l45 -16v-23h-36q-38 -54 -38 -101q0 -27 24 -27q25 0 40 15z"/>
<glyph horiz-adv-x="583" glyph-name="Aring.smcp" d="M263 561q0 -16 8 -25.5t20 -9.5q27 0 27 35t-27 35q-12 0 -20 -9.5t-8 -25.5zM231 561q0 25 16.5 40.5t43.5 15.5t44 -15.5t17 -40.5q0 -26 -17 -41t-44 -15t-43.5 15t-16.5 41zM263 387l-93 -205h185zM312 476l198 -437l45 -16v-23h-181v23l44 16l-50 112h-212l-50 -112 l58 -16v-23h-136v23l44 16l199 437h41z"/>
<glyph horiz-adv-x="583" glyph-name="Atilde.smcp" d="M184 525l-16 16q68 63 94 63q16 0 38.5 -16t40.5 -16q28 0 59 31l16 -15q-67 -65 -97 -65q-15 0 -37.5 16t-40.5 16q-27 0 -57 -30zM263 387l-93 -205h185zM312 476l198 -437l45 -16v-23h-181v23l44 16l-50 112h-212l-50 -112l58 -16v-23h-136v23l44 16l199 437h41z"/>
<glyph horiz-adv-x="633" glyph-name="AE.smcp" d="M263 387l-93 -205h127zM321 34l-20 117h-145l-50 -112l58 -16v-23h-136v23l44 16l199 437h291l9 -96h-31l-28 65h-175l31 -186h100l15 50h28v-130h-28l-15 49h-96l32 -197h116l28 65h31l-9 -96h-294v21z"/>
<glyph horiz-adv-x="633" glyph-name="AEacute.smcp" d="M278 526l103 105l52 -52l-139 -69zM263 387l-93 -205h127zM321 34l-20 117h-145l-50 -112l58 -16v-23h-136v23l44 16l199 437h291l9 -96h-31l-28 65h-175l31 -186h100l15 50h28v-130h-28l-15 49h-96l32 -197h116l28 65h31l-9 -96h-294v21z"/>
<glyph horiz-adv-x="514" glyph-name="B.smcp" d="M254 445h-75v-186h75q42 0 66.5 23.5t24.5 69.5t-24.5 69.5t-66.5 23.5zM179 31h75q51 0 80 25t29 74t-29 73.5t-80 24.5h-75v-197zM43 476h222q78 0 126 -32.5t48 -88.5q0 -41 -26 -69.5t-72 -40.5q55 -13 86.5 -43.5t31.5 -75.5q0 -58 -53.5 -92t-140.5 -34h-222v21 l46 13v408l-46 13v21z"/>
<glyph horiz-adv-x="540" glyph-name="C.smcp" d="M464 89l21 -20q-78 -74 -188 -74q-111 0 -176.5 65t-65.5 176q0 112 66.5 178.5t176.5 66.5q76 0 133 -31l29 14l11 -10l11 -100h-32q-37 94 -139 94q-77 0 -118.5 -52t-41.5 -156q0 -94 41.5 -149t130.5 -55q88 0 141 53z"/>
<glyph horiz-adv-x="540" glyph-name="Cacute.smcp" d="M237 526l103 105l51 -52l-138 -69zM464 89l21 -20q-78 -74 -188 -74q-111 0 -176.5 65t-65.5 176q0 112 66.5 178.5t176.5 66.5q76 0 133 -31l29 14l11 -10l11 -100h-32q-37 94 -139 94q-77 0 -118.5 -52t-41.5 -156q0 -94 41.5 -149t130.5 -55q88 0 141 53z"/>
<glyph horiz-adv-x="540" glyph-name="Ccaron.smcp" d="M302 510h-10l-101 104l16 17l90 -54l90 54l16 -17zM464 89l21 -20q-78 -74 -188 -74q-111 0 -176.5 65t-65.5 176q0 112 66.5 178.5t176.5 66.5q76 0 133 -31l29 14l11 -10l11 -100h-32q-37 94 -139 94q-77 0 -118.5 -52t-41.5 -156q0 -94 41.5 -149t130.5 -55 q88 0 141 53z"/>
<glyph horiz-adv-x="540" glyph-name="Ccedilla.smcp" d="M248 -72l36 67q-106 4 -167.5 68.5t-61.5 172.5q0 112 66.5 178.5t176.5 66.5q76 0 133 -31l29 14l11 -10l11 -100h-32q-37 94 -139 94q-77 0 -118.5 -52t-41.5 -156q0 -94 41.5 -149t130.5 -55q88 0 141 53l21 -20q-74 -70 -177 -74l-11 -23q23 0 39 -8.5t16 -24.5 q0 -23 -71 -94l-10 10q34 34 34 51q0 22 -57 22z"/>
<glyph horiz-adv-x="540" glyph-name="Ccircumflex.smcp" d="M293 631h10l100 -105l-16 -16l-90 53l-89 -53l-17 16zM464 89l21 -20q-78 -74 -188 -74q-111 0 -176.5 65t-65.5 176q0 112 66.5 178.5t176.5 66.5q76 0 133 -31l29 14l11 -10l11 -100h-32q-37 94 -139 94q-77 0 -118.5 -52t-41.5 -156q0 -94 41.5 -149t130.5 -55 q88 0 141 53z"/>
<glyph horiz-adv-x="540" glyph-name="Cdotaccent.smcp" d="M247 576q0 21 13.5 34.5t35.5 13.5t35.5 -13.5t13.5 -34.5t-13.5 -35t-35.5 -14t-35.5 14t-13.5 35zM464 89l21 -20q-78 -74 -188 -74q-111 0 -176.5 65t-65.5 176q0 112 66.5 178.5t176.5 66.5q76 0 133 -31l29 14l11 -10l11 -100h-32q-37 94 -139 94q-77 0 -118.5 -52 t-41.5 -156q0 -94 41.5 -149t130.5 -55q88 0 141 53z"/>
<glyph horiz-adv-x="563" glyph-name="D.smcp" d="M266 445h-87v-414h87q66 0 106 52t40 154q0 103 -39.5 155.5t-106.5 52.5zM43 476h223q109 0 175.5 -63.5t66.5 -174.5t-66.5 -174.5t-175.5 -63.5h-223v21l46 13v408l-46 13v21z"/>
<glyph horiz-adv-x="563" glyph-name="Dcaron.smcp" d="M279 510h-9l-102 104l17 17l89 -54l90 54l17 -17zM266 445h-87v-414h87q66 0 106 52t40 154q0 103 -39.5 155.5t-106.5 52.5zM43 476h223q109 0 175.5 -63.5t66.5 -174.5t-66.5 -174.5t-175.5 -63.5h-223v21l46 13v408l-46 13v21z"/>
<glyph horiz-adv-x="563" glyph-name="Dcroat.smcp" d="M266 445h-87v-189h104v-31h-104v-194h87q66 0 106 52t40 154q0 103 -39.5 155.5t-106.5 52.5zM43 225v20l46 11v186l-46 13v21h223q109 0 175.5 -63.5t66.5 -174.5t-66.5 -174.5t-175.5 -63.5h-223v21l46 13v191h-46z"/>
<glyph horiz-adv-x="563" glyph-name="Eth.smcp" d="M266 445h-87v-189h104v-31h-104v-194h87q66 0 106 52t40 154q0 103 -39.5 155.5t-106.5 52.5zM43 225v20l46 11v186l-46 13v21h223q109 0 175.5 -63.5t66.5 -174.5t-66.5 -174.5t-175.5 -63.5h-223v21l46 13v191h-46z"/>
<glyph horiz-adv-x="488" glyph-name="Thorn.smcp" d="M179 435v-54h71q82 0 132.5 -37t50.5 -100q0 -64 -50.5 -101t-132.5 -37h-38l-10 11v20h36q46 0 73 26.5t27 80.5q0 53 -27 79.5t-73 26.5h-59v-308l67 -19v-23h-203v25l46 20v392l-46 15v24h182v-24z"/>
<glyph horiz-adv-x="486" glyph-name="E.smcp" d="M179 31h194l28 65h31l-9 -96h-380v21l46 13v408l-46 13v21h373l9 -96h-31l-28 65h-187v-186h143l14 50h28v-130h-28l-14 49h-143v-197z"/>
<glyph horiz-adv-x="486" glyph-name="Eacute.smcp" d="M180 526l103 105l51 -52l-138 -69zM179 31h194l28 65h31l-9 -96h-380v21l46 13v408l-46 13v21h373l9 -96h-31l-28 65h-187v-186h143l14 50h28v-130h-28l-14 49h-143v-197z"/>
<glyph horiz-adv-x="486" glyph-name="Ebreve.smcp" d="M284 591q0 14 10.5 24.5t25.5 10.5q14 0 24.5 -9.5t10.5 -27.5q0 -31 -33 -49.5t-79 -18.5q-47 0 -80 18.5t-33 49.5q0 18 10.5 27.5t25.5 9.5t25.5 -10.5t10.5 -24.5q0 -19 8 -29t15.5 -11.5t17.5 -1.5q41 0 41 42zM179 31h194l28 65h31l-9 -96h-380v21l46 13v408 l-46 13v21h373l9 -96h-31l-28 65h-187v-186h143l14 50h28v-130h-28l-14 49h-143v-197z"/>
<glyph horiz-adv-x="486" glyph-name="Ecaron.smcp" d="M248 510h-10l-102 104l17 17l90 -54l90 54l16 -17zM179 31h194l28 65h31l-9 -96h-380v21l46 13v408l-46 13v21h373l9 -96h-31l-28 65h-187v-186h143l14 50h28v-130h-28l-14 49h-143v-197z"/>
<glyph horiz-adv-x="486" glyph-name="Ecircumflex.smcp" d="M238 631h10l101 -105l-16 -16l-90 53l-90 -53l-17 16zM179 31h194l28 65h31l-9 -96h-380v21l46 13v408l-46 13v21h373l9 -96h-31l-28 65h-187v-186h143l14 50h28v-130h-28l-14 49h-143v-197z"/>
<glyph horiz-adv-x="486" glyph-name="Edieresis.smcp" d="M275 566q0 20 12.5 32.5t32.5 12.5t33 -12.5t13 -32.5q0 -19 -13 -32t-33 -13q-19 0 -32 13t-13 32zM120 566q0 20 13 32.5t33 12.5t32.5 -12.5t12.5 -32.5q0 -19 -13 -32t-32 -13q-20 0 -33 13t-13 32zM179 31h194l28 65h31l-9 -96h-380v21l46 13v408l-46 13v21h373 l9 -96h-31l-28 65h-187v-186h143l14 50h28v-130h-28l-14 49h-143v-197z"/>
<glyph horiz-adv-x="486" glyph-name="Edotaccent.smcp" d="M194 576q0 21 14 34.5t36 13.5q21 0 34 -13.5t13 -34.5t-13 -35t-34 -14q-22 0 -36 14t-14 35zM179 31h194l28 65h31l-9 -96h-380v21l46 13v408l-46 13v21h373l9 -96h-31l-28 65h-187v-186h143l14 50h28v-130h-28l-14 49h-143v-197z"/>
<glyph horiz-adv-x="486" glyph-name="Egrave.smcp" d="M203 631l103 -105l-17 -16l-137 69zM179 31h194l28 65h31l-9 -96h-380v21l46 13v408l-46 13v21h373l9 -96h-31l-28 65h-187v-186h143l14 50h28v-130h-28l-14 49h-143v-197z"/>
<glyph horiz-adv-x="486" glyph-name="Emacron.smcp" d="M151 541v35h183v-35h-183zM179 31h194l28 65h31l-9 -96h-380v21l46 13v408l-46 13v21h373l9 -96h-31l-28 65h-187v-186h143l14 50h28v-130h-28l-14 49h-143v-197z"/>
<glyph horiz-adv-x="486" glyph-name="Eogonek.smcp" d="M423 -113l9 -10q-34 -32 -68 -32q-44 0 -44 44q0 51 53 111h-330v21l46 13v408l-46 13v21h373l9 -96h-31l-28 65h-187v-186h143l14 50h28v-130h-28l-14 49h-143v-197h194l28 65h31l-9 -96h-26q-39 -55 -39 -101q0 -27 25 -27q24 0 40 15z"/>
<glyph horiz-adv-x="472" glyph-name="F.smcp" d="M315 227h-136v-185l67 -19v-23h-203v25l46 20v397l-46 13v21h366l9 -96h-31l-28 65h-180v-187h136l14 49h29v-130h-29z"/>
<glyph horiz-adv-x="571" glyph-name="G.smcp" d="M481 191v-170l-10 -10l-38 20q-59 -36 -138 -36q-110 0 -175 65t-65 176q0 112 66.5 178.5t176.5 66.5q76 0 133 -31l29 14l11 -10l11 -100h-32q-37 94 -139 94q-77 0 -118.5 -52t-41.5 -156q0 -93 40 -148.5t122 -55.5q46 0 79 20v137l-46 15v24h181v-24z"/>
<glyph horiz-adv-x="571" glyph-name="Gbreve.smcp" d="M337 591q0 14 10.5 24.5t26.5 10.5q14 0 25 -9.5t11 -27.5q0 -31 -33.5 -49.5t-79.5 -18.5q-47 0 -80 18.5t-33 49.5q0 18 11 27.5t25 9.5q15 0 25.5 -10.5t10.5 -24.5q0 -19 8 -29t15.5 -11.5t17.5 -1.5q40 0 40 42zM481 191v-170l-10 -10l-38 20q-59 -36 -138 -36 q-110 0 -175 65t-65 176q0 112 66.5 178.5t176.5 66.5q76 0 133 -31l29 14l11 -10l11 -100h-32q-37 94 -139 94q-77 0 -118.5 -52t-41.5 -156q0 -93 40 -148.5t122 -55.5q46 0 79 20v137l-46 15v24h181v-24z"/>
<glyph horiz-adv-x="571" glyph-name="Gcircumflex.smcp" d="M295 631h9l102 -105l-16 -16l-90 53l-90 -53l-16 16zM481 191v-170l-10 -10l-38 20q-59 -36 -138 -36q-110 0 -175 65t-65 176q0 112 66.5 178.5t176.5 66.5q76 0 133 -31l29 14l11 -10l11 -100h-32q-37 94 -139 94q-77 0 -118.5 -52t-41.5 -156q0 -93 40 -148.5 t122 -55.5q46 0 79 20v137l-46 15v24h181v-24z"/>
<glyph horiz-adv-x="571" glyph-name="Gcommaaccent.smcp" d="M279 -170l-10 11q28 28 28 48q0 2 -2 4q-14 0 -23.5 9t-9.5 24q0 14 9.5 23t24.5 9q14 0 24.5 -9.5t10.5 -28.5q0 -38 -52 -90zM481 191v-170l-10 -10l-38 20q-59 -36 -138 -36q-110 0 -175 65t-65 176q0 112 66.5 178.5t176.5 66.5q76 0 133 -31l29 14l11 -10l11 -100 h-32q-37 94 -139 94q-77 0 -118.5 -52t-41.5 -156q0 -93 40 -148.5t122 -55.5q46 0 79 20v137l-46 15v24h181v-24z"/>
<glyph horiz-adv-x="571" glyph-name="Gdotaccent.smcp" d="M248 576q0 21 13.5 34.5t35.5 13.5t35.5 -13.5t13.5 -34.5t-13.5 -35t-35.5 -14t-35.5 14t-13.5 35zM481 191v-170l-10 -10l-38 20q-59 -36 -138 -36q-110 0 -175 65t-65 176q0 112 66.5 178.5t176.5 66.5q76 0 133 -31l29 14l11 -10l11 -100h-32q-37 94 -139 94 q-77 0 -118.5 -52t-41.5 -156q0 -93 40 -148.5t122 -55.5q46 0 79 20v137l-46 15v24h181v-24z"/>
<glyph horiz-adv-x="592" glyph-name="H.smcp" d="M43 25l46 20v392l-46 15v24h182v-24l-46 -17v-179h234v181l-46 15v24h182v-24l-46 -17v-396l46 -16v-23h-182v25l46 20v180h-234v-186l46 -16v-23h-182v25z"/>
<glyph horiz-adv-x="581" glyph-name="Hbar.smcp" d="M179 256h223v77h-223v-77zM45 333v21l44 10v73l-46 15v24h182v-24l-46 -17v-71h223v73l-45 15v24h181v-24l-45 -17v-71l45 -10v-21h-45v-294l45 -16v-23h-181v25l45 20v180h-223v-186l46 -16v-23h-182v25l46 20v288h-44z"/>
<glyph horiz-adv-x="592" glyph-name="Hcircumflex.smcp" d="M291 631h9l102 -105l-17 -16l-89 53l-90 -53l-16 16zM43 25l46 20v392l-46 15v24h182v-24l-46 -17v-179h234v181l-46 15v24h182v-24l-46 -17v-396l46 -16v-23h-182v25l46 20v180h-234v-186l46 -16v-23h-182v25z"/>
<glyph horiz-adv-x="268" glyph-name="I.smcp" d="M178 435v-396l46 -16v-23h-180v25l46 20v392l-46 15v24h180v-24z"/>
<glyph horiz-adv-x="268" glyph-name="Iacute.smcp" d="M71 526l103 105l52 -52l-139 -69zM178 435v-396l46 -16v-23h-180v25l46 20v392l-46 15v24h180v-24z"/>
<glyph horiz-adv-x="267" glyph-name="Ibreve.smcp" d="M174 591q0 14 10.5 24.5t26.5 10.5q14 0 25 -9.5t11 -27.5q0 -31 -33 -49.5t-80 -18.5t-80 18.5t-33 49.5q0 18 11 27.5t25 9.5t25 -10.5t11 -24.5q0 -19 8 -29t15.5 -11.5t17.5 -1.5q40 0 40 42zM178 435v-396l46 -16v-23h-180v25l46 20v392l-46 15v24h180v-24z"/>
<glyph horiz-adv-x="267" glyph-name="Icircumflex.smcp" d="M129 631h10l101 -105l-17 -16l-90 53l-89 -53l-16 16zM178 435v-396l46 -16v-23h-180v25l46 20v392l-46 15v24h180v-24z"/>
<glyph horiz-adv-x="267" glyph-name="Idieresis.smcp" d="M155 566q0 20 13 32.5t33 12.5t32.5 -12.5t12.5 -32.5q0 -19 -13 -32t-32 -13t-32.5 13t-13.5 32zM21 566q0 20 12.5 32.5t32.5 12.5t32.5 -12.5t12.5 -32.5q0 -19 -12.5 -32t-32.5 -13q-19 0 -32 13t-13 32zM178 435v-396l45 -16v-23h-179v25l45 20v392l-45 15v24h179 v-24z"/>
<glyph horiz-adv-x="268" glyph-name="Idotaccent.smcp" d="M85 576q0 21 13.5 34.5t35.5 13.5t35 -13.5t13 -34.5t-13.5 -35t-34.5 -14q-22 0 -35.5 14t-13.5 35zM178 435v-396l46 -16v-23h-180v25l46 20v392l-46 15v24h180v-24z"/>
<glyph horiz-adv-x="268" glyph-name="Igrave.smcp" d="M101 631l104 -105l-17 -16l-138 69zM178 435v-396l46 -16v-23h-180v25l46 20v392l-46 15v24h180v-24z"/>
<glyph horiz-adv-x="268" glyph-name="Imacron.smcp" d="M42 541v35h184v-35h-184zM178 435v-396l46 -16v-23h-180v25l46 20v392l-46 15v24h180v-24z"/>
<glyph horiz-adv-x="268" glyph-name="Iogonek.smcp" d="M215 -113l9 -10q-32 -32 -68 -32q-44 0 -44 44q0 51 53 111h-121v25l46 20v392l-46 15v24h180v-24l-46 -17v-396l46 -16v-23h-35q-39 -53 -39 -101q0 -27 25 -27t40 15z"/>
<glyph horiz-adv-x="268" glyph-name="Itilde.smcp" d="M27 525l-15 16q65 63 93 63q16 0 38.5 -16t40.5 -16q28 0 59 31l15 -15q-65 -65 -96 -65q-15 0 -37.5 16t-41.5 16q-26 0 -56 -30zM178 435v-396l46 -16v-23h-180v25l46 20v392l-46 15v24h180v-24z"/>
<glyph horiz-adv-x="490" glyph-name="IJ.smcp" d="M311 0v437l-45 15v24h179v-24l-46 -17v-435q0 -54 -31.5 -99.5t-89.5 -75.5l-19 19q52 53 52 156zM178 435v-396l46 -16v-23h-180v25l46 20v392l-46 15v24h180v-24z"/>
<glyph horiz-adv-x="268" glyph-name="J.smcp" d="M91 0v437l-46 15v24h178v-24l-45 -17v-435q0 -54 -31.5 -99.5t-89.5 -75.5l-19 19q26 26 39.5 69.5t13.5 86.5z"/>
<glyph horiz-adv-x="267" glyph-name="Jcircumflex.smcp" d="M129 631h10l101 -105l-17 -16l-90 53l-89 -53l-16 16zM90 0v437l-46 15v24h179v-24l-46 -17v-435q0 -53 -31.5 -99t-88.5 -76l-20 19q26 26 39.5 69.5t13.5 86.5z"/>
<glyph horiz-adv-x="534" glyph-name="K.smcp" d="M177 435v-202l206 204l-58 15v24h149v-24l-46 -15l-138 -138l167 -260l46 -16v-23h-125l-151 237l-50 -49v-149l45 -16v-23h-181v25l46 20v392l-46 15v24h181v-24z"/>
<glyph horiz-adv-x="534" glyph-name="Kcommaaccent.smcp" d="M250 -170l-11 11q29 29 29 48q0 2 -2 4q-14 0 -24 9t-10 24q0 14 10 23t25 9q34 0 34 -38q0 -36 -51 -90zM177 435v-202l206 204l-58 15v24h149v-24l-46 -15l-138 -138l167 -260l46 -16v-23h-125l-151 237l-50 -49v-149l45 -16v-23h-181v25l46 20v392l-46 15v24h181v-24z "/>
<glyph horiz-adv-x="466" glyph-name="L.smcp" d="M179 31h174l29 65h30l-8 -96h-361v21l46 13v403l-46 15v24h182v-24l-46 -17v-404z"/>
<glyph horiz-adv-x="466" glyph-name="Lacute.smcp" d="M71 526l103 105l52 -52l-139 -69zM179 31h174l29 65h30l-8 -96h-361v21l46 13v403l-46 15v24h182v-24l-46 -17v-404z"/>
<glyph horiz-adv-x="466" glyph-name="Lcaron.smcp" d="M140 504h-10l-102 104l17 17l89 -54l90 54l17 -17zM179 31h174l29 65h30l-8 -96h-361v21l46 13v403l-46 15v24h181v-24l-45 -17v-404z"/>
<glyph horiz-adv-x="466" glyph-name="Lcommaaccent.smcp" d="M216 -170l-11 11q29 29 29 48q0 2 -2 4q-14 0 -23.5 9t-9.5 24q0 14 9.5 23t24.5 9q34 0 34 -38q0 -36 -51 -90zM179 31h174l29 65h30l-8 -96h-361v21l46 13v403l-46 15v24h182v-24l-46 -17v-404z"/>
<glyph horiz-adv-x="466" glyph-name="Ldot.smcp" d="M302 238q0 19 12 31t31 12q20 0 32.5 -12t12.5 -31t-13 -31.5t-32 -12.5t-31 12.5t-12 31.5zM179 31h174l29 65h30l-8 -96h-361v21l46 13v403l-46 15v24h182v-24l-46 -17v-404z"/>
<glyph horiz-adv-x="466" glyph-name="Lslash.smcp" d="M54 116l-21 21l55 54v246l-45 15v24h181v-24l-45 -17v-175l77 74l21 -22l-98 -95v-186h173l29 65h31l-9 -96h-360v21l45 13v114z"/>
<glyph horiz-adv-x="710" glyph-name="M.smcp" d="M598 435l31 -396l46 -16v-23h-182v25l45 20l-24 323l-167 -368h-41l-168 368l-27 -338l46 -16v-14h-122v16l46 19l31 402l-45 15v24h116l171 -387l174 387h115v-24z"/>
<glyph horiz-adv-x="548" glyph-name="N.smcp" d="M43 16l46 19v402l-46 15v24h133l252 -347v317l-45 16v14h121v-14l-45 -18v-444h-42l-298 411v-381l46 -16v-14h-122v16z"/>
<glyph horiz-adv-x="548" glyph-name="Nacute.smcp" d="M210 526l104 105l51 -52l-138 -69zM43 16l46 19v402l-46 15v24h133l252 -347v317l-45 16v14h121v-14l-45 -18v-444h-42l-298 411v-381l46 -16v-14h-122v16z"/>
<glyph horiz-adv-x="548" glyph-name="Ncaron.smcp" d="M279 510h-10l-102 104l17 17l89 -54l91 54l16 -17zM43 16l46 19v402l-46 15v24h133l252 -347v317l-45 16v14h121v-14l-45 -18v-444h-42l-298 411v-381l46 -16v-14h-122v16z"/>
<glyph horiz-adv-x="548" glyph-name="Ncommaaccent.smcp" d="M257 -170l-11 11q29 29 29 48q0 3 -2 4q-14 0 -23.5 9t-9.5 24q0 14 9.5 23t24.5 9q34 0 34 -38q0 -36 -51 -90zM43 16l46 19v402l-46 15v24h133l252 -347v317l-45 16v14h121v-14l-45 -18v-444h-42l-298 411v-381l46 -16v-14h-122v16z"/>
<glyph horiz-adv-x="548" glyph-name="Ntilde.smcp" d="M167 525l-15 16q65 63 93 63q16 0 38.5 -16t40.5 -16q28 0 59 31l15 -15q-65 -65 -96 -65q-15 0 -37.5 16t-41.5 16q-26 0 -56 -30zM43 16l46 19v402l-46 15v24h133l252 -347v317l-45 16v14h121v-14l-45 -18v-444h-42l-298 411v-381l46 -16v-14h-122v16z"/>
<glyph horiz-adv-x="548" glyph-name="Eng.smcp" d="M43 16l46 19v402l-46 15v24h136l249 -404v374l-45 16v14h121v-14l-45 -18v-444q0 -53 -32 -99t-90 -76l-19 19q51 52 51 156v9l-250 402v-381l46 -16v-14h-122v16z"/>
<glyph horiz-adv-x="586" glyph-name="O.smcp" d="M151 237q0 -103 38.5 -156.5t103.5 -53.5t104 54t39 156q0 104 -39 158t-104 54t-103.5 -54t-38.5 -158zM55 238q0 111 65.5 177t172.5 66t172.5 -66t65.5 -177t-65.5 -177t-172.5 -66t-172.5 66t-65.5 177z"/>
<glyph horiz-adv-x="586" glyph-name="Oacute.smcp" d="M229 526l103 105l52 -52l-138 -69zM151 237q0 -103 38.5 -156.5t103.5 -53.5t104 54t39 156q0 104 -39 158t-104 54t-103.5 -54t-38.5 -158zM55 238q0 111 65.5 177t172.5 66t172.5 -66t65.5 -177t-65.5 -177t-172.5 -66t-172.5 66t-65.5 177z"/>
<glyph horiz-adv-x="586" glyph-name="Obreve.smcp" d="M334 591q0 14 10.5 24.5t25.5 10.5q14 0 25 -9.5t11 -27.5q0 -31 -33 -49.5t-80 -18.5t-80 18.5t-33 49.5q0 18 11 27.5t25 9.5q15 0 25.5 -10.5t10.5 -24.5q0 -19 8 -29t15.5 -11.5t17.5 -1.5t17.5 1.5t15.5 11.5t8 29zM151 237q0 -103 38.5 -156.5t103.5 -53.5t104 54 t39 156q0 104 -39 158t-104 54t-103.5 -54t-38.5 -158zM55 238q0 111 65.5 177t172.5 66t172.5 -66t65.5 -177t-65.5 -177t-172.5 -66t-172.5 66t-65.5 177z"/>
<glyph horiz-adv-x="586" glyph-name="Ocircumflex.smcp" d="M288 631h10l101 -105l-17 -16l-89 53l-90 -53l-16 16zM151 237q0 -103 38.5 -156.5t103.5 -53.5t104 54t39 156q0 104 -39 158t-104 54t-103.5 -54t-38.5 -158zM55 238q0 111 65.5 177t172.5 66t172.5 -66t65.5 -177t-65.5 -177t-172.5 -66t-172.5 66t-65.5 177z"/>
<glyph horiz-adv-x="586" glyph-name="Odieresis.smcp" d="M325 566q0 20 13 32.5t33 12.5t32 -12.5t12 -32.5q0 -19 -12.5 -32t-31.5 -13q-20 0 -33 13t-13 32zM170 566q0 20 13 32.5t32 12.5q20 0 32.5 -12.5t12.5 -32.5q0 -19 -12.5 -32t-32.5 -13q-19 0 -32 13t-13 32zM151 237q0 -103 38.5 -156.5t103.5 -53.5t104 54t39 156 q0 104 -39 158t-104 54t-103.5 -54t-38.5 -158zM55 238q0 111 65.5 177t172.5 66t172.5 -66t65.5 -177t-65.5 -177t-172.5 -66t-172.5 66t-65.5 177z"/>
<glyph horiz-adv-x="586" glyph-name="Ograve.smcp" d="M253 631l103 -105l-16 -16l-139 69zM151 237q0 -103 38.5 -156.5t103.5 -53.5t104 54t39 156q0 104 -39 158t-104 54t-103.5 -54t-38.5 -158zM55 238q0 111 65.5 177t172.5 66t172.5 -66t65.5 -177t-65.5 -177t-172.5 -66t-172.5 66t-65.5 177z"/>
<glyph horiz-adv-x="586" glyph-name="Ohungarumlaut.smcp" d="M294 526l92 105l51 -52l-127 -69zM163 526l91 105l52 -52l-127 -69zM151 237q0 -103 38.5 -156.5t103.5 -53.5t104 54t39 156q0 104 -39 158t-104 54t-103.5 -54t-38.5 -158zM55 238q0 111 65.5 177t172.5 66t172.5 -66t65.5 -177t-65.5 -177t-172.5 -66t-172.5 66 t-65.5 177z"/>
<glyph horiz-adv-x="586" glyph-name="Omacron.smcp" d="M201 541v35h184v-35h-184zM151 237q0 -103 38.5 -156.5t103.5 -53.5t104 54t39 156q0 104 -39 158t-104 54t-103.5 -54t-38.5 -158zM55 238q0 111 65.5 177t172.5 66t172.5 -66t65.5 -177t-65.5 -177t-172.5 -66t-172.5 66t-65.5 177z"/>
<glyph horiz-adv-x="586" glyph-name="Oslash.smcp" d="M151 237q0 -68 17 -114l238 257q-39 69 -113 69q-65 0 -103.5 -54t-38.5 -158zM436 237q0 65 -18 116l-238 -258q37 -68 113 -68q65 0 104 54t39 156zM92 0h-37l60 66q-60 65 -60 172q0 111 65.5 177t172.5 66q94 0 157 -52l44 47h37l-61 -66q61 -66 61 -172 q0 -111 -65.5 -177t-172.5 -66q-95 0 -158 52z"/>
<glyph horiz-adv-x="586" glyph-name="Oslashacute.smcp" d="M229 526l103 105l52 -52l-138 -69zM151 237q0 -68 17 -114l238 257q-39 69 -113 69q-65 0 -103.5 -54t-38.5 -158zM436 237q0 65 -18 116l-238 -258q37 -68 113 -68q65 0 104 54t39 156zM92 0h-37l60 66q-60 65 -60 172q0 111 65.5 177t172.5 66q94 0 157 -52l44 47h37 l-61 -66q61 -66 61 -172q0 -111 -65.5 -177t-172.5 -66q-95 0 -158 52z"/>
<glyph horiz-adv-x="586" glyph-name="Otilde.smcp" d="M186 525l-16 16q67 63 94 63q16 0 38.5 -16t40.5 -16q28 0 59 31l16 -15q-67 -65 -96 -65q-16 0 -38.5 16t-40.5 16q-27 0 -57 -30zM151 237q0 -103 38.5 -156.5t103.5 -53.5t104 54t39 156q0 104 -39 158t-104 54t-103.5 -54t-38.5 -158zM55 238q0 111 65.5 177 t172.5 66t172.5 -66t65.5 -177t-65.5 -177t-172.5 -66t-172.5 66t-65.5 177z"/>
<glyph horiz-adv-x="735" glyph-name="OE.smcp" d="M293 27q31 0 54 12v397q-25 13 -54 13q-65 0 -103.5 -54t-38.5 -158q0 -103 38.5 -156.5t103.5 -53.5zM437 31h185l28 65h31l-8 -96h-328q-27 -5 -52 -5q-107 0 -172.5 66t-65.5 177t65.5 177t172.5 66q25 0 52 -5h321l8 -96h-31l-28 65h-178v-186h134l14 50h29v-130h-29 l-14 49h-134v-197z"/>
<glyph horiz-adv-x="488" glyph-name="P.smcp" d="M238 445h-59v-403l67 -19v-23h-203v25l46 20v397l-46 13v21h207q82 0 132.5 -37.5t50.5 -101.5t-50.5 -101.5t-132.5 -37.5h-38l-10 10v20h36q46 0 73 27.5t27 81.5t-27 81t-73 27z"/>
<glyph horiz-adv-x="587" glyph-name="Q.smcp" d="M151 237q0 -103 38.5 -156.5t103.5 -53.5t104 54t39 156q0 104 -39 158t-104 54t-103.5 -54t-38.5 -158zM558 -38l11 -10q-41 -40 -105 -40q-23 0 -45.5 4t-37.5 9t-37 16.5t-31.5 17t-33 21t-30.5 20.5q-89 12 -141.5 75.5t-52.5 162.5q0 111 65.5 177t172.5 66 t172.5 -66t65.5 -177q0 -89 -43.5 -149t-118.5 -80q32 -22 50.5 -32.5t45.5 -20t52 -9.5q23 0 41 15z"/>
<glyph horiz-adv-x="519" glyph-name="R.smcp" d="M251 445h-72v-200h72q42 0 67 25.5t25 74.5q0 50 -25 75t-67 25zM438 345q0 -48 -32 -80t-88 -42q28 -14 58 -67l66 -117l45 -16v-23h-122l-121 215h-65v-176l46 -16v-23h-182v25l46 20v397l-46 13v21h218q80 0 128.5 -35.5t48.5 -95.5z"/>
<glyph horiz-adv-x="519" glyph-name="Racute.smcp" d="M196 526l103 105l52 -52l-138 -69zM251 445h-72v-200h72q42 0 67 25.5t25 74.5q0 50 -25 75t-67 25zM438 345q0 -48 -32 -80t-88 -42q28 -14 58 -67l66 -117l45 -16v-23h-122l-121 215h-65v-176l46 -16v-23h-182v25l46 20v397l-46 13v21h218q80 0 128.5 -35.5t48.5 -95.5 z"/>
<glyph horiz-adv-x="519" glyph-name="Rcaron.smcp" d="M257 510h-9l-102 104l17 17l89 -54l90 54l16 -17zM251 445h-72v-200h72q42 0 67 25.5t25 74.5q0 50 -25 75t-67 25zM438 345q0 -48 -32 -80t-88 -42q28 -14 58 -67l66 -117l45 -16v-23h-122l-121 215h-65v-176l46 -16v-23h-182v25l46 20v397l-46 13v21h218 q80 0 128.5 -35.5t48.5 -95.5z"/>
<glyph horiz-adv-x="519" glyph-name="Rcommaaccent.smcp" d="M242 -170l-11 11q29 29 29 48q0 3 -1 4q-15 0 -24.5 9t-9.5 24q0 14 9.5 23t24.5 9q34 0 34 -38q0 -36 -51 -90zM251 445h-72v-200h72q42 0 67 25.5t25 74.5q0 50 -25 75t-67 25zM438 345q0 -48 -32 -80t-88 -42q28 -14 58 -67l66 -117l45 -16v-23h-122l-121 215h-65 v-176l46 -16v-23h-182v25l46 20v397l-46 13v21h218q80 0 128.5 -35.5t48.5 -95.5z"/>
<glyph horiz-adv-x="457" glyph-name="S.smcp" d="M64 16l-11 100h31q10 -46 46 -68t81 -22q47 0 77 22.5t30 70.5q0 33 -22.5 48.5t-90.5 37.5q-30 9 -44.5 14.5t-38 17.5t-35 25t-21 35t-9.5 50q0 60 39.5 97t124.5 37q66 0 120 -26l19 14l10 -10l11 -100h-32q-10 48 -41.5 69.5t-70.5 21.5q-44 0 -70 -23t-26 -63 q0 -33 21 -47.5t81 -33.5q42 -14 63 -23t47 -26t37 -41t11 -59q0 -139 -182 -139q-68 0 -126 26l-19 -15z"/>
<glyph horiz-adv-x="457" glyph-name="Sacute.smcp" d="M158 526l103 105l52 -52l-139 -69zM64 16l-11 100h31q10 -46 46 -68t81 -22q47 0 77 22.5t30 70.5q0 33 -22.5 48.5t-90.5 37.5q-30 9 -44.5 14.5t-38 17.5t-35 25t-21 35t-9.5 50q0 60 39.5 97t124.5 37q66 0 120 -26l19 14l10 -10l11 -100h-32q-10 48 -41.5 69.5 t-70.5 21.5q-44 0 -70 -23t-26 -63q0 -33 21 -47.5t81 -33.5q42 -14 63 -23t47 -26t37 -41t11 -59q0 -139 -182 -139q-68 0 -126 26l-19 -15z"/>
<glyph horiz-adv-x="457" glyph-name="Scaron.smcp" d="M226 510h-9l-102 104l16 17l90 -54l90 54l17 -17zM64 16l-11 100h31q10 -46 46 -68t81 -22q47 0 77 22.5t30 70.5q0 33 -22.5 48.5t-90.5 37.5q-30 9 -44.5 14.5t-38 17.5t-35 25t-21 35t-9.5 50q0 60 39.5 97t124.5 37q66 0 120 -26l19 14l10 -10l11 -100h-32 q-10 48 -41.5 69.5t-70.5 21.5q-44 0 -70 -23t-26 -63q0 -33 21 -47.5t81 -33.5q42 -14 63 -23t47 -26t37 -41t11 -59q0 -139 -182 -139q-68 0 -126 26l-19 -15z"/>
<glyph horiz-adv-x="457" glyph-name="Scedilla.smcp" d="M170 -72l36 67q-64 3 -113 26l-19 -15l-10 10l-11 100h31q10 -46 46 -68t81 -22q47 0 77 22.5t30 70.5q0 33 -22.5 48.5t-90.5 37.5q-30 9 -44.5 14.5t-38 17.5t-35 25t-21 35t-9.5 50q0 60 39.5 97t124.5 37q66 0 120 -26l19 14l10 -10l11 -100h-32q-10 48 -41.5 69.5 t-70.5 21.5q-44 0 -70 -23t-26 -63q0 -33 21 -47.5t81 -33.5q42 -14 63 -23t47 -26t37 -41t11 -59q0 -133 -171 -139l-11 -23q23 0 39 -8.5t16 -24.5q0 -23 -71 -94l-10 10q34 34 34 51q0 22 -57 22z"/>
<glyph horiz-adv-x="457" glyph-name="Scircumflex.smcp" d="M216 631h10l101 -105l-16 -16l-91 53l-89 -53l-16 16zM64 16l-11 100h31q10 -46 46 -68t81 -22q47 0 77 22.5t30 70.5q0 33 -22.5 48.5t-90.5 37.5q-30 9 -44.5 14.5t-38 17.5t-35 25t-21 35t-9.5 50q0 60 39.5 97t124.5 37q66 0 120 -26l19 14l10 -10l11 -100h-32 q-10 48 -41.5 69.5t-70.5 21.5q-44 0 -70 -23t-26 -63q0 -33 21 -47.5t81 -33.5q42 -14 63 -23t47 -26t37 -41t11 -59q0 -139 -182 -139q-68 0 -126 26l-19 -15z"/>
<glyph horiz-adv-x="457" glyph-name="Scommaaccent.smcp" d="M203 -170l-12 11q29 29 29 48q0 3 -2 4q-14 0 -23.5 9t-9.5 24q0 14 9.5 23t24.5 9q35 0 35 -38q0 -8 -1.5 -15.5t-5.5 -15.5l-7 -14t-10 -14t-9.5 -11t-10 -11t-7.5 -9zM64 16l-11 100h31q10 -46 46 -68t81 -22q47 0 77 22.5t30 70.5q0 33 -22.5 48.5t-90.5 37.5 q-30 9 -44.5 14.5t-38 17.5t-35 25t-21 35t-9.5 50q0 60 39.5 97t124.5 37q66 0 120 -26l19 14l10 -10l11 -100h-32q-10 48 -41.5 69.5t-70.5 21.5q-44 0 -70 -23t-26 -63q0 -33 21 -47.5t81 -33.5q42 -14 63 -23t47 -26t37 -41t11 -59q0 -139 -182 -139q-68 0 -126 26 l-19 -15z"/>
<glyph horiz-adv-x="516" glyph-name="T.smcp" d="M414 445h-111v-406l46 -16v-23h-181v25l46 20v400h-111l-29 -68h-31l9 99h413l9 -96h-32z"/>
<glyph horiz-adv-x="516" glyph-name="Tbar.smcp" d="M141 221v31h73v193h-111l-29 -68h-31l9 99h413l9 -96h-32l-28 65h-111v-193h73v-31h-73v-182l46 -16v-23h-181v25l46 20v176h-73z"/>
<glyph horiz-adv-x="516" glyph-name="Tcaron.smcp" d="M263 510h-10l-101 104l16 17l90 -54l89 54l17 -17zM414 445h-111v-406l46 -16v-23h-181v25l46 20v400h-111l-29 -68h-31l9 99h413l9 -96h-32z"/>
<glyph horiz-adv-x="516" glyph-name="Tcommaaccent.smcp" d="M241 -170l-11 11q29 29 29 48q0 2 -2 4q-15 0 -24.5 9t-9.5 24q0 14 10 23t25 9q34 0 34 -38q0 -36 -51 -90zM414 445h-111v-406l46 -16v-23h-181v25l46 20v400h-111l-29 -68h-31l9 99h413l9 -96h-32z"/>
<glyph horiz-adv-x="516" glyph-name="uni021A.smcp" d="M241 -170l-11 11q29 29 29 48q0 2 -2 4q-15 0 -24.5 9t-9.5 24q0 14 10 23t25 9q34 0 34 -38q0 -36 -51 -90zM414 445h-111v-406l46 -16v-23h-181v25l46 20v400h-111l-29 -68h-31l9 99h413l9 -96h-32z"/>
<glyph horiz-adv-x="568" glyph-name="U.smcp" d="M478 444v-267q0 -83 -53.5 -132t-141.5 -49q-87 0 -140.5 49t-53.5 132v260l-46 15v24h182v-24l-46 -17v-258q0 -67 37 -102t99 -35t99.5 35t37.5 102v269l-45 16v14h117v-14z"/>
<glyph horiz-adv-x="568" glyph-name="Uacute.smcp" d="M228 526l103 105l51 -52l-138 -69zM478 444v-267q0 -83 -53.5 -132t-141.5 -49q-87 0 -140.5 49t-53.5 132v260l-46 15v24h182v-24l-46 -17v-258q0 -67 37 -102t99 -35t99.5 35t37.5 102v269l-45 16v14h117v-14z"/>
<glyph horiz-adv-x="568" glyph-name="Ubreve.smcp" d="M331 591q0 14 11 24.5t26 10.5q14 0 25 -9.5t11 -27.5q0 -31 -33 -49.5t-80 -18.5q-46 0 -79.5 18.5t-33.5 49.5q0 18 11 27.5t25 9.5q15 0 25.5 -10.5t10.5 -24.5q0 -19 8 -29t15.5 -11.5t17.5 -1.5t17 1.5t15 11.5t8 29zM478 444v-267q0 -83 -53.5 -132t-141.5 -49 q-87 0 -140.5 49t-53.5 132v260l-46 15v24h182v-24l-46 -17v-258q0 -67 37 -102t99 -35t99.5 35t37.5 102v269l-45 16v14h117v-14z"/>
<glyph horiz-adv-x="568" glyph-name="Ucircumflex.smcp" d="M286 631h10l101 -105l-16 -16l-90 53l-90 -53l-16 16zM478 444v-267q0 -83 -53.5 -132t-141.5 -49q-87 0 -140.5 49t-53.5 132v260l-46 15v24h182v-24l-46 -17v-258q0 -67 37 -102t99 -35t99.5 35t37.5 102v269l-45 16v14h117v-14z"/>
<glyph horiz-adv-x="568" glyph-name="Udieresis.smcp" d="M323 566q0 20 13 32.5t33 12.5t32.5 -12.5t12.5 -32.5q0 -19 -13 -32t-32 -13t-32.5 13t-13.5 32zM168 566q0 20 13 32.5t33 12.5t32.5 -12.5t12.5 -32.5q0 -19 -13 -32t-32 -13t-32.5 13t-13.5 32zM478 444v-267q0 -83 -53.5 -132t-141.5 -49q-87 0 -140.5 49t-53.5 132 v260l-46 15v24h182v-24l-46 -17v-258q0 -67 37 -102t99 -35t99.5 35t37.5 102v269l-45 16v14h117v-14z"/>
<glyph horiz-adv-x="568" glyph-name="Ugrave.smcp" d="M251 631l103 -105l-16 -16l-138 69zM478 444v-267q0 -83 -53.5 -132t-141.5 -49q-87 0 -140.5 49t-53.5 132v260l-46 15v24h182v-24l-46 -17v-258q0 -67 37 -102t99 -35t99.5 35t37.5 102v269l-45 16v14h117v-14z"/>
<glyph horiz-adv-x="568" glyph-name="Uhungarumlaut.smcp" d="M292 526l92 105l51 -52l-127 -69zM161 526l92 105l51 -52l-127 -69zM478 444v-267q0 -83 -53.5 -132t-141.5 -49q-87 0 -140.5 49t-53.5 132v260l-46 15v24h182v-24l-46 -17v-258q0 -67 37 -102t99 -35t99.5 35t37.5 102v269l-45 16v14h117v-14z"/>
<glyph horiz-adv-x="568" glyph-name="Umacron.smcp" d="M199 541v35h184v-35h-184zM478 444v-267q0 -83 -53.5 -132t-141.5 -49q-87 0 -140.5 49t-53.5 132v260l-46 15v24h182v-24l-46 -17v-258q0 -67 37 -102t99 -35t99.5 35t37.5 102v269l-45 16v14h117v-14z"/>
<glyph horiz-adv-x="568" glyph-name="Uogonek.smcp" d="M350 -113l10 -10q-34 -32 -68 -32q-45 0 -45 44q0 49 50 108q-3 0 -7 -0.5t-7 -0.5q-87 0 -140.5 49t-53.5 132v260l-46 15v24h182v-24l-46 -17v-258q0 -67 37 -102t99 -35t99.5 35t37.5 102v269l-45 16v14h117v-14l-46 -18v-267q0 -73 -41.5 -120t-112.5 -58 q-38 -52 -38 -100q0 -27 25 -27q24 0 39 15z"/>
<glyph horiz-adv-x="568" glyph-name="Uring.smcp" d="M271 561q0 -35 27 -35t27 35t-27 35t-27 -35zM239 561q0 25 16.5 40.5t42.5 15.5q27 0 44 -15.5t17 -40.5q0 -26 -17 -41t-44 -15t-43 15t-16 41zM478 444v-267q0 -83 -53.5 -132t-141.5 -49q-87 0 -140.5 49t-53.5 132v260l-46 15v24h182v-24l-46 -17v-258 q0 -67 37 -102t99 -35t99.5 35t37.5 102v269l-45 16v14h117v-14z"/>
<glyph horiz-adv-x="568" glyph-name="Utilde.smcp" d="M192 525l-16 16q67 63 94 63q16 0 38.5 -16t39.5 -16q30 0 59 31l16 -15q-65 -65 -96 -65q-16 0 -38.5 16t-40.5 16q-28 0 -56 -30zM478 444v-267q0 -83 -53.5 -132t-141.5 -49q-87 0 -140.5 49t-53.5 132v260l-46 15v24h182v-24l-46 -17v-258q0 -67 37 -102t99 -35 t99.5 35t37.5 102v269l-45 16v14h117v-14z"/>
<glyph horiz-adv-x="583" glyph-name="V.smcp" d="M271 0l-197 437l-46 15v24h182v-24l-45 -15l155 -348l156 348l-57 15v24h136v-24l-44 -15l-199 -437h-41z"/>
<glyph horiz-adv-x="873" glyph-name="W.smcp" d="M568 0l-133 308l-130 -308h-41l-190 437l-46 15v24h182v-24l-45 -15l148 -348l105 257l-41 91l-44 15v24h181v-24l-46 -15l149 -348l150 348l-57 15v24h135v-24l-44 -15l-192 -437h-41z"/>
<glyph horiz-adv-x="873" glyph-name="Wacute.smcp" d="M373 526l103 105l52 -52l-138 -69zM568 0l-133 308l-130 -308h-41l-190 437l-46 15v24h182v-24l-45 -15l148 -348l105 257l-41 91l-44 15v24h181v-24l-46 -15l149 -348l150 348l-57 15v24h135v-24l-44 -15l-192 -437h-41z"/>
<glyph horiz-adv-x="873" glyph-name="Wcircumflex.smcp" d="M434 631h10l101 -105l-16 -16l-90 53l-90 -53l-17 16zM568 0l-133 308l-130 -308h-41l-190 437l-46 15v24h182v-24l-45 -15l148 -348l105 257l-41 91l-44 15v24h181v-24l-46 -15l149 -348l150 348l-57 15v24h135v-24l-44 -15l-192 -437h-41z"/>
<glyph horiz-adv-x="873" glyph-name="Wdieresis.smcp" d="M468 566q0 20 12.5 32.5t32.5 12.5t32.5 -12.5t12.5 -32.5q0 -19 -13 -32t-32 -13q-20 0 -32.5 13t-12.5 32zM313 566q0 20 12.5 32.5t32.5 12.5t32.5 -12.5t12.5 -32.5q0 -19 -12.5 -32t-32.5 -13q-19 0 -32 13t-13 32zM568 0l-133 308l-130 -308h-41l-190 437l-46 15 v24h182v-24l-45 -15l148 -348l105 257l-41 91l-44 15v24h181v-24l-46 -15l149 -348l150 348l-57 15v24h135v-24l-44 -15l-192 -437h-41z"/>
<glyph horiz-adv-x="873" glyph-name="Wgrave.smcp" d="M399 631l103 -105l-17 -16l-137 69zM568 0l-133 308l-130 -308h-41l-190 437l-46 15v24h182v-24l-45 -15l148 -348l105 257l-41 91l-44 15v24h181v-24l-46 -15l149 -348l150 348l-57 15v24h135v-24l-44 -15l-192 -437h-41z"/>
<glyph horiz-adv-x="563" glyph-name="X.smcp" d="M387 38l-131 172l-139 -172l53 -15v-23h-137v23l47 15l158 195l-155 205l-44 14v24h188v-24l-45 -14l122 -161l129 161l-53 14v24h138v-24l-47 -14l-150 -183l165 -217l44 -15v-23h-187v23z"/>
<glyph horiz-adv-x="535" glyph-name="Y.smcp" d="M169 438l126 -204l128 204l-52 14v24h135v-24l-47 -14l-150 -240v-159l46 -16v-23h-182v25l46 20v153l-147 240l-44 14v24h186v-24z"/>
<glyph horiz-adv-x="535" glyph-name="Yacute.smcp" d="M222 526l103 105l51 -52l-138 -69zM169 438l126 -204l128 204l-52 14v24h135v-24l-47 -14l-150 -240v-159l46 -16v-23h-182v25l46 20v153l-147 240l-44 14v24h186v-24z"/>
<glyph horiz-adv-x="535" glyph-name="Ycircumflex.smcp" d="M266 631h9l102 -105l-17 -16l-90 53l-90 -53l-16 16zM169 438l126 -204l128 204l-52 14v24h135v-24l-47 -14l-150 -240v-159l46 -16v-23h-182v25l46 20v153l-147 240l-44 14v24h186v-24z"/>
<glyph horiz-adv-x="535" glyph-name="Ydieresis.smcp" d="M299 566q0 20 12.5 32.5t32.5 12.5t32.5 -12.5t12.5 -32.5q0 -19 -12.5 -32t-32.5 -13q-19 0 -32 13t-13 32zM144 566q0 20 12.5 32.5t32.5 12.5t33 -12.5t13 -32.5q0 -19 -13 -32t-33 -13q-19 0 -32 13t-13 32zM169 438l126 -204l128 204l-52 14v24h135v-24l-47 -14 l-150 -240v-159l46 -16v-23h-182v25l46 20v153l-147 240l-44 14v24h186v-24z"/>
<glyph horiz-adv-x="535" glyph-name="Ygrave.smcp" d="M231 631l102 -105l-16 -16l-138 69zM169 438l126 -204l128 204l-52 14v24h135v-24l-47 -14l-150 -240v-159l46 -16v-23h-182v25l46 20v153l-147 240l-44 14v24h186v-24z"/>
<glyph horiz-adv-x="488" glyph-name="Z.smcp" d="M55 0v21l275 424h-212l-28 -68h-32l9 99h364v-21l-276 -424h225l28 71h31l-9 -102h-375z"/>
<glyph horiz-adv-x="488" glyph-name="Zacute.smcp" d="M181 526l103 105l51 -52l-138 -69zM55 0v21l275 424h-212l-28 -68h-32l9 99h364v-21l-276 -424h225l28 71h31l-9 -102h-375z"/>
<glyph horiz-adv-x="488" glyph-name="Zcaron.smcp" d="M248 510h-9l-102 104l17 17l90 -54l90 54l16 -17zM55 0v21l275 424h-212l-28 -68h-32l9 99h364v-21l-276 -424h225l28 71h31l-9 -102h-375z"/>
<glyph horiz-adv-x="488" glyph-name="Zdotaccent.smcp" d="M195 576q0 21 14 34.5t35 13.5q22 0 35 -13.5t13 -34.5t-13.5 -35t-34.5 -14t-35 14t-14 35zM55 0v21l275 424h-212l-28 -68h-32l9 99h364v-21l-276 -424h225l28 71h31l-9 -102h-375z"/>
<glyph horiz-adv-x="561" glyph-name="uni018F.smcp" d="M259 28q57 0 98.5 41t50.5 120l-270 -15q0 -65 31.5 -105.5t89.5 -40.5zM97 387l-20 20q78 74 188 74q111 0 176 -65t65 -176q0 -112 -66.5 -178.5t-174.5 -66.5q-94 0 -152 49t-58 122q0 24 5 38l16 16h334v18q0 88 -40.5 145t-130.5 57q-89 0 -142 -53z"/>
<glyph horiz-adv-x="898" glyph-name="f_b" d="M503 372v-314q40 -28 105 -28q68 0 106.5 51t38.5 148q0 92 -35 142t-98 50q-76 0 -117 -49zM410 36v655q-34 29 -86 29q-61 0 -96 -34.5t-35 -96.5v-129h149v-36h-149v-375l91 -22v-27h-245v29l60 23v372h-60v29l60 12v123q0 76 61 121t165 45q47 0 86 -9l79 12l13 -14 v-283l-2 -49l3 -3q26 27 69.5 41.5t87.5 14.5q90 0 139 -63t49 -167q0 -117 -64.5 -177.5t-186.5 -60.5q-111 0 -188 40z"/>
<glyph horiz-adv-x="1209" glyph-name="f_f_b" d="M814 372v-314q40 -28 104 -28q69 0 107 51t38 148q0 92 -35 142t-98 50q-77 0 -116 -49zM410 465v123q0 52 28 89q-38 23 -98 23q-71 0 -109 -40.5t-38 -113.5v-86h191zM721 36v655q-34 29 -87 29q-61 0 -96 -34.5t-35 -96.5v-129h150v-36h-150v-375l92 -22v-27h-245v29 l60 23v372h-217v-375l91 -22v-27h-245v29l60 23v372h-60v29l60 12v80q0 87 67.5 138t175.5 51q75 0 125 -29q60 49 169 49q48 0 85 -9l79 12l14 -14v-283l-2 -49l3 -3q25 26 69 41t88 15q90 0 138.5 -63t48.5 -167q0 -117 -64.5 -177.5t-185.5 -60.5q-111 0 -188 40z"/>
<glyph horiz-adv-x="928" glyph-name="f_h" d="M503 365v-319l57 -19v-27h-210v29l60 23v639q-34 29 -86 29q-61 0 -96 -34.5t-35 -96.5v-129h149v-36h-149v-375l91 -22v-27h-245v29l60 23v372h-60v29l60 12v123q0 76 61 121t165 45q47 0 86 -9l79 12l13 -14v-283l-2 -55l3 -3q31 29 83.5 45.5t96.5 16.5 q71 0 108 -45.5t37 -117.5v-255l60 -19v-27h-210v29l56 23v242q0 60 -23.5 93.5t-67.5 33.5q-32 0 -73.5 -14.5t-67.5 -41.5z"/>
<glyph horiz-adv-x="1239" glyph-name="f_f_h" d="M410 465v123q0 52 28 89q-38 23 -98 23q-71 0 -109 -40.5t-38 -113.5v-86h191zM814 365v-319l56 -19v-27h-209v29l60 23v639q-34 29 -87 29q-61 0 -96 -34.5t-35 -96.5v-129h150v-36h-150v-375l92 -22v-27h-245v29l60 23v372h-217v-375l91 -22v-27h-245v29l60 23v372h-60 v29l60 12v80q0 87 67.5 138t175.5 51q75 0 125 -29q60 49 169 49q48 0 85 -9l79 12l14 -14v-283l-2 -55l3 -3q31 29 83 45.5t96 16.5q72 0 109 -45.5t37 -117.5v-255l60 -19v-27h-210v29l56 23v242q0 61 -23.5 94t-68.5 33q-32 0 -73 -14.5t-67 -41.5z"/>
<glyph horiz-adv-x="867" glyph-name="f_k" d="M718 0l-147 238l-68 -65v-127l60 -19v-27h-213v29l60 23v639q-34 29 -86 29q-61 0 -96 -34.5t-35 -96.5v-129h149v-36h-149v-375l91 -22v-27h-245v29l60 23v372h-60v29l60 12v123q0 76 61 121t165 45q47 0 86 -9l79 12l13 -14v-517l203 188l-79 19v27h190v-27l-57 -19 l-124 -114l154 -255l60 -18v-27h-132z"/>
<glyph horiz-adv-x="1177" glyph-name="f_f_k" d="M410 465v123q0 52 28 89q-38 23 -98 23q-71 0 -109 -40.5t-38 -113.5v-86h191zM1029 0l-147 238l-68 -65v-127l60 -19v-27h-213v29l60 23v639q-34 29 -87 29q-61 0 -96 -34.5t-35 -96.5v-129h150v-36h-150v-375l92 -22v-27h-245v29l60 23v372h-217v-375l91 -22v-27h-245 v29l60 23v372h-60v29l60 12v80q0 87 67.5 138t175.5 51q75 0 125 -29q60 49 169 49q48 0 85 -9l79 12l14 -14v-517l203 188l-79 19v27h190v-27l-57 -19l-124 -114l153 -255l61 -18v-27h-132z"/>
<glyph horiz-adv-x="701" glyph-name="f_t" d="M410 691q-34 29 -88 29q-59 0 -94 -34.5t-35 -96.5v-129h149v-36h-149v-375l91 -22v-27h-245v29l60 23v372h-60v29l60 12v123q0 76 61 121t172 45q118 0 171 -65v-229h141v-36h-141v-294q0 -44 21.5 -68.5t59.5 -24.5q43 0 64 23l20 -19q-45 -45 -120 -45q-64 0 -101 36 t-37 98v561z"/>
<glyph horiz-adv-x="1012" glyph-name="f_f_t" d="M410 465v123q0 52 28 89q-38 23 -98 23q-71 0 -109 -40.5t-38 -113.5v-86h191zM721 691q-34 29 -89 29q-59 0 -94 -34.5t-35 -96.5v-129h150v-36h-150v-375l92 -20v-31h-245v33l60 21v372h-217v-375l91 -20v-31h-245v33l61 21v372h-61v29l61 12v80q0 87 67 138t175 51 q73 0 125 -29q62 49 176 49q118 0 171 -65v-229h141v-36h-141v-294q0 -44 21 -68.5t60 -24.5q41 0 64 23l19 -19q-45 -45 -119 -45q-64 0 -101 36t-37 98v561z"/>
<glyph horiz-adv-x="524" glyph-name="germandbls.smcp" d="M243 14v75h31q15 -61 69 -61q56 0 56 48q0 19 -13 29t-49 24q-27 11 -38 17t-28 18t-23.5 27.5t-6.5 37.5q0 37 33.5 79.5t33.5 77.5q0 64 -68 64t-68 -84v-328l42 -15v-23h-171v25l42 17v240h-42v26l42 9v47q0 115 163 115q131 0 131 -75q0 -29 -34.5 -72t-34.5 -74 q0 -21 12 -31.5t45 -22.5q29 -12 41.5 -18t31 -19.5t26 -31t7.5 -42.5q0 -96 -125 -96q-53 0 -88 17h-17z"/>
<glyph horiz-adv-x="567" glyph-name="zero.fitted" d="M125 349q0 -151 43.5 -235t115.5 -84t115.5 84t43.5 235q0 152 -43.5 236.5t-115.5 84.5t-115.5 -84.5t-43.5 -236.5zM25 350q0 163 71.5 259.5t187.5 96.5t187 -96.5t71 -259.5t-71 -259.5t-187 -96.5t-187.5 96.5t-71.5 259.5z"/>
<glyph horiz-adv-x="567" glyph-name="one.fitted" d="M146 0v29l95 23v586h-111v30l190 39l14 -14v-647l95 -19v-27h-283z"/>
<glyph horiz-adv-x="567" glyph-name="two.fitted" d="M51 0v43q72 62 114 100t94 92.5t79 96.5t46 94t19 104q0 70 -37.5 104.5t-105.5 34.5q-73 0 -121 -47v-63q0 -17 -12.5 -30t-30.5 -13q-17 0 -29.5 12.5t-12.5 38.5q0 57 58 97t156 40q103 0 163.5 -47.5t60.5 -139.5q0 -49 -19.5 -98t-48 -88.5t-76.5 -86t-88 -79.5 t-99 -80q-12 -9 -18 -14h305l27 83h34l-5 -154h-453z"/>
<glyph horiz-adv-x="567" glyph-name="three.fitted" d="M152 630v-54q0 -18 -12.5 -30.5t-30.5 -12.5t-30 12.5t-12 37.5q0 56 61 89t146 33q99 0 157.5 -47t58.5 -127q0 -62 -35 -103.5t-94 -57.5q74 -18 115.5 -65t41.5 -116q0 -90 -67.5 -142t-177.5 -52q-88 0 -150 32.5t-62 89.5q0 25 12.5 37.5t28.5 12.5q18 0 31 -12.5 t13 -30.5v-57q42 -35 118 -35q71 0 114.5 42t43.5 119q0 78 -49 118t-136 40h-49v36h47q160 0 160 138q0 68 -35.5 105.5t-96.5 37.5q-69 0 -111 -38z"/>
<glyph horiz-adv-x="567" glyph-name="four.fitted" d="M300 0v29l59 23v98h-315v27q87 144 133.5 263.5t46.5 259.5h93q0 -73 -18 -144.5t-53.5 -138.5t-69.5 -117.5t-83 -114.5h266v205l77 77l13 -14v-268h75v-35h-75v-104l60 -19v-27h-209z"/>
<glyph horiz-adv-x="567" glyph-name="five.fitted" d="M149 114v-54q41 -29 104 -29q74 0 115.5 46.5t41.5 131.5q0 92 -45.5 140t-127.5 48q-67 0 -114 -32l-24 24l28 311q203 0 322 13v-82h-280l-37 -228q55 31 132 31q112 0 177 -59t65 -161q0 -101 -66 -159.5t-182 -58.5q-84 0 -139.5 30t-55.5 81q0 24 12.5 36.5 t29.5 12.5q19 0 31.5 -12.5t12.5 -29.5z"/>
<glyph horiz-adv-x="567" glyph-name="six.fitted" d="M144 314q0 -282 143 -282q62 0 99.5 47t37.5 129q0 87 -42.5 132t-108.5 45q-43 0 -78 -19.5t-51 -51.5zM145 373q57 55 151 55q102 0 163 -58t61 -156q0 -101 -64.5 -159.5t-164.5 -58.5q-119 0 -181 82.5t-62 226.5q0 101 31 178t87 123.5t125.5 71t152.5 29.5l22 -23 q-146 -18 -229.5 -99t-91.5 -212z"/>
<glyph horiz-adv-x="567" glyph-name="seven.fitted" d="M309 0h-93q0 82 25 169.5t54 146t82 157.5t80 155h-336l-31 -80h-34l11 152h450v-27q-22 -58 -66 -163t-70.5 -172t-49 -161t-22.5 -177z"/>
<glyph horiz-adv-x="567" glyph-name="eight.fitted" d="M302 400l31 -12q73 58 73 150q0 65 -32.5 98.5t-89.5 33.5q-60 0 -93.5 -34.5t-33.5 -95.5q0 -58 32 -85t113 -55zM269 325q-24 8 -36 13q-97 -65 -97 -166q0 -73 38.5 -107.5t105.5 -34.5q71 0 112.5 36.5t41.5 105.5q0 61 -36.5 90.5t-128.5 62.5zM494 541 q0 -110 -121 -169q74 -32 112 -72.5t38 -113.5q0 -89 -60 -140.5t-186 -51.5q-118 0 -175 46.5t-57 127.5q0 73 39.5 115t107.5 72q-58 26 -89 65t-31 104q0 81 51.5 131.5t164.5 50.5q105 0 155.5 -45.5t50.5 -119.5z"/>
<glyph horiz-adv-x="567" glyph-name="nine.fitted" d="M422 386q0 148 -34 215.5t-104 67.5q-63 0 -101.5 -49.5t-38.5 -132.5q0 -85 41.5 -128t106.5 -43q44 0 78.5 19.5t51.5 50.5zM419 327q-55 -54 -151 -54q-100 0 -160 56.5t-60 153.5q0 103 66 162.5t169 59.5q116 0 175.5 -79.5t59.5 -226.5q0 -198 -106 -295.5 t-292 -109.5l-22 22q151 19 231 99t90 212z"/>
<glyph horiz-adv-x="557" glyph-name="zero.taboldstyle" d="M130 229q0 -94 41 -146.5t108 -52.5q66 0 107.5 52.5t41.5 146.5q0 95 -41.5 148t-107.5 53q-67 0 -108 -53t-41 -148zM30 230q0 108 69 172t180 64t179.5 -64t68.5 -172t-68.5 -172t-179.5 -64t-180 64t-69 172z"/>
<glyph horiz-adv-x="557" glyph-name="one.taboldstyle" d="M141 0v29l95 23v346h-111v30l190 39l14 -14v-407l94 -19v-27h-282z"/>
<glyph horiz-adv-x="557" glyph-name="two.taboldstyle" d="M80 0v43q70 48 110 78.5t82.5 70t61.5 77t19 77.5q0 83 -99 83q-57 0 -93 -35v-63q0 -17 -12.5 -30t-31.5 -13q-17 0 -29.5 12.5t-12.5 39.5q0 54 50 89t138 35q83 0 131.5 -32.5t48.5 -91.5q0 -31 -16 -62.5t-36 -55t-61.5 -55.5t-67.5 -49.5t-80 -52.5h228l28 84h34 l-5 -149h-387z"/>
<glyph horiz-adv-x="557" glyph-name="three.taboldstyle" d="M398 0q0 138 -172 138h-38v36h36q145 0 145 124q0 62 -32.5 96t-86.5 34q-57 0 -93 -35v-57q0 -18 -12.5 -30.5t-30.5 -12.5q-17 0 -29.5 12.5t-12.5 38.5q0 56 55.5 88.5t136.5 32.5q90 0 145.5 -43.5t55.5 -117.5q0 -57 -33.5 -94.5t-86.5 -52.5q73 -21 111 -60 t38 -107q0 -113 -106 -176.5t-290 -69.5l-22 22q160 15 241 75.5t81 158.5z"/>
<glyph horiz-adv-x="557" glyph-name="four.taboldstyle" d="M439 -250h-90v250h-305v27q167 228 167 433h94q0 -198 -212 -425h256v195l77 77l13 -14v-258h75v-35h-75v-250z"/>
<glyph horiz-adv-x="557" glyph-name="five.taboldstyle" d="M390 7q0 74 -42.5 112t-117.5 38q-68 0 -113 -32l-24 24l29 311q194 0 308 13v-82h-266l-38 -228q55 31 131 31q106 0 167.5 -51t61.5 -143q0 -117 -103.5 -183t-291.5 -73l-22 22q160 15 240.5 77.5t80.5 163.5z"/>
<glyph horiz-adv-x="557" glyph-name="six.taboldstyle" d="M144 314q0 -282 138 -282q59 0 95.5 47.5t36.5 128.5q0 87 -41 132t-105 45q-42 0 -75 -19t-49 -52zM145 373q55 55 147 55q98 0 157.5 -57t59.5 -155q0 -101 -63 -159.5t-161 -58.5q-116 0 -176.5 82.5t-60.5 232.5q0 108 31 192t86 137t125.5 81.5t153.5 33.5l22 -23 q-146 -21 -229.5 -115t-91.5 -246z"/>
<glyph horiz-adv-x="557" glyph-name="seven.taboldstyle" d="M300 -250h-94q0 68 13 133.5t40 131.5t52 117.5t65.5 128.5t63.5 127h-313l-31 -80h-34l12 152h427v-27q-19 -50 -65 -164t-69.5 -178t-45 -160.5t-21.5 -180.5z"/>
<glyph horiz-adv-x="557" glyph-name="eight.taboldstyle" d="M155 578q0 -63 30 -91t113 -62l19 -8q77 63 77 161q0 70 -31 106t-86 36q-57 0 -89.5 -38t-32.5 -104zM263 349q-9 3 -27 11q-100 -70 -100 -180q0 -76 37.5 -113t101.5 -37q69 0 109 39.5t40 115.5q0 65 -34.5 95.5t-126.5 68.5zM482 583q0 -71 -36 -112.5t-94 -68.5 q79 -36 120 -80.5t41 -124.5q0 -94 -59.5 -148.5t-182.5 -54.5q-114 0 -170 49t-56 133q0 78 42.5 122.5t115.5 76.5q-65 30 -99 72t-34 116q0 85 51 139t162 54q101 0 150 -47.5t49 -125.5z"/>
<glyph horiz-adv-x="557" glyph-name="nine.taboldstyle" d="M412 146q0 148 -33 215.5t-100 67.5q-61 0 -98 -49.5t-37 -132.5q0 -85 40 -128t102 -43q43 0 76.5 19.5t49.5 50.5zM409 87q-55 -54 -147 -54q-97 0 -155.5 56.5t-58.5 153.5q0 102 64.5 162t164.5 60q114 0 172.5 -79.5t58.5 -226.5q0 -201 -106 -300t-292 -112l-23 23 q301 38 322 317z"/>
<glyph horiz-adv-x="335" glyph-name="zero.sup" d="M95 525q0 -76 20 -116t53 -40q32 0 52 40.5t20 115.5t-20 115.5t-52 40.5q-33 0 -53 -40t-20 -116zM30 525q0 82 38 130t99 48q62 0 100 -48t38 -130t-38 -130t-100 -48q-61 0 -99 48t-38 130z"/>
<glyph horiz-adv-x="208" glyph-name="one.sup" d="M33 350v18l43 13v281h-48v19l102 23l8 -8v-319l42 -10v-17h-147z"/>
<glyph horiz-adv-x="281" glyph-name="two.sup" d="M23 350v27q85 74 125 127t40 114q0 62 -59 62q-32 0 -53 -21v-32q0 -11 -7.5 -18t-18.5 -7q-26 0 -26 30t29 50t80 20q53 0 83 -23.5t30 -68.5q0 -25 -11.5 -51t-23 -43.5t-41.5 -45t-41.5 -37t-47.5 -38.5h137l15 42h23l-5 -87h-228z"/>
<glyph horiz-adv-x="303" glyph-name="three.sup" d="M89 664v-29q0 -11 -7.5 -18.5t-18.5 -7.5q-10 0 -18 7.5t-8 21.5q0 30 31 47.5t76 17.5q53 0 84 -24t31 -64q0 -61 -65 -80q79 -21 79 -90q0 -45 -36 -71.5t-93 -26.5q-46 0 -78 17.5t-32 47.5q0 14 8 21.5t18 7.5q11 0 18.5 -7.5t7.5 -18.5v-30q20 -15 51 -15 q32 0 52.5 20t20.5 58q0 75 -86 75h-25v22h23q74 0 74 65q0 34 -16 52t-44 18t-47 -16z"/>
<glyph horiz-adv-x="308" glyph-name="four.sup" d="M153 350v18l30 13v44h-154v15q44 73 66.5 132.5t22.5 127.5h62q0 -68 -31.5 -127t-88.5 -126h123v85l52 52l7 -8v-129h37v-22h-37v-48l30 -10v-17h-119z"/>
<glyph horiz-adv-x="277" glyph-name="five.sup" d="M79 410v-29q17 -11 42 -11q67 0 67 84q0 91 -76 91q-31 0 -53 -16l-14 14l14 157q100 0 163 8v-53h-138l-19 -103q29 15 64 15q56 0 89.5 -29.5t33.5 -80.5q0 -50 -34 -79.5t-93 -29.5q-43 0 -70.5 16t-27.5 43q0 14 8 21t18 7q11 0 18.5 -7.5t7.5 -17.5z"/>
<glyph horiz-adv-x="298" glyph-name="six.sup" d="M89 511q0 -141 62 -141q27 0 42.5 22t15.5 62q0 42 -18 63t-47 21q-38 0 -55 -27zM89 542q26 23 71 23q51 0 81.5 -29t30.5 -78q0 -51 -33.5 -80.5t-85.5 -29.5q-61 0 -94 43t-33 115q0 97 56 144.5t146 53.5l15 -15q-148 -21 -154 -147z"/>
<glyph horiz-adv-x="291" glyph-name="seven.sup" d="M166 350h-62q0 53 15.5 97.5t56 114t52.5 93.5h-160l-17 -42h-22l6 87h230v-15q-9 -25 -40 -102t-45 -129t-14 -104z"/>
</font>
</defs>
</svg>
