<?xml version="1.0" encoding="UTF-8" standalone="no"?>
<svg width="75px" height="129px" viewBox="0 0 75 129" version="1.1" xmlns="http://www.w3.org/2000/svg" xmlns:xlink="http://www.w3.org/1999/xlink">
    <!-- Generator: Sketch 40.1 (33804) - http://www.bohemiancoding.com/sketch -->
    <title>?</title>
    <desc>Created with Sketch.</desc>
    <defs></defs>
    <g id="1-main" stroke="none" stroke-width="1" fill="none" fill-rule="evenodd">
        <g id="1-m-main" transform="translate(-117.000000, -4908.000000)" fill="#C59C63">
            <g id="footerQ-Copy" transform="translate(0.000000, 4773.000000)">
                <g id="Group-14" transform="translate(37.000000, 29.000000)">
                    <g id="oval">
                        <path d="M118.823009,199.105932 C118.823009,167.038136 154.743363,164.851695 154.743363,136.063559 C154.743363,117.29661 139.685841,106 116.10177,106 C94.5132743,106 80,116.20339 80,129.868644 C80,137.338983 84.3539823,140.436441 89.4336283,140.436441 C94.8761062,140.436441 99.0486726,136.427966 99.0486726,130.415254 L99.0486726,116.385593 C103.946903,112.012712 109.026549,110.737288 115.013274,110.737288 C128.800885,110.737288 136.964602,119.300847 136.964602,133.148305 C136.964602,160.29661 108.663717,160.84322 113.199115,199.105932 L118.823009,199.105932 Z M105.942478,224.432203 C105.942478,230.444915 110.477876,235 116.646018,235 C122.632743,235 127.168142,230.444915 127.168142,224.432203 C127.168142,218.419492 122.451327,213.864407 116.646018,213.864407 C110.477876,213.864407 105.942478,218.419492 105.942478,224.432203 L105.942478,224.432203 Z" id="?"></path>
                    </g>
                </g>
            </g>
        </g>
    </g>
</svg>