<?xml version="1.0" encoding="utf-8"?>
<!-- Generator: Adobe Illustrator 19.0.0, SVG Export Plug-In . SVG Version: 6.00 Build 0)  -->
<svg version="1.1" id="Layer_1" xmlns="http://www.w3.org/2000/svg" xmlns:xlink="http://www.w3.org/1999/xlink" x="0px" y="0px"
	 viewBox="-179 372 28 50" style="enable-background:new -179 372 28 50;" xml:space="preserve">
<style type="text/css">
	.st0{fill:#fff;}
</style>
<title>icon-phone</title>
<desc>Created with Sketch.</desc>
<g id="Symbols">
	<g id="icon-phone">
		<path id="Rectangle-3" class="st0" d="M-177,375c0-0.6,0.4-1,1-1h22c0.6,0,1,0.4,1,1v44c0,0.6-0.4,1-1,1h-22c-0.6,0-1-0.4-1-1V375
			L-177,375z M-179,375v44c0,1.7,1.3,3,3,3h22c1.7,0,3-1.3,3-3v-44c0-1.7-1.3-3-3-3h-22C-177.7,372-179,373.3-179,375L-179,375z"/>
		<circle id="Oval-1" class="st0" cx="-165" cy="416" r="2"/>
		<path id="Line" class="st0" d="M-170.5,378h11c0.6,0,1-0.4,1-1s-0.4-1-1-1h-11c-0.6,0-1,0.4-1,1S-171.1,378-170.5,378L-170.5,378z
			"/>
	</g>
</g>
</svg>
